**ABCDEFGHIJKLMNOPQRSTUVWXYZabcdefghijklmnopqrstuvwxyz**************************
**PARASOLID !"#$%&'()*+,-./:;<=>?@[\]^_`{|}~0123456789**************************
**PART1;
MC=AMD64;
MC_MODEL=Intel64 Family 6 Model 15 Stepping 11, GenuineIntel;
MC_ID=unknown;
OS=Windows_NT;
OS_RELEASE=unknown;
FRU=Parasolid Version 24.0, build 201, 10-11-2011;
APPL=SolidWorks 2012-2011312;
SITE=;
USER=unknown;
FORMAT=text;
GUISE=transmit;
KEY=Chamber_1Nikon_3Olympus;
FILE=Chamber_1Nikon_3Olympus.x_t;
DATE=Sat May 21 21:52:50 2016;
**PART2;
SCH=SCH_2400201_20000;
USFLD_SIZE=0;
**PART3;
**END_OF_HEADER*****************************************************************
T51 : TRANSMIT FILE created by modeller version 240020123 SCH_2400201_20000_1300
6186 0 12 27 CCCCCCCCCCCCCCCCCCCCCCCA16 index_map_offset0 0 1 dA9 index_map82 0
 A17 node_id_index_map82 0 A20 schema_embedding_map82 0 Z1 2410 0 2 0 0 0 0 1e3
 1e-8 0 3 0 1 0 1 1 4 5 6 7 8 9 10 0 0 0 0 70 11 CI9 list_type0 0 1 uI10 notrans
mit0 0 1 lCCCDCCDI12 finger_index0 0 1 dI12 finger_block1012 0 CZ2 0 4 T1 0 0 2
 20 1 11 11 13 255 4 94 0 1 0 12 0 0 13 0 51 255 5 1967 0 14 15 0 0 +.0049 .05 -
.0049 0 -1 0 .0049 0 0 -1 30 255 6 1873 0 9 16 0 0 -.055 .05 0 0 -1 0 29 255 7 1
828 0 10 17 0 .0599 .05 -.035 19 255 8 28 0 1 13 0 18 V16 255 9 1871 0 ?19 0 20
 6 0 0 1 18 255 10 1826 0 21 0 22 7 ?1 17 255 21 0 23 24 25 10 26 27 0 28 +18 22
 1823 0 29 10 30 17 ?1 17 29 0 31 28 32 22 33 34 0 24 +18 30 1820 0 19 22 35 36
 ?1 29 17 1825 0 22 36 7 .0599 .05 -.0049 29 36 1822 0 30 37 17 .055 .05 0 29 37
 1819 0 35 38 36 .0049 .05 0 18 35 1817 0 39 30 40 37 ?1 29 38 1804 0 40 41 37 .
0049 .05 -.0399 18 40 1802 0 42 35 43 38 ?1 29 41 1801 0 43 44 38 .055 .05 -.039
9 18 43 1799 0 45 40 46 41 ?1 29 44 1774 0 46 47 41 .055 0 0 18 46 1772 0 48 43
 49 44 ?1 29 47 1771 0 49 50 44 .0049 0 0 18 49 1769 0 51 46 52 47 ?1 29 50 1768
 0 52 53 47 .0599 0 -.035 18 52 1766 0 54 49 55 50 ?1 29 53 1765 0 55 56 50 .059
9 0 -.0049 18 55 1763 0 57 52 58 53 ?1 29 56 1762 0 58 59 53 .0049 0 -.0399 18 5
8 1760 0 60 55 61 56 ?1 29 59 1759 0 61 62 56 .055 0 -.0399 18 61 1757 0 63 58 6
4 59 ?1 29 62 1744 0 64 65 59 0 .05 -.0049 18 64 1742 0 66 61 67 62 ?1 29 65 174
1 0 67 68 62 0 .05 -.035 18 67 1739 0 69 64 70 65 ?1 29 68 1738 0 70 71 65 0 0 -
.0049 18 70 1736 0 72 67 73 68 ?1 29 71 1735 0 73 74 68 0 0 -.035 18 73 1733 0 7
5 70 76 71 ?1 29 74 784 0 76 77 71 .02745 .0176685608506924 -.02945 18 76 782 0
 78 73 79 74 ?1 29 77 640 0 79 80 74 .03045 .02041169966109455 -.00745 18 79 638
 0 81 76 82 77 ?1 29 80 619 0 82 83 77 .03045 .02958830033890545 -.03245 18 82 6
17 0 84 79 85 80 ?1 29 83 517 0 85 86 80 .05245 .0295883003389055 -.02945 18 85
 515 0 87 82 88 83 ?1 29 86 365 0 88 89 83 .03045 .05 -.03245 18 88 363 0 90 85
 91 86 ?1 29 89 362 0 91 92 86 .04945 .05 -.03245 18 91 360 0 93 88 94 89 ?1 29
 92 349 0 94 95 89 .02745 .05 -.01045 18 94 347 0 96 91 97 92 ?1 29 95 346 0 97
 98 92 .02745 .05 -.02945 18 97 344 0 99 94 100 95 ?1 29 98 323 0 100 101 95 .03
045 .01 -.03245 18 100 321 0 102 97 103 98 ?1 29 101 320 0 103 104 98 .04945 .01
 -.03245 18 103 318 0 105 100 106 101 ?1 29 104 317 0 106 107 101 .02745 .01 -.0
1045 18 106 315 0 108 103 109 104 ?1 29 107 314 0 109 110 104 .02745 .01 -.02945
 18 109 312 0 111 106 112 107 ?1 29 110 301 0 112 113 107 .04945 .01 -.00745 18
 112 299 0 114 109 115 110 ?1 29 113 298 0 115 116 110 .03045 .01 -.00745 18 115
 296 0 117 112 118 113 ?1 29 116 295 0 118 119 113 .04945 .05 -.00745 18 118 293
 0 120 115 121 116 ?1 29 119 292 0 121 122 116 .03045 .05 -.00745 18 121 290 0 1
23 118 124 119 ?1 29 122 279 0 124 125 119 .05245 .01 -.02945 18 124 277 0 126 1
21 127 122 ?1 29 125 276 0 127 128 122 .05245 .01 -.01045 18 127 274 0 129 124 1
30 125 ?1 29 128 273 0 130 131 125 .05245 .05 -.02945 18 130 271 0 132 127 133 1
28 ?1 29 131 270 0 133 134 128 .05245 .05 -.01045 18 133 268 0 135 130 136 131 ?
1 29 134 596 0 136 137 131 .05245 .0204116996610945 -.01045 18 136 562 0 138 133
 139 134 ?1 29 137 597 0 139 140 134 .05245 .0295883003389055 -.01045 18 139 565
 0 141 136 142 137 ?1 29 140 599 0 142 143 137 .05245 .0204116996610945 -.02945
 18 142 563 0 144 139 145 140 ?1 29 143 742 0 145 146 140 .04945 .02958830033890
545 -.00745 18 145 701 0 147 142 148 143 ?1 29 146 743 0 148 149 143 .04945 .020
41169966109455 -.00745 18 148 705 0 150 145 151 146 ?1 29 149 745 0 151 152 146
 .03045 .02958830033890545 -.00745 18 151 702 0 153 148 154 149 ?1 29 152 746 0
 154 155 149 .04945 .02958830033890545 -.03245 18 154 707 0 156 151 157 152 ?1 2
9 155 747 0 157 158 152 .04945 .02041169966109455 -.03245 18 157 703 0 159 154 1
60 155 ?1 29 158 749 0 160 161 155 .03045 .02041169966109455 -.03245 18 160 704
 0 162 157 163 158 ?1 29 161 863 0 163 164 158 .02745 .0176685608506924 -.01045
 18 163 832 0 165 160 166 161 ?1 29 164 864 0 166 167 161 .02745 .03233143914930
76 -.01045 18 166 829 0 168 163 169 164 ?1 29 167 866 0 169 0 164 .02745 .032331
4391493076 -.02945 18 169 830 0 170 166 0 167 ?1 17 170 0 171 168 78 169 172 173
 0 174 +15 255 171 849 0 165 12 175 17 168 0 171 165 170 166 174 176 0 177 +17 7
8 0 171 170 165 76 178 179 0 172 +17 172 0 180 181 182 76 170 173 0 183 -16 173
 820 0 ?170 176 184 185 0 0 1 17 174 0 186 99 187 169 168 176 0 182 -15 186 805
 0 187 188 0 17 99 0 186 189 174 97 182 190 0 191 +17 187 0 186 174 189 166 192
 193 0 0 +16 176 825 0 ?168 179 173 194 179 179 1 17 182 0 180 172 191 169 99 19
0 0 0 -15 180 475 0 182 195 0 17 191 0 180 182 196 97 90 197 0 198 -16 190 786 0
 ?99 199 200 201 199 199 1 16 199 350 0 ?183 202 190 201 190 190 1 16 200 339 0
 ?129 190 203 204 0 0 1 30 201 352 0 199 204 205 0 +.02745 .05 -.02945 0 1 0 31
 255 204 341 0 200 206 201 0 +.04945 .01 -.01045 0 1 0 0 0 1 .003 30 205 357 0 1
93 201 207 0 -.02745 .01 -.01045 0 1 0 16 193 355 0 ?187 208 202 205 202 202 1 3
0 207 368 0 209 205 210 0 -.03045 .01 -.03245 0 1 0 16 209 366 0 ?211 212 208 20
7 208 208 1 30 210 373 0 213 207 214 0 +.04945 .05 -.03245 0 1 0 16 213 371 0 ?2
15 216 212 210 212 212 1 31 214 392 0 216 210 217 0 +.04945 .05 -.01045 0 -1 0 0
 0 -1 .003 16 216 376 0 ?120 218 213 214 0 0 1 31 217 393 0 218 214 219 0 +.0304
5 .05 -.01045 0 -1 0 0 0 -1 .003 16 218 380 0 ?96 220 216 217 0 0 1 31 219 394 0
 220 217 221 0 +.04945 .05 -.02945 0 -1 0 0 0 -1 .003 16 220 384 0 ?132 197 218
 219 0 0 1 31 221 395 0 197 219 222 0 +.03045 .05 -.02945 0 -1 0 0 0 -1 .003 16
 197 388 0 ?90 223 220 221 0 0 1 38 255 222 625 0 223 221 224 0 +225 226 227 228
 229 16 223 623 0 ?230 231 197 222 0 0 1 30 224 1747 0 231 222 232 0 -0 .05 -.00
49 0 -1 0 51 225 486 0 195 233 234 235 +.03045 .01 -.02945 0 -1 0 .003 0 0 -1 51
 226 732 0 236 237 238 239 +.03995 .025 -.0399 0 0 1 .01055 1 0 0 40 255 4 227 0
 1 4 .00059486580813053 .345330977303387 ??.03045 .02041169966109455 -.03245 .02
9537453608629 .02330253788037935 -.03230784168273835 .0295482978033527 .02676269
436155645 -.0323112817317701 .03045 .02958830033890545 -.03245 41 255 1 228 L.03
045 .02041169966109455 -.03245 41 1 229 L.03045 .02958830033890545 -.03245 14 25
5 236 709 240 ?241 242 243 4 226 -244 242 241 242 18 51 237 852 0 245 246 226 24
7 +.059901 .025 -.01995 -1 0 0 .012 0 0 1 51 238 588 0 1 226 248 249 +.04945 .01
 -.01045 0 -1 0 .003 0 0 -1 141 255 239 222 250 251 226 141 250 252 253 239 226
 141 251 254 239 253 226 38 254 738 0 255 256 257 0 +233 226 258 259 260 141 253
 257 251 250 226 38 257 737 0 261 254 262 0 +263 226 264 265 266 16 261 690 0 ?2
67 268 255 257 0 0 1 31 262 736 0 268 257 252 0 +.03995 .025 -.00745 0 0 1 1 0 0
 .01055 51 263 444 0 269 270 233 271 +.03045 .01 -.01045 0 -1 0 .003 0 0 -1 40 4
 264 0 1 4 .000594865808130531 .345330977303387 ??.03045 .02958830033890545 -.00
745 .029537453608629 .02669746211962065 -.00759215831726163 .0295482978033527 .0
2323730563844355 -.00758871826822987 .03045 .02041169966109455 -.00745 41 1 265
 L.03045 .02958830033890545 -.00745 41 1 266 L.03045 .02041169966109455 -.00745
 14 269 432 272 ?273 274 275 4 263 -0 0 273 274 18 51 270 423 0 274 276 263 277
 +.04945 .01 -.01045 0 -1 0 .003 0 0 -1 51 233 465 0 273 263 225 278 +.04945 .01
 -.02945 0 -1 0 .003 0 0 -1 141 271 257 271 271 263 14 273 453 279 ?195 269 280
 4 233 -0 0 195 269 18 141 278 254 278 278 233 81 255 1 279 2360 281 273 282 0 2
72 283 284 14 195 474 283 ?285 273 180 4 225 -0 0 285 273 18 15 280 454 0 286 27
3 0 13 18 29 0 0 0 0 0 0 8 12 14 12 1212 287 ?244 0 171 4 237 -245 245 244 0 18
 81 1 287 2362 281 12 288 0 283 289 290 14 244 1102 289 ?291 12 292 4 226 -293 2
36 291 12 18 14 245 889 294 ?188 293 295 4 237 -12 12 188 293 18 81 1 294 2364 2
81 245 296 0 289 297 298 14 188 807 297 ?299 245 186 4 300 -301 301 299 245 18 1
4 293 962 302 ?245 291 303 4 226 -242 244 245 291 18 15 295 1202 0 304 245 305 1
7 304 0 295 304 304 0 306 307 0 0 -15 305 887 0 308 245 0 17 308 0 305 308 308 0
 309 310 0 0 +17 309 0 311 309 309 0 308 310 0 0 -16 310 901 0 ?308 312 313 314
 0 0 1 16 312 904 0 ?315 184 310 316 0 0 1 16 313 965 0 ?317 310 318 319 0 0 1 3
1 314 937 0 310 320 321 0 +.0221 .025 -.01995 -1 0 0 0 0 1 .012 31 320 1001 0 31
8 319 314 0 +.03995 .025 -.003 0 0 1 1 0 0 .0115 31 321 935 0 184 314 316 0 +.02
21 .025 -.01995 -1 0 0 0 0 1 .01455 16 184 898 0 ?322 173 312 321 0 0 1 31 316 9
34 0 312 321 185 0 +0 .025 -.01995 -1 0 0 0 0 1 .01455 38 185 859 0 173 316 194
 0 +237 246 323 324 325 31 194 858 0 176 185 326 0 -.02745 .025 -.01995 -1 0 0 0
 0 1 .012 51 246 854 0 1 327 237 328 +.03045 .01 -.02945 0 -1 0 .003 0 0 -1 40 6
 323 0 1 6 .000788234256998956 .379963753027367 ??.02745 .0176685608506924 -.029
45 .02777429457985875 .01988801992641995 -.0308066873275102 .0287071281805247 .0
2381959286114355 -.0318918021666136 .02865266370177645 .0265305240494206 -.03185
199546858195 .0277569765943107 .03018505540018265 -.03077197766108565 .02745 .03
23314391493076 -.02945 41 1 324 L.02745 .0176685608506924 -.02945 41 1 325 L.027
45 .0323314391493076 -.02945 51 327 855 0 1 329 246 330 +.03045 .01 -.01045 0 -1
 0 .003 0 0 -1 141 328 185 328 328 246 51 329 930 0 241 331 327 0 +.0221 .025 -.
01995 -1 0 0 .01455 0 0 1 141 330 326 330 330 327 38 326 857 0 332 194 333 0 +23
7 327 334 335 336 16 332 821 0 ?165 337 179 326 0 0 1 31 333 741 0 338 326 339 0
 +.03995 .025 -.0399 0 0 1 1 0 0 .01055 40 6 334 0 1 6 .000788234256998959 .3799
637530273655 ??.02745 .0323314391493076 -.01045 .02777429457985875 .030111980073
58005 -.0090933126724898 .0287071281805247 .02618040713885645 -.0080081978333864
2 .02865266370177645 .0234694759505794 -.00804800453141805 .02775697659431065 .0
1981494459981735 -.00912802233891436 .02745 .0176685608506924 -.01045 41 1 335 L
.02745 .0323314391493076 -.01045 41 1 336 L.02745 .0176685608506924 -.01045 16 3
38 691 0 ?340 341 337 333 0 0 1 31 339 740 0 337 333 256 0 +.03995 .025 0 0 0 1
 1 0 0 .01055 16 337 698 0 ?342 338 332 339 0 0 1 31 256 739 0 341 339 254 0 +.0
3995 .025 -.03245 -277555756156289e-30 0 -1 -1 0 277555756156289e-30 .01055 16 3
41 696 0 ?343 344 338 256 344 344 1 17 343 0 345 102 215 160 159 341 0 346 +16 3
44 694 0 ?347 255 341 256 341 341 1 17 347 0 348 93 211 154 84 344 0 286 +16 255
 695 0 ?349 261 344 254 0 0 1 17 349 0 280 350 286 157 156 255 0 215 +17 350 0 2
80 351 349 103 215 213 0 0 -17 286 0 280 349 352 154 93 212 0 0 -17 156 0 292 84
 159 154 349 255 0 347 -17 215 0 345 343 353 157 350 213 0 0 +15 345 201 0 215 3
54 0 17 353 0 345 215 102 103 355 356 0 350 -17 102 0 345 353 343 100 346 208 0
 355 +17 355 0 357 111 105 100 353 356 0 358 +16 356 319 0 ?355 359 360 361 0 0
 1 16 359 1734 0 ?362 363 356 364 0 0 1 16 360 275 0 ?365 356 366 367 0 0 1 30 3
61 232 0 356 367 368 0 +.02745 .01 -.03245 -1 0 277555756156289e-30 30 367 233 0
 360 369 361 0 +.05245 .01 -.03245 0 0 -1 30 368 231 0 370 361 371 0 +.02745 .05
 -.03245 0 0 1 16 370 345 0 ?189 372 373 368 0 0 1 30 371 230 0 372 368 374 0 +.
02745 .05 -.00745 1 0 0 16 372 291 0 ?375 376 370 371 0 0 1 30 374 229 0 376 371
 377 0 +.05245 .05 -.03245 0 0 -1 16 376 269 0 ?378 379 372 374 0 0 1 30 377 228
 0 379 374 380 0 +.02745 .05 -.03245 -1 0 277555756156289e-30 16 379 361 0 ?381
 382 376 377 0 0 1 30 380 5 0 383 377 384 0 +0 .05 0 0 0 1 16 383 1740 0 ?385 38
6 387 380 0 0 1 30 384 8 0 386 380 388 0 +0 .05 0 1 0 0 16 386 1818 0 ?32 389 38
3 384 0 0 1 30 388 11 0 389 384 390 0 +.0599 .05 0 0 0 -1 16 389 1824 0 ?28 391
 386 388 0 0 1 30 390 14 0 391 388 364 0 +0 .05 -.0399 -1 0 0 16 391 1800 0 ?392
 393 389 390 0 0 1 30 364 69 0 359 390 394 0 +0 0 0 0 0 1 30 394 68 0 363 364 39
5 0 +0 0 0 1 0 0 16 363 1770 0 ?396 397 359 394 0 0 1 30 395 67 0 397 394 398 0
 +.0599 0 0 0 0 -1 16 397 1764 0 ?25 387 363 395 0 0 1 30 398 66 0 387 395 399 0
 +0 0 -.0399 -1 0 0 16 387 1758 0 ?400 383 397 398 0 0 1 30 399 282 0 401 398 40
2 0 -.05245 .01 -.02945 0 1 0 16 401 280 0 ?403 404 393 399 393 393 1 30 402 287
 0 405 399 406 0 +.05245 .05 -.01045 0 1 0 16 405 285 0 ?407 408 404 402 404 404
 1 30 406 304 0 409 402 410 0 +.03045 .05 -.00745 0 1 0 16 409 302 0 ?411 412 40
8 406 408 408 1 30 410 309 0 413 406 414 0 -.04945 .01 -.00745 0 1 0 16 413 307
 0 ?415 416 412 410 412 412 1 31 414 326 0 416 410 417 0 +.03045 .01 -.02945 0 1
 0 0 0 1 .003 16 416 324 0 ?111 418 413 414 0 0 1 31 417 331 0 418 414 206 0 +.0
4945 .01 -.02945 0 1 0 0 0 1 .003 16 418 329 0 ?105 203 416 417 0 0 1 31 206 336
 0 203 417 204 0 +.03045 .01 -.01045 0 1 0 0 0 1 .003 16 203 334 0 ?117 200 418
 206 0 0 1 17 117 0 357 419 420 115 421 203 0 422 +15 357 212 0 419 423 0 17 419
 0 357 129 117 112 422 366 0 424 +17 420 0 357 117 111 106 425 382 0 421 +17 421
 0 275 426 427 106 117 203 0 0 -17 422 0 428 411 114 115 419 366 0 427 -15 428 2
09 0 411 429 0 17 411 0 428 430 422 79 427 409 0 0 +17 114 0 428 422 430 112 431
 412 0 419 +16 366 297 0 ?419 360 382 369 0 0 1 17 427 0 275 421 267 115 411 409
 0 0 -15 275 433 0 426 269 0 17 267 0 275 427 432 79 153 261 0 411 +17 432 0 275
 267 433 151 123 408 0 0 -17 153 0 303 147 81 151 267 261 0 434 -15 303 713 0 81
 293 435 17 147 0 303 150 153 145 434 436 0 437 -17 81 0 303 153 150 79 430 268
 0 267 -17 434 0 438 123 415 151 147 436 0 432 +15 438 659 0 415 439 0 17 123 0
 438 375 434 121 432 408 0 433 +17 415 0 438 434 375 145 440 413 0 0 +16 436 689
 0 ?434 441 268 262 268 268 1 16 441 688 0 ?437 442 436 252 0 0 1 16 268 687 0 ?
430 436 261 262 436 436 1 17 430 0 428 114 411 148 81 268 0 431 +17 431 0 443 43
7 424 148 114 412 0 0 -15 443 412 0 431 274 0 17 437 0 443 440 431 145 150 441 0
 415 +17 424 0 443 431 444 112 129 200 0 0 -16 412 652 0 ?114 413 409 410 413 41
3 1 17 444 0 443 424 445 127 407 405 0 0 -17 129 0 357 365 419 127 424 200 0 446
 +17 365 0 357 105 129 124 446 360 0 351 +17 446 0 447 407 126 127 365 360 0 444
 -15 447 205 0 407 448 0 17 407 0 447 449 446 136 444 405 0 0 +17 126 0 447 446
 449 124 450 393 0 365 +17 449 0 447 126 407 142 138 451 0 450 -17 450 0 280 452
 351 142 126 393 0 0 -16 393 519 0 ?126 401 391 399 401 401 1 17 452 0 280 453 4
50 85 144 454 0 403 -17 351 0 280 450 350 124 105 418 0 0 -17 105 0 357 355 365
 103 351 418 0 353 +17 453 0 280 352 452 130 403 401 0 0 -17 144 0 455 138 87 14
2 452 454 0 449 +16 454 554 0 ?144 456 442 457 0 0 1 17 403 0 458 459 378 85 453
 401 0 0 +15 458 538 0 403 460 0 17 459 0 458 135 403 139 87 456 0 461 -17 378 0
 458 403 135 130 462 376 0 453 +17 135 0 458 378 459 133 461 404 0 463 +17 462 0
 464 120 132 133 378 376 0 0 -15 464 138 0 465 466 31 17 120 0 464 465 462 118 4
63 216 0 375 +17 132 0 464 462 467 130 352 220 0 378 +17 467 0 464 132 90 91 381
 379 0 0 -17 352 0 280 286 453 91 132 220 0 467 -17 90 0 464 467 198 88 191 197
 0 381 +17 381 0 348 211 93 88 467 379 0 196 +15 348 667 0 211 299 0 17 211 0 34
8 347 381 82 196 209 0 0 +17 93 0 348 381 347 91 286 212 0 352 +17 196 0 180 191
 230 88 211 209 0 0 -17 230 0 180 196 346 82 162 223 0 211 +17 346 0 180 230 358
 160 102 208 0 0 -17 162 0 292 159 84 160 230 223 0 343 -15 292 718 0 84 244 468
 17 159 0 292 156 162 157 343 341 0 349 -17 84 0 292 162 156 82 347 344 0 230 -1
5 468 1100 0 469 244 0 17 469 0 468 469 469 0 470 471 0 0 +17 470 0 472 470 470
 0 469 471 0 0 -16 471 1108 0 ?469 473 474 475 0 0 1 16 473 1111 0 ?476 477 471
 478 0 0 1 16 474 1114 0 ?479 471 480 481 0 0 1 31 475 1144 0 471 482 481 0 +.03
995 .025 -.0344 0 0 -1 -1 0 0 .01055 31 482 1252 0 483 484 475 0 +.0235 .025 -.0
1995 -1 0 0 0 0 1 .01325 31 481 1143 0 474 475 485 0 +.03995 .025 -.0369 0 0 -1
 -1 0 0 .01055 31 485 1142 0 477 481 478 0 +.03995 .025 -.0344 0 0 -1 -1 0 0 .01
15 16 477 1105 0 ?486 487 473 485 0 0 1 31 478 1141 0 473 485 488 0 +.03995 .025
 -.0369 0 0 -1 -1 0 0 .0115 31 488 1074 0 489 478 490 0 +.0544 .025 -.01995 1 0
 0 0 0 -1 .01055 16 489 1038 0 ?491 492 487 488 0 0 1 31 490 1073 0 487 488 493
 0 +.0569 .025 -.01995 1 0 0 0 0 -1 .01055 16 487 1044 0 ?494 489 477 490 0 0 1
 31 493 1072 0 495 490 496 0 +.0544 .025 -.01995 1 0 0 0 0 -1 .0115 16 495 1035
 0 ?497 498 492 493 0 0 1 31 496 1071 0 492 493 499 0 +.0569 .025 -.01995 1 0 0
 0 0 -1 .0115 16 492 1041 0 ?500 495 489 496 0 0 1 31 499 1004 0 501 496 502 0 +
.03995 .025 -.0055 0 0 1 1 0 0 .01055 16 501 968 0 ?503 318 498 499 0 0 1 31 502
 1003 0 498 499 319 0 +.03995 .025 -.003 0 0 1 1 0 0 .01055 16 498 974 0 ?504 50
1 495 502 0 0 1 31 319 1002 0 313 502 320 0 +.03995 .025 -.0055 0 0 1 1 0 0 .011
5 17 504 0 505 504 504 0 506 498 0 0 +15 505 988 0 504 507 508 17 506 0 243 506
 506 0 504 498 0 0 -15 243 953 0 506 236 509 15 509 712 0 342 236 0 17 342 0 509
 342 342 0 510 337 0 0 +17 510 0 511 510 510 0 342 337 0 0 -15 511 681 0 510 512
 513 14 512 83 514 ?515 516 511 4 517 -0 0 515 516 18 15 513 82 0 396 512 0 17 3
96 0 513 19 518 46 519 363 0 520 +17 19 0 513 521 396 30 520 9 0 32 +17 518 0 51
3 396 521 49 522 20 0 519 +17 519 0 523 72 48 49 396 363 0 0 -17 520 0 524 57 33
 46 19 9 0 0 -15 524 1935 0 33 525 0 17 57 0 524 526 520 55 48 527 0 528 -17 33
 0 524 520 526 30 29 34 0 0 -17 526 0 524 33 57 22 528 529 0 0 -16 34 1835 0 ?29
 530 531 532 0 0 1 16 530 1841 0 ?45 533 34 534 0 0 1 16 531 1829 0 ?39 34 535 5
36 0 0 1 31 532 1837 0 34 536 534 0 -.055 .05 -.0049 0 -1 0 0 0 -1 .0049 31 536
 1831 0 531 537 532 0 -.0049 .05 -.0049 0 -1 0 0 0 -1 .0049 31 534 1843 0 530 53
2 538 0 -.055 .05 -.035 0 -1 0 0 0 -1 .0049 31 538 1849 0 533 534 539 0 -.0049 .
05 -.035 0 -1 0 0 0 -1 .0049 16 533 1847 0 ?69 529 530 538 0 0 1 30 539 1855 0 5
29 538 540 0 +.0599 .05 -.0049 0 -1 0 16 529 1853 0 ?528 27 533 539 0 0 1 30 540
 1861 0 27 539 16 0 -.0599 .05 -.035 0 -1 0 16 27 1859 0 ?21 20 529 540 0 0 1 30
 16 1867 0 20 540 6 0 +.0049 .05 0 0 -1 0 16 20 1865 0 ?518 9 27 16 0 0 1 17 528
 0 23 25 24 55 526 529 0 541 +15 23 80 0 25 515 0 17 25 0 23 21 528 52 541 397 0
 26 +17 24 0 23 528 21 22 28 389 0 526 -17 541 0 523 48 54 55 25 397 0 0 -15 523
 44 0 542 543 0 17 48 0 523 519 541 46 57 527 0 396 +17 54 0 523 541 544 52 63 5
45 0 25 +17 544 0 523 54 60 61 400 387 0 0 -17 63 0 546 547 26 61 54 545 0 548 -
16 545 1787 0 ?54 549 527 550 0 0 1 16 549 1793 0 ?60 551 545 552 0 0 1 16 527 1
781 0 ?48 545 553 554 0 0 1 31 550 1789 0 545 554 552 0 +.055 0 -.035 0 -1 0 0 0
 -1 .0049 31 554 1783 0 527 555 550 0 +.055 0 -.0049 0 -1 0 0 0 -1 .0049 31 552
 1795 0 549 550 556 0 +.0049 0 -.035 0 -1 0 0 0 -1 .0049 30 556 1807 0 551 552 5
37 0 +.055 .05 -.0399 0 -1 0 16 551 1805 0 ?548 535 549 556 0 0 1 30 537 1813 0
 535 556 536 0 -.0049 .05 -.0399 0 -1 0 16 535 1811 0 ?42 531 551 537 0 0 1 17 4
2 0 557 558 400 40 559 535 0 392 +15 557 78 0 400 560 0 17 558 0 557 548 42 43 3
92 391 0 547 -17 400 0 557 42 548 58 544 387 0 559 +17 559 0 561 75 562 58 42 53
5 0 0 -17 392 0 31 69 45 40 558 391 0 562 +15 31 3 0 392 466 0 17 69 0 31 385 39
2 67 562 533 0 563 +17 45 0 31 392 28 43 564 530 0 558 +17 562 0 561 559 565 40
 69 533 0 0 -15 561 1893 0 562 566 0 17 565 0 561 562 75 67 567 568 0 0 -17 75 0
 561 565 559 73 60 549 0 567 -17 567 0 569 362 563 73 565 568 0 542 +16 568 1751
 0 ?567 553 231 232 0 0 1 16 553 1775 0 ?72 527 568 555 0 0 1 16 231 1745 0 ?66
 568 223 224 0 0 1 30 232 1753 0 568 224 555 0 +0 .05 -.035 0 -1 0 31 555 1777 0
 553 232 554 0 +.0049 0 -.0049 0 -1 0 0 0 -1 .0049 17 66 0 569 563 362 64 570 23
1 0 385 +15 569 84 0 563 516 0 17 563 0 569 567 66 67 385 383 0 565 -17 362 0 56
9 66 567 70 542 359 0 570 +17 570 0 571 51 572 70 66 231 0 0 -17 385 0 31 39 69
 64 563 383 0 572 +17 39 0 31 32 385 35 572 531 0 521 +17 572 0 571 570 522 64 3
9 531 0 0 -15 571 1956 0 572 14 0 17 522 0 571 572 51 35 518 20 0 0 -17 51 0 571
 522 570 49 72 553 0 518 -17 72 0 523 542 519 70 51 553 0 362 +17 542 0 523 60 7
2 73 362 359 0 0 -17 60 0 523 544 542 58 75 549 0 400 +14 14 1955 573 ?0 525 571
 4 5 +0 0 0 525 18 81 1 573 2368 281 14 574 0 514 575 576 14 525 1934 575 ?14 57
7 524 4 15 +0 0 14 577 18 81 1 575 2369 281 525 578 0 573 579 580 14 577 1913 57
9 ?525 566 546 4 581 +0 0 525 566 18 51 15 1946 0 525 581 5 0 +.055 .05 -.0049 0
 -1 0 .0049 0 0 -1 51 581 1925 0 577 234 15 0 +.055 .05 -.035 0 -1 0 .0049 0 0 -
1 51 234 1904 0 566 225 581 0 +.0049 .05 -.035 0 -1 0 .0049 0 0 -1 14 566 1892 5
82 ?577 583 561 4 234 +0 0 577 583 18 81 1 582 2371 281 566 584 0 579 585 586 14
 583 1530 585 ?566 587 588 4 589 -0 0 566 587 18 81 1 585 2372 281 583 590 0 582
 591 592 14 587 1525 591 ?583 593 594 4 595 -0 0 583 593 18 15 588 1532 0 596 58
3 0 50 255 589 1540 0 583 0 595 0 +.02495 .015 -.03495 0 1 0 0 0 1 51 595 1538 0
 587 589 597 0 +.02495 .015 -.03495 0 -1 0 .002 0 0 -1 50 597 1508 0 593 595 598
 0 +.02495 .015 -.00495 0 -1 0 0 0 -1 14 593 1498 599 ?587 600 601 4 597 +0 0 58
7 600 18 51 598 1506 0 600 597 602 0 +.02495 .015 -.00495 0 -1 0 .002 0 0 -1 14
 600 1493 603 ?593 604 605 4 598 -0 0 593 604 18 50 602 1476 0 604 598 606 0 +.0
5495 .015 -.03495 0 1 0 0 0 1 14 604 1466 607 ?600 608 609 4 602 -0 0 600 608 18
 51 606 1474 0 608 602 610 0 +.05495 .015 -.03495 0 -1 0 .002 0 0 -1 14 608 1461
 611 ?604 612 613 4 606 -0 0 604 612 18 50 610 1444 0 612 606 614 0 +.05495 .015
 -.00495 0 -1 0 0 0 -1 14 612 1434 615 ?608 616 617 4 610 +0 0 608 616 18 51 614
 1442 0 616 610 618 0 +.05495 .015 -.00495 0 -1 0 .002 0 0 -1 14 616 1429 619 ?6
12 620 621 4 614 -0 0 612 620 18 50 618 1250 0 622 614 623 0 +.026 .025 -.01995
 -1 0 0 0 0 1 14 622 1233 624 ?620 625 626 4 618 +0 0 620 625 18 50 623 1249 0 6
20 618 627 0 +.0235 .025 -.01995 -1 0 0 0 0 1 14 620 1237 628 ?616 622 629 4 623
 -0 0 616 622 18 51 627 1248 0 625 623 630 0 +.026 .025 -.01995 -1 0 0 .01325 0
 0 1 14 625 1228 631 ?622 632 633 4 627 -0 0 622 632 18 50 630 1139 0 634 627 63
5 0 +.03995 .025 -.0344 0 0 -1 -1 0 0 14 634 1122 636 ?632 637 472 4 630 +0 0 63
2 637 18 50 635 1138 0 632 630 638 0 +.03995 .025 -.0369 0 0 -1 -1 0 0 14 632 11
26 639 ?625 634 640 4 635 -0 0 625 634 18 51 638 1137 0 637 635 641 0 +.03995 .0
25 -.0344 0 0 -1 .0115 -1 0 0 14 637 1117 642 ?634 643 644 4 638 -0 0 634 643 18
 50 641 1069 0 645 638 646 0 +.0544 .025 -.01995 1 0 0 0 0 -1 14 645 1052 647 ?6
43 648 649 4 641 +0 0 643 648 18 50 646 1068 0 643 641 650 0 +.0569 .025 -.01995
 1 0 0 0 0 -1 14 643 1056 651 ?637 645 652 4 646 -0 0 637 645 18 51 650 1067 0 6
48 646 653 0 +.0544 .025 -.01995 1 0 0 .0115 0 0 -1 14 648 1047 654 ?645 507 655
 4 650 -0 0 645 507 18 50 653 999 0 656 650 657 0 +.03995 .025 -.0055 0 0 1 1 0
 0 14 656 982 658 ?507 659 660 4 653 +0 0 507 659 18 50 657 998 0 507 653 661 0
 +.03995 .025 -.003 0 0 1 1 0 0 14 507 986 662 ?648 656 505 4 657 -0 0 648 656 1
8 51 661 997 0 659 657 331 0 +.03995 .025 -.0055 0 0 1 .0115 1 0 0 14 659 977 66
3 ?656 664 665 4 661 -0 0 656 664 18 50 331 932 0 664 661 329 0 +.0221 .025 -.01
995 -1 0 0 0 0 1 14 664 915 666 ?659 241 311 4 331 +0 0 659 241 18 81 1 666 2392
 281 664 667 0 663 668 669 14 241 910 668 ?664 236 670 4 329 -0 0 664 236 18 15
 311 917 0 309 664 671 15 671 918 0 322 664 0 17 322 0 671 322 322 0 672 184 0 0
 +17 672 0 670 672 672 0 322 184 0 0 -15 670 913 0 672 241 673 15 673 914 0 315
 241 0 17 315 0 673 315 315 0 674 312 0 0 +17 674 0 675 674 674 0 315 312 0 0 -1
5 675 892 0 674 516 569 14 516 85 676 ?512 460 675 4 276 -0 0 512 460 18 81 1 67
6 2394 281 516 677 0 668 678 679 14 460 540 678 ?516 439 458 4 680 -448 448 516
 439 18 50 276 93 0 516 517 270 0 +0 .05 0 1 0 0 0 0 -1 50 517 92 0 512 681 276
 0 +0 .05 0 0 0 -1 -1 0 0 50 681 91 0 515 682 517 0 +.0599 .05 0 -1 0 0 0 0 1 14
 515 81 683 ?560 512 684 4 681 -0 0 560 512 18 50 682 90 0 560 685 681 0 +0 .05
 -.0399 0 0 1 1 0 0 14 560 79 686 ?466 515 687 4 682 -0 0 466 515 18 50 685 65 0
 543 688 682 0 +0 0 0 0 -1 0 0 0 -1 14 543 43 689 ?301 466 690 4 685 +0 0 301 46
6 18 50 688 2 0 466 300 685 0 +0 .05 0 0 -1 0 0 0 -1 14 466 1 691 ?543 560 464 4
 688 -0 0 543 560 18 50 300 218 0 301 692 688 0 +.02745 .01 -.03245 -1 0 0 0 0 1
 14 301 194 693 ?354 543 694 4 300 -188 188 354 543 18 50 692 219 0 429 680 300
 0 +.02745 .01 -.00745 0 0 1 1 0 0 14 429 206 695 ?423 448 428 4 692 -439 439 42
3 448 18 50 680 220 0 448 696 692 0 +.05245 .01 -.03245 1 0 0 0 0 -1 14 448 202
 697 ?429 354 447 4 680 -460 460 429 354 18 50 696 221 0 354 698 680 0 +.02745 .
01 -.03245 -277555756156289e-30 0 -1 -1 0 277555756156289e-30 14 354 198 699 ?44
8 301 345 4 696 -299 299 448 301 18 50 698 223 0 423 700 696 0 +0 .01 0 0 1 0 0
 0 1 14 423 210 701 ?274 429 357 4 698 +0 0 274 429 18 51 700 585 0 285 248 698
 702 +-1000000000001e-18 .025 -.01995 1 0 0 .01055 0 0 -1 14 285 575 703 ?242 19
5 704 4 700 -291 291 242 195 18 51 248 587 0 1 238 700 705 +.04945 .01 -.02945 0
 -1 0 .003 0 0 -1 141 702 706 707 707 700 38 706 590 0 373 708 709 0 +700 238 71
0 711 712 141 707 457 702 702 700 38 457 592 0 454 713 708 0 +700 248 714 715 71
6 31 713 593 0 442 252 457 0 +.0599 .025 -.01995 1 0 0 0 0 -1 .01055 31 708 591
 0 456 457 706 0 -.05245 .025 -.01995 1 0 0 0 0 -1 .01055 40 4 714 0 1 4 .000594
865808130536 .345330977303388 ??.05245 .0295883003389055 -.02945 .05230784168273
84 .0266974621196207 -.030362546391371 .0523112817317701 .0232373056384436 -.030
3517021966473 .05245 .0204116996610945 -.02945 41 1 715 L.05245 .029588300338905
5 -.02945 41 1 716 L.05245 .0204116996610945 -.02945 16 456 558 0 ?87 451 454 70
8 451 451 1 17 87 0 455 144 141 85 459 456 0 452 +16 451 556 0 ?138 373 456 708
 456 456 1 17 138 0 455 141 144 136 449 451 0 445 +16 373 553 0 ?141 370 451 706
 0 0 1 17 141 0 455 87 138 139 445 373 0 459 +15 455 579 0 141 291 717 17 445 0
 443 444 461 136 141 373 0 407 -17 461 0 443 445 463 139 135 404 0 0 -17 463 0 4
43 461 440 133 120 216 0 462 -16 404 530 0 ?135 405 401 402 405 405 1 17 440 0 4
43 463 437 118 415 413 0 0 -14 291 1032 718 ?293 244 455 4 700 -285 285 293 244
 18 15 717 1030 0 491 291 0 17 491 0 717 491 491 0 719 489 0 0 +17 719 0 649 719
 719 0 491 489 0 0 -15 649 1054 0 719 645 720 15 720 1055 0 497 645 0 17 497 0 7
20 497 497 0 721 495 0 0 +17 721 0 655 721 721 0 497 495 0 0 -15 655 1050 0 721
 648 722 15 722 1051 0 500 648 0 17 500 0 722 500 500 0 723 492 0 0 +17 723 0 72
4 723 723 0 500 492 0 0 -15 724 1059 0 723 643 0 81 1 718 2406 281 291 725 0 703
 726 727 80 255 1 281 728 729 9000 1 1 1 1 1 1 1 1 0 FFFFTFTFFFFFFF1 81 1 725 21
99 730 291 0 718 731 732 733 81 1 703 2405 281 285 734 0 701 718 735 81 1 726 24
07 281 274 736 0 718 737 738 82 255 1 727 -574619436 14 274 411 726 ?269 423 443
 4 270 -0 0 269 423 18 81 1 736 2217 730 274 0 726 739 740 741 81 1 737 2408 281
 299 742 0 726 743 744 82 1 738 -795279158 14 299 668 737 ?439 188 348 4 696 -35
4 354 439 188 18 81 1 742 2203 730 299 0 737 745 746 747 81 1 743 2409 281 439 7
46 0 737 748 749 82 1 744 -697696054 14 439 660 743 ?460 299 438 4 692 -429 429
 460 299 18 81 1 746 2204 730 439 0 743 742 750 751 81 1 748 2410 281 242 752 0
 743 0 753 82 1 749 -698482486 14 242 714 748 ?236 285 754 4 226 -236 293 236 28
5 18 81 1 752 2222 730 242 0 748 734 755 756 82 1 753 -703921961 80 1 730 0 757
 8001 0 0 0 0 3 5 0 0 0 FFFFTFTFFFFFFF2 81 1 734 2221 730 285 0 703 758 752 759
 81 1 755 2223 730 236 0 240 752 760 761 83 255 3 756 1 1 1 81 1 240 2358 281 23
6 755 0 0 272 762 81 1 760 2224 730 241 0 668 755 667 763 83 3 761 1 1 1 81 1 66
8 2393 281 241 760 0 666 676 764 81 1 667 2225 730 664 0 666 760 765 766 83 3 76
3 1 1 1 81 1 765 2226 730 659 0 663 667 767 768 83 3 766 1 1 1 81 1 663 2391 281
 659 765 0 662 666 769 81 1 767 2227 730 656 0 658 765 770 771 83 3 768 1 1 1 81
 1 658 2389 281 656 767 0 654 662 772 81 1 770 2228 730 507 0 662 767 773 774 83
 3 771 1 1 1 81 1 662 2390 281 507 770 0 658 663 775 81 1 773 2229 730 648 0 654
 770 776 777 83 3 774 1 1 1 81 1 654 2388 281 648 773 0 651 658 778 81 1 776 223
0 730 645 0 647 773 779 780 83 3 777 1 1 1 81 1 647 2386 281 645 776 0 642 651 7
81 81 1 779 2231 730 643 0 651 776 782 783 83 3 780 1 1 1 81 1 651 2387 281 643
 779 0 647 654 784 81 1 782 2232 730 637 0 642 779 785 786 83 3 783 1 1 1 81 1 6
42 2385 281 637 782 0 639 647 787 81 1 785 2233 730 634 0 636 782 788 789 83 3 7
86 1 1 1 81 1 636 2383 281 634 785 0 631 639 790 81 1 788 2234 730 632 0 639 785
 791 792 83 3 789 1 1 1 81 1 639 2384 281 632 788 0 636 642 793 81 1 791 2235 73
0 625 0 631 788 794 795 83 3 792 1 1 1 81 1 631 2382 281 625 791 0 628 636 796 8
1 1 794 2236 730 622 0 624 791 797 798 83 3 795 1 1 1 81 1 624 2380 281 622 794
 0 619 628 799 81 1 797 2237 730 620 0 628 794 800 801 83 3 798 1 1 1 81 1 628 2
381 281 620 797 0 624 631 802 81 1 800 2238 730 616 0 619 797 803 804 83 3 801 1
 1 1 81 1 619 2379 281 616 800 0 615 624 805 81 1 803 2239 730 612 0 615 800 806
 807 83 3 804 1 1 1 81 1 615 2378 281 612 803 0 611 619 808 81 1 806 2240 730 60
8 0 611 803 809 810 83 3 807 1 1 1 81 1 611 2377 281 608 806 0 607 615 811 81 1
 809 2241 730 604 0 607 806 812 813 83 3 810 1 1 1 81 1 607 2376 281 604 809 0 6
03 611 814 81 1 812 2242 730 600 0 603 809 815 816 83 3 813 1 1 1 81 1 603 2375
 281 600 812 0 599 607 817 81 1 815 2243 730 593 0 599 812 818 819 83 3 816 1 1
 1 81 1 599 2374 281 593 815 0 591 603 820 81 1 818 2244 730 587 0 591 815 590 8
21 83 3 819 1 1 1 81 1 591 2373 281 587 818 0 585 599 822 81 1 590 2245 730 583
 0 585 818 584 823 83 3 821 1 1 1 81 1 584 2246 730 566 0 582 590 824 825 83 3 8
23 1 1 1 81 1 824 2247 730 577 0 579 584 578 826 83 3 825 1 1 1 81 1 579 2370 28
1 577 824 0 575 582 827 81 1 578 2248 730 525 0 575 824 574 828 83 3 826 1 1 1 8
1 1 574 2249 730 14 0 573 578 0 829 83 3 828 1 1 1 83 3 829 1 1 1 82 1 827 19477
95686 82 1 822 1734738148 82 1 820 1728839908 82 1 817 1730805988 82 1 814 17249
07748 82 1 811 1726873828 82 1 808 1720910052 82 1 805 1722876132 82 1 802 20008
14304 82 1 799 1999372512 82 1 796 2001338592 82 1 793 -561184553 82 1 790 -5626
26345 82 1 787 -560660265 82 1 784 -579010348 82 1 781 -580452140 82 1 778 -5784
86060 82 1 775 -600833839 82 1 772 -602275631 82 1 769 -600309551 82 1 764 -6139
41042 81 1 272 2359 281 269 740 0 240 279 830 82 1 762 -702086959 81 1 740 2218
 730 269 0 272 736 282 831 82 1 830 -793313076 81 1 282 2219 730 273 0 279 740 7
58 832 83 3 831 1 1 1 81 1 758 2220 730 195 0 283 282 734 833 83 3 832 1 1 1 81
 1 283 2361 281 195 758 0 279 287 834 83 3 833 1 1 1 82 1 834 -789380916 83 3 75
9 1 1 1 79 255 15 757 SDL/TYSA_COLOUR15 754 1093 0 835 242 836 17 835 0 754 835
 835 0 479 474 0 0 -15 836 717 0 837 242 0 17 837 0 836 837 837 0 340 338 0 0 -1
7 340 0 687 340 340 0 837 338 0 0 +15 687 675 0 340 560 557 17 479 0 640 479 479
 0 835 474 0 0 +15 640 1128 0 479 632 838 15 838 1129 0 839 632 0 17 839 0 838 8
39 839 0 476 473 0 0 -17 476 0 840 476 476 0 839 473 0 0 +15 840 1121 0 476 637
 0 81 1 750 2205 730 460 0 678 746 677 841 83 3 751 1 1 1 81 1 678 2395 281 460
 750 0 676 683 842 81 1 677 2206 730 516 0 676 750 843 844 83 3 841 1 1 1 81 1 8
43 2207 730 512 0 514 677 845 846 83 3 844 1 1 1 81 1 514 2367 281 512 843 0 302
 573 847 81 1 845 2208 730 515 0 683 843 848 849 83 3 846 1 1 1 81 1 683 2396 28
1 515 845 0 678 686 850 81 1 848 2209 730 560 0 686 845 851 852 83 3 849 1 1 1 8
1 1 686 2397 281 560 848 0 683 689 853 81 1 851 2210 730 466 0 691 848 854 855 8
3 3 852 1 1 1 81 1 691 2399 281 466 851 0 689 693 856 81 1 854 2211 730 543 0 68
9 851 857 858 83 3 855 1 1 1 81 1 689 2398 281 543 854 0 686 691 859 81 1 857 22
12 730 301 0 693 854 860 861 83 3 858 1 1 1 81 1 693 2400 281 301 857 0 691 695
 862 81 1 860 2213 730 354 0 699 857 863 864 83 3 861 1 1 1 81 1 699 2403 281 35
4 860 0 697 701 865 81 1 863 2214 730 448 0 697 860 866 867 83 3 864 1 1 1 81 1
 697 2402 281 448 863 0 695 699 868 81 1 866 2215 730 429 0 695 863 739 869 83 3
 867 1 1 1 81 1 695 2401 281 429 866 0 693 697 870 81 1 739 2216 730 423 0 701 8
66 736 871 83 3 869 1 1 1 81 1 701 2404 281 423 739 0 699 703 872 83 3 871 1 1 1
 82 1 872 -811204410 82 1 870 -804388662 82 1 868 -804519736 82 1 865 -804650806
 82 1 862 -804257588 82 1 859 -312278810 82 1 856 -315752218 82 1 853 -309198618
 82 1 850 -308936474 81 1 302 2366 281 293 732 0 297 514 873 82 1 847 -308674330
 81 1 732 2200 730 293 0 302 725 296 874 81 1 297 2365 281 188 745 0 294 302 875
 82 1 873 -592445231 81 1 745 2202 730 188 0 297 296 742 876 82 1 875 -632749876
 81 1 296 2201 730 245 0 294 732 745 877 83 3 876 1 1 1 83 3 877 1 1 1 83 3 874
 1 1 1 82 1 842 -720043832 83 3 747 1 1 1 83 3 741 1 1 1 82 1 735 -732495660 81
 1 731 2198 730 244 0 289 288 725 878 83 3 733 1 1 1 81 1 289 2363 281 244 731 0
 287 294 879 81 1 288 2197 730 12 0 287 0 731 880 83 3 878 1 1 1 83 3 880 1 1 1
 82 1 879 -556793641 79 14 729 SWEntUnchanged16 442 559 0 ?881 454 441 713 0 0 1
 38 252 735 0 441 262 713 0 +270 226 882 883 884 40 4 882 0 1 4 .000594865808130
531 .345330977303388 ??.04945 .02041169966109455 -.00745 .050362546391371 .02330
253788037935 -.00759215831726164 .0503517021966473 .02676269436155645 -.00758871
826822987 .04945 .02958830033890545 -.00745 41 1 883 L.04945 .02041169966109455
 -.00745 41 1 884 L.04945 .02958830033890545 -.00745 17 881 0 885 881 881 0 886
 442 0 0 +15 885 578 0 881 285 0 17 886 0 684 886 886 0 881 442 0 0 -15 684 547
 0 886 515 23 30 709 235 0 382 706 369 0 +.02745 .01 -.03245 0 0 1 40 4 710 0 1
 4 .000594865808130534 .345330977303388 ??.05245 .0204116996610945 -.01045 .0523
078416827384 .0233025378803793 -.00953745360862901 .0523112817317701 .0267626943
615564 -.0095482978033527 .05245 .0295883003389055 -.01045 41 1 711 L.05245 .020
4116996610945 -.01045 41 1 712 L.05245 .0295883003389055 -.01045 16 382 313 0 ?4
20 366 379 709 0 0 1 30 369 234 0 366 709 367 0 +.02745 .01 -.00745 1 0 0 141 70
5 457 705 705 248 15 704 1023 0 887 285 885 17 887 0 704 887 887 0 494 487 0 0 -
17 494 0 652 494 494 0 887 487 0 0 +15 652 1058 0 494 643 724 15 694 197 0 183 3
01 0 17 183 0 694 178 425 76 181 199 0 0 +17 178 0 694 108 183 163 78 179 0 426
 -17 425 0 694 183 108 109 420 382 0 181 -17 181 0 180 358 172 109 183 199 0 0 -
17 358 0 180 346 181 100 111 416 0 0 -17 111 0 357 420 355 109 358 416 0 425 +17
 108 0 694 425 178 106 426 202 0 420 +17 426 0 275 177 421 163 108 202 0 0 -16 2
02 797 0 ?108 193 199 205 193 193 1 17 177 0 275 192 426 166 165 332 0 187 -17 1
92 0 275 433 177 94 187 193 0 0 -17 165 0 171 78 168 163 177 332 0 178 +17 433 0
 275 432 192 121 96 218 0 465 -17 96 0 464 198 465 94 433 218 0 189 +17 465 0 46
4 96 120 121 375 372 0 0 -17 375 0 438 415 123 118 465 372 0 440 +17 198 0 464 9
0 96 97 189 370 0 0 -17 189 0 186 187 99 94 198 370 0 192 +16 179 823 0 ?78 332
 176 194 176 176 1 15 690 1513 0 888 543 889 17 888 0 690 888 888 0 890 891 0 0
 -15 889 1481 0 892 543 893 17 892 0 889 892 892 0 894 895 0 0 -15 893 1449 0 89
6 543 897 17 896 0 893 896 896 0 898 899 0 0 -15 897 1417 0 900 543 523 17 900 0
 897 900 900 0 901 902 0 0 -17 901 0 903 901 901 0 900 902 0 0 +16 902 1426 0 ?9
01 904 905 906 0 0 1 16 904 1423 0 ?907 307 902 908 0 0 1 16 905 1455 0 ?909 902
 899 910 0 0 1 31 906 1445 0 902 908 911 0 +.05495 0 -.00495 0 -1 0 0 0 -1 .002
 31 908 1446 0 904 912 906 0 +.05495 .015 -.00495 0 -1 0 0 0 -1 .002 31 911 1255
 0 913 906 914 0 +.026 .025 -.01995 -1 0 0 0 0 1 .012 16 913 1219 0 ?915 483 307
 911 0 0 1 31 914 1254 0 307 911 484 0 +.0235 .025 -.01995 -1 0 0 0 0 1 .012 16
 307 1225 0 ?306 913 904 914 0 0 1 31 484 1253 0 480 914 482 0 +.026 .025 -.0199
5 -1 0 0 0 0 1 .01325 16 480 1216 0 ?916 474 483 484 0 0 1 17 916 0 917 916 916
 0 918 480 0 0 +16 483 1222 0 ?919 480 913 482 0 0 1 17 919 0 920 919 919 0 921
 483 0 0 +15 920 1232 0 919 625 0 17 921 0 922 921 921 0 919 483 0 0 -15 922 124
0 0 921 620 0 15 917 1236 0 916 622 0 17 918 0 633 918 918 0 916 480 0 0 -15 633
 1231 0 918 625 920 17 306 0 629 306 306 0 304 307 0 0 +15 629 1239 0 306 620 92
2 17 915 0 175 915 915 0 923 913 0 0 +15 175 1210 0 915 12 0 17 923 0 626 923 92
3 0 915 913 0 0 -15 626 1235 0 923 622 917 31 912 1477 0 899 910 908 0 +.05495 0
 -.03495 0 -1 0 0 0 1 .002 16 899 1458 0 ?898 905 924 912 0 0 1 31 910 1478 0 90
5 925 912 0 +.05495 .015 -.03495 0 -1 0 0 0 1 .002 31 925 1509 0 895 926 910 0 +
.02495 0 -.00495 0 -1 0 0 0 -1 .002 16 895 1490 0 ?894 924 927 925 0 0 1 31 926
 1510 0 924 928 925 0 +.02495 .015 -.00495 0 -1 0 0 0 -1 .002 16 924 1487 0 ?929
 899 895 926 0 0 1 31 928 1541 0 891 930 926 0 +.02495 0 -.03495 0 -1 0 0 0 1 .0
02 16 891 1522 0 ?890 927 0 928 0 0 1 31 930 1542 0 927 0 928 0 +.02495 .015 -.0
3495 0 -1 0 0 0 1 .002 16 927 1519 0 ?596 895 891 930 0 0 1 17 596 0 588 596 596
 0 931 927 0 0 +17 931 0 594 931 931 0 596 927 0 0 -15 594 1528 0 931 587 932 15
 932 1529 0 890 587 0 17 890 0 932 890 890 0 888 891 0 0 +17 929 0 601 929 929 0
 933 924 0 0 +15 601 1500 0 929 593 0 17 933 0 605 933 933 0 929 924 0 0 -15 605
 1496 0 933 600 934 15 934 1497 0 894 600 0 17 894 0 934 894 894 0 892 895 0 0 +
17 898 0 935 898 898 0 896 899 0 0 +15 935 1465 0 898 608 0 17 909 0 609 909 909
 0 936 905 0 0 +15 609 1468 0 909 604 0 17 936 0 613 936 936 0 909 905 0 0 -15 6
13 1464 0 936 608 935 17 907 0 617 907 907 0 937 904 0 0 +15 617 1436 0 907 612
 0 17 937 0 621 937 937 0 907 904 0 0 -15 621 1432 0 937 616 903 15 903 1433 0 9
01 616 0 82 1 679 -308412186 82 1 669 -615907122 15 665 980 0 938 659 939 17 938
 0 665 938 938 0 317 313 0 0 -15 939 981 0 940 659 0 17 940 0 939 940 940 0 941
 318 0 0 +17 941 0 508 941 941 0 940 318 0 0 -16 318 971 0 ?940 313 501 320 0 0
 1 15 508 989 0 941 507 0 17 317 0 942 317 317 0 938 313 0 0 +15 942 985 0 317 6
56 0 15 660 984 0 943 656 942 17 943 0 660 943 943 0 503 501 0 0 -17 503 0 435 5
03 503 0 943 501 0 0 +15 435 960 0 503 293 0 15 644 1120 0 944 637 840 17 944 0
 644 944 944 0 486 477 0 0 -17 486 0 945 486 486 0 944 477 0 0 +15 945 1125 0 48
6 634 0 15 472 1124 0 470 634 945 82 1 592 1732772068 82 1 586 1945829606 15 546
 1914 0 564 577 0 17 564 0 546 26 547 10 45 530 0 0 -17 26 0 546 63 564 52 21 27
 0 0 -17 547 0 546 564 63 43 548 551 0 0 -17 548 0 557 400 558 61 547 551 0 544
 +82 1 580 1949761766 82 1 576 1951727846 17 32 0 31 29 39 30 521 386 0 33 +17 5
21 0 513 518 19 35 32 386 0 522 -17 28 0 31 45 29 10 24 389 0 564 +16 208 621 0
 ?102 209 193 207 209 209 1 16 212 632 0 ?93 213 209 210 213 213 1 17 150 0 303
 81 147 148 437 441 0 430 -16 408 642 0 ?123 409 405 406 409 409 1 82 1 298 -610
598688 82 1 290 2005336288 82 1 284 -791346998 141 277 252 277 277 270 40 4 258
 0 1 4 .00059486580813053 .345330977303388 ??.04945 .02958830033890545 -.03245 .
050362546391371 .0266974621196207 -.03230784168273835 .0503517021966473 .0232373
056384436 -.0323112817317701 .04945 .02041169966109455 -.03245 41 1 259 L.04945
 .02958830033890545 -.03245 41 1 260 L.04945 .02041169966109455 -.03245 141 249
 706 249 249 238 141 247 185 946 946 237 141 946 326 247 247 237 141 235 222 235
 235 225 19 13 95 0 1 0 8 4 S74 4 CI16 index_map_offset0 0 1 dCCZ20 11 2 0 0 748
 574 0 0 0 0 0 0 0 0 0 0 0 0 0 0 0 0 0 0 1 0 
