**ABCDEFGHIJKLMNOPQRSTUVWXYZabcdefghijklmnopqrstuvwxyz**************************
**PARASOLID !"#$%&'()*+,-./:;<=>?@[\]^_`{|}~0123456789**************************
**PART1;
MC=AMD64;
MC_MODEL=Intel64 Family 6 Model 15 Stepping 11, GenuineIntel;
MC_ID=unknown;
OS=Windows_NT;
OS_RELEASE=unknown;
FRU=Parasolid Version 24.0, build 201, 10-11-2011;
APPL=SolidWorks 2012-2011312;
SITE=;
USER=unknown;
FORMAT=text;
GUISE=transmit;
KEY=Nikon-LensRing;
FILE=Nikon-LensRing.x_t;
DATE=Sat May 21 21:49:47 2016;
**PART2;
SCH=SCH_2400201_20000;
USFLD_SIZE=0;
**PART3;
**END_OF_HEADER*****************************************************************
T51 : TRANSMIT FILE created by modeller version 240020123 SCH_2400201_20000_1300
6186 0 12 27 CCCCCCCCCCCCCCCCCCCCCCCA16 index_map_offset0 0 1 dA9 index_map82 0
 A17 node_id_index_map82 0 A20 schema_embedding_map82 0 Z1 425 0 2 0 0 0 0 1e3 1
e-8 0 3 0 1 0 1 1 4 5 6 7 8 9 10 0 0 0 0 70 11 CI9 list_type0 0 1 uI10 notransmi
t0 0 1 lCCCDCCDI12 finger_index0 0 1 dI12 finger_block1012 0 CZ2 0 4 T1 0 0 2 20
 1 11 11 13 255 4 54 0 1 0 12 0 0 13 0 52 255 5 334 0 14 15 0 0 -0 -.022 0 0 0 -
1 .0045 .707106781186547 .707106781186549 -1 0 0 31 255 6 290 0 9 16 0 0 -0 -.02
2 .0025 0 0 1 1 0 0 .002 29 255 7 42 0 17 18 0 -.0114564392373896 .025 0 19 255
 8 16 0 1 13 0 19 V16 255 9 287 0 ?20 0 21 6 0 0 1 18 255 10 13 0 22 0 23 24 ?1
 17 255 22 0 25 26 26 10 27 28 0 29 +18 23 10 0 27 10 17 30 ?1 29 24 15 0 10 30
 18 -.0114564392373896 .025 .005 29 30 12 0 23 0 24 .0114564392373896 .025 .005
 29 18 43 0 31 24 7 .0114564392373896 .025 0 18 31 38 0 32 17 0 18 ?1 17 32 0 33
 34 34 31 35 36 0 37 -18 17 37 0 35 23 31 7 ?1 17 35 0 38 29 37 17 32 36 0 39 +1
5 255 38 46 0 35 40 0 17 29 0 38 27 35 10 39 41 0 42 -17 37 0 38 35 27 31 43 44
 0 45 +16 36 29 0 ?35 46 47 48 0 0 1 17 39 0 49 45 42 17 29 41 0 34 +15 49 48 0
 45 50 0 17 45 0 49 43 39 31 34 47 0 0 +17 42 0 49 39 43 10 26 46 0 0 -16 41 44
 0 ?39 44 28 51 0 0 1 17 34 0 33 32 32 17 45 47 0 0 -15 33 28 0 34 52 53 16 47 3
3 0 ?45 36 54 55 0 0 1 16 54 79 0 ?56 47 57 58 0 0 1 31 55 41 0 47 59 48 0 +0 0
 0 0 0 1 1 0 0 .0275 30 255 59 8 0 28 60 55 0 +-.0114564392373896 .025 .005 -1 0
 0 30 48 40 0 36 55 51 0 +-.0114564392373896 .025 0 -1 0 0 30 51 50 0 41 48 61 0
 +-.0114564392373896 .025 .005 0 0 -1 30 61 51 0 44 51 62 0 +.0114564392373896 .
025 .005 0 0 -1 16 44 45 0 ?37 63 41 61 0 0 1 31 62 260 0 63 61 64 0 +0 -.022 0
 0 0 1 1 0 0 .0045 16 63 257 0 ?65 66 44 62 0 0 1 31 64 266 0 66 62 67 0 +.01905
25588832589 .01099999999999928 0 0 0 1 1 0 0 .0045 16 66 263 0 ?68 69 63 64 0 0
 1 31 67 272 0 69 64 70 0 +-.0190525588832564 .01100000000000072 0 0 0 1 1 0 0 .
0045 16 69 269 0 ?71 72 66 67 0 0 1 31 70 278 0 72 67 16 0 --.0190525588832564 .
01100000000000072 .0025 0 0 1 1 0 0 .002 16 72 275 0 ?73 21 69 70 0 0 1 31 16 28
4 0 21 70 6 0 -.0190525588832589 .01099999999999928 .0025 0 0 1 1 0 0 .002 16 21
 281 0 ?74 9 72 16 0 0 1 17 74 0 75 74 74 0 76 21 0 0 +15 75 282 0 74 77 78 17 7
6 0 79 76 76 0 74 21 0 0 -15 79 315 0 76 80 81 14 255 80 314 82 ?14 83 79 4 15 +
0 0 14 83 19 15 81 316 0 84 80 0 17 84 0 81 84 84 0 68 66 0 0 -17 68 0 85 68 68
 0 84 66 0 0 +15 85 264 0 68 52 86 14 52 67 87 ?50 12 88 4 89 -0 0 50 12 19 15 8
6 258 0 65 52 33 17 65 0 86 65 65 0 90 63 0 0 +17 90 0 91 90 90 0 65 63 0 0 -15
 91 329 0 90 14 0 14 14 327 92 ?0 80 93 4 5 +0 0 0 80 19 81 255 1 92 417 94 14 9
5 0 87 96 97 15 93 328 0 98 14 91 13 19 17 0 0 0 0 0 0 8 12 14 12 73 96 ?52 0 99
 4 100 +0 0 52 0 19 81 1 96 418 94 12 101 0 92 102 103 15 99 210 0 104 12 105 50
 255 100 2 0 12 106 89 0 +0 0 .005 0 0 1 1 0 0 51 255 106 95 0 107 108 100 0 -0
 0 .005 0 0 -1 .015 -1 0 0 50 89 39 0 52 100 109 0 +0 0 0 0 0 1 1 0 0 50 109 52
 0 40 89 110 0 +-.0114564392373896 .025 .005 0 -1 0 0 0 -1 14 40 47 102 ?107 50
 38 4 109 -0 0 107 50 19 51 110 53 0 50 109 111 0 -0 0 .005 0 0 -1 .0275 -1 0 0
 14 50 49 112 ?40 52 49 4 110 -0 0 40 52 19 52 111 308 0 83 110 15 0 --.01905255
88832564 .01100000000000072 0 0 0 -1 .0045 .707106781186546 .707106781186549 -1
 0 0 14 83 301 113 ?80 77 114 4 111 +0 0 80 77 19 52 15 321 0 80 111 5 0 -.01905
25588832589 .01099999999999928 0 0 0 -1 .0045 .707106781186546 .707106781186549
 -1 0 0 81 1 113 421 94 83 115 0 112 116 117 14 77 221 116 ?83 118 75 4 119 -0 0
 83 118 19 15 114 302 0 120 83 121 17 120 0 114 120 120 0 73 72 0 0 -15 121 303
 0 122 83 0 17 122 0 121 122 122 0 71 69 0 0 -17 71 0 88 71 71 0 122 69 0 0 +15
 88 270 0 71 52 85 17 73 0 123 73 73 0 120 72 0 0 +15 123 276 0 73 118 124 14 11
8 183 125 ?77 126 123 4 127 -0 0 77 126 19 15 124 187 0 128 118 0 17 128 0 124 1
28 128 0 129 130 0 0 +17 129 0 105 129 129 0 128 130 0 0 -16 130 180 0 ?128 131
 132 133 0 0 1 16 131 142 0 ?134 57 130 135 0 0 1 16 132 218 0 ?136 130 0 137 0
 0 1 31 133 199 0 130 137 135 0 +-.0190525588832564 .01100000000000072 .005 0 0
 1 1 0 0 .002 31 137 237 0 132 0 133 0 +.0190525588832589 .01099999999999928 .00
5 0 0 1 1 0 0 .002 31 135 161 0 131 133 58 0 +0 -.022 .005 0 0 1 1 0 0 .002 31 5
8 99 0 54 135 138 0 +0 0 .005 0 0 1 1 0 0 .015 31 138 98 0 57 58 60 0 +0 0 0 0 0
 1 1 0 0 .015 16 57 76 0 ?139 54 131 138 0 0 1 31 60 5 0 46 138 59 0 +0 0 .005 0
 0 1 1 0 0 .0275 16 46 4 0 ?26 28 36 60 0 0 1 17 26 0 25 22 22 23 42 46 0 43 +16
 28 7 0 ?22 41 46 59 0 0 1 15 25 3 0 26 12 140 17 43 0 49 42 45 23 37 44 0 0 -15
 140 70 0 141 12 0 17 141 0 140 141 141 0 56 54 0 0 -17 56 0 142 56 56 0 141 54
 0 0 +15 142 85 0 56 107 143 14 107 82 144 ?126 40 142 4 106 +0 0 126 40 19 15 1
43 86 0 145 107 0 17 145 0 143 145 145 0 139 57 0 0 -17 139 0 53 139 139 0 145 5
7 0 0 +15 53 65 0 139 52 0 81 1 144 424 94 107 146 0 125 147 148 14 126 145 147
 ?118 107 149 4 108 -0 0 118 107 19 81 1 147 425 94 126 150 0 144 0 151 15 149 2
88 0 20 126 152 51 108 158 0 126 127 106 0 +0 -.022 0 0 0 1 .002 1 0 0 51 127 19
6 0 118 119 108 0 +-.0190525588832564 .01100000000000072 0 0 0 1 .002 1 0 0 51 1
19 234 0 77 0 127 0 +.0190525588832589 .01099999999999928 0 0 0 1 .002 1 0 0 17
 20 0 149 20 20 0 98 9 0 0 +15 152 149 0 134 126 0 17 134 0 152 134 134 0 153 13
1 0 0 +17 153 0 154 153 153 0 134 131 0 0 -15 154 134 0 153 12 25 17 98 0 93 98
 98 0 20 9 0 0 -80 255 1 94 155 156 9000 1 1 1 1 1 1 1 1 0 FFFFTFTFFFFFFF1 81 1
 150 385 157 126 0 147 146 158 159 82 255 1 151 2017001633 80 1 157 0 160 8001 0
 0 0 0 3 5 0 0 0 FFFFTFTFFFFFFF2 81 1 146 384 157 107 0 144 161 150 162 81 1 158
 386 157 118 0 125 150 163 164 83 255 3 159 .792156862745098 .819607843137255 .9
33333333333333 81 1 125 423 94 118 158 0 116 144 165 81 1 163 387 157 77 0 116 1
58 115 166 83 3 164 .792156862745098 .819607843137255 .933333333333333 81 1 116
 422 94 77 163 0 113 125 167 81 1 115 388 157 83 0 113 163 168 169 83 3 166 .792
156862745098 .819607843137255 .933333333333333 81 1 168 389 157 80 0 82 115 95 1
70 83 3 169 .792156862745098 .819607843137255 .933333333333333 81 1 82 415 94 80
 168 0 0 87 171 81 1 95 390 157 14 0 92 168 0 172 83 3 170 .792156862745098 .819
607843137255 .933333333333333 83 3 172 .792156862745098 .819607843137255 .933333
333333333 81 1 87 416 94 52 173 0 82 92 174 82 1 171 2037907617 81 1 173 381 157
 52 0 87 101 175 176 82 1 174 2000814241 81 1 101 380 157 12 0 96 0 173 177 81 1
 175 382 157 50 0 112 173 161 178 83 3 176 .792156862745098 .819607843137255 .93
3333333333333 81 1 112 420 94 50 175 0 102 113 179 81 1 161 383 157 40 0 102 175
 146 180 83 3 178 .792156862745098 .819607843137255 .933333333333333 81 1 102 41
9 94 40 161 0 96 112 181 83 3 180 .792156862745098 .819607843137255 .93333333333
3333 82 1 181 1998651549 82 1 179 1998913693 83 3 177 .792156862745098 .81960784
3137255 .933333333333333 82 1 167 2024931489 82 1 165 2020999329 83 3 162 .79215
6862745098 .819607843137255 .933333333333333 79 255 15 160 SDL/TYSA_COLOUR79 14
 156 SWEntUnchanged82 1 148 1992097949 17 136 0 78 136 136 0 104 132 0 0 +15 78
 225 0 136 77 0 17 104 0 99 104 104 0 136 132 0 0 -15 105 172 0 129 12 154 82 1
 117 2036662433 82 1 103 2001338528 82 1 97 2039152801 17 27 0 38 37 29 23 22 28
 0 26 -19 13 55 0 1 0 8 4 S74 4 CI16 index_map_offset0 0 1 dCCZ20 11 2 0 0 147 9
5 0 0 0 0 0 0 0 0 0 0 0 0 0 0 0 0 0 0 1 0 
