**ABCDEFGHIJKLMNOPQRSTUVWXYZabcdefghijklmnopqrstuvwxyz**************************
**PARASOLID !"#$%&'()*+,-./:;<=>?@[\]^_`{|}~0123456789**************************
**PART1;
MC=AMD64;
MC_MODEL=Intel64 Family 6 Model 15 Stepping 11, GenuineIntel;
MC_ID=unknown;
OS=Windows_NT;
OS_RELEASE=unknown;
FRU=Parasolid Version 24.0, build 201, 10-11-2011;
APPL=SolidWorks 2012-2011312;
SITE=;
USER=unknown;
FORMAT=text;
GUISE=transmit;
KEY=Olympus-LensRing;
FILE=Olympus-LensRing.x_t;
DATE=Sat May 21 21:50:19 2016;
**PART2;
SCH=SCH_2400201_20000;
USFLD_SIZE=0;
**PART3;
**END_OF_HEADER*****************************************************************
T51 : TRANSMIT FILE created by modeller version 240020123 SCH_2400201_20000_1300
6186 0 12 27 CCCCCCCCCCCCCCCCCCCCCCCA16 index_map_offset0 0 1 dA9 index_map82 0
 A17 node_id_index_map82 0 A20 schema_embedding_map82 0 Z1 389 0 2 0 0 0 0 1e3 1
e-8 0 3 0 1 0 1 1 4 5 6 0 7 8 0 0 0 0 0 70 11 CI9 list_type0 0 1 uI10 notransmit
0 0 1 lCCCDCCDI12 finger_index0 0 1 dI12 finger_block1012 0 CZ2 0 4 T1 0 0 2 20
 1 9 9 13 255 4 29 0 1 0 10 0 0 11 0 52 255 5 303 0 12 13 0 0 -0 .0185 .002 0 0
 1 .002 .707106781186549 .707106781186546 1 0 0 31 255 6 259 0 8 14 0 0 +0 .0185
 .002 0 0 1 1 0 0 .002 19 255 7 7 0 1 11 0 15 V16 255 8 256 0 ?16 0 17 6 0 0 1 1
7 255 16 0 18 16 16 0 19 8 0 0 +16 17 250 0 ?20 8 21 14 0 0 1 17 20 0 22 20 20 0
 23 17 0 0 +16 21 244 0 ?24 17 25 26 0 0 1 31 14 253 0 17 26 6 0 +.0160214699700
133 -.00924999999999932 .002 0 0 1 1 0 0 .00200000000000102 31 26 247 0 21 27 14
 0 --.01602146997001095 -.00925000000000069 .005 0 0 1 1 0 0 .00500000000000151
 31 27 241 0 25 28 26 0 -.0160214699700133 -.00924999999999932 .005 0 0 1 1 0 0
 .00500000000000103 16 25 238 0 ?29 21 30 27 0 0 1 31 28 235 0 30 31 27 0 -0 .01
85 .005 0 0 1 1 0 0 .005 16 30 232 0 ?32 25 33 28 0 0 1 31 31 229 0 33 34 28 0 +
-.01602146997001095 -.00925000000000069 .002 0 0 1 1 0 0 .0020000000000015 16 33
 226 0 ?35 30 36 31 0 0 1 31 34 23 0 37 38 31 0 +0 0 0 0 0 1 1 0 0 .025 16 37 18
 0 ?39 36 40 34 0 0 1 31 38 5 0 36 41 34 0 +0 0 .005 0 0 1 1 0 0 .025 16 36 4 0
 ?42 33 37 38 0 0 1 31 41 71 0 43 44 38 0 +0 0 0 0 0 1 1 0 0 .01055 16 43 49 0 ?
45 40 46 41 0 0 1 31 44 72 0 40 47 41 0 +0 0 .005 0 0 1 1 0 0 .01055 16 40 52 0
 ?48 37 43 44 0 0 1 31 47 131 0 46 49 44 0 +0 .0185 0 0 0 1 1 0 0 .002 16 46 108
 0 ?50 43 51 47 0 0 1 31 49 169 0 51 52 47 0 +.0160214699700133 -.00924999999999
932 0 0 0 1 1 0 0 .00200000000000102 16 51 146 0 ?53 46 54 49 0 0 1 31 52 207 0
 54 0 49 0 +-.01602146997001095 -.00925000000000069 0 0 0 1 1 0 0 .0020000000000
015 16 54 184 0 ?55 51 0 52 0 0 1 17 55 0 56 55 55 0 57 54 0 0 +15 255 56 172 0
 55 58 59 17 57 0 60 57 57 0 55 54 0 0 -15 60 193 0 57 61 0 14 255 61 190 62 ?63
 64 65 4 66 -0 0 63 64 15 81 255 1 62 380 67 61 68 0 0 69 70 14 63 270 69 ?71 61
 72 4 73 +0 0 71 61 15 14 64 152 74 ?61 75 22 4 76 -0 0 61 75 15 15 65 227 0 35
 61 60 51 255 66 203 0 61 0 76 0 +-.01602146997001095 -.00925000000000069 0 0 0
 1 .0020000000000015 1 0 0 13 15 8 0 0 0 0 0 0 7 10 14 10 46 77 ?58 0 78 4 79 +0
 0 58 0 15 81 1 77 383 67 10 80 0 74 81 82 14 58 40 81 ?83 10 56 4 84 -0 0 83 10
 15 15 78 245 0 24 10 85 50 255 79 2 0 10 86 84 0 +0 0 .005 0 0 1 1 0 0 51 86 68
 0 87 88 79 0 -0 0 .005 0 0 -1 .01055 -1 0 0 50 84 22 0 58 79 89 0 +0 0 0 0 0 1
 1 0 0 51 89 28 0 83 84 73 0 -0 0 .005 0 0 -1 .025 -1 0 0 14 83 25 90 ?87 58 91
 4 89 -0 0 87 58 15 52 73 277 0 63 89 13 0 --.01602146997001095 -.00925000000000
069 .002 0 0 1 .0020000000000015 .70710678118655 .707106781186546 1 0 0 52 13 29
0 0 71 73 5 0 -.0160214699700133 -.00924999999999932 .002 0 0 1 .002000000000001
02 .707106781186548 .707106781186547 1 0 0 14 71 283 92 ?12 63 93 4 13 +0 0 12 6
3 15 81 1 92 386 67 71 94 0 90 95 96 14 12 296 95 ?0 71 97 4 5 +0 0 0 71 15 15 9
3 284 0 98 71 99 17 98 0 93 98 98 0 29 25 0 0 -15 99 285 0 23 71 0 17 23 0 99 23
 23 0 20 17 0 0 -17 29 0 85 29 29 0 98 25 0 0 +15 85 239 0 29 10 100 15 100 233
 0 32 10 101 17 32 0 100 32 32 0 102 30 0 0 +15 101 3 0 42 10 103 17 42 0 101 42
 42 0 104 36 0 0 +15 103 43 0 105 10 0 17 105 0 103 105 105 0 48 40 0 0 -17 48 0
 106 48 48 0 105 40 0 0 +15 106 58 0 48 87 107 14 87 55 108 ?75 83 106 4 86 +0 0
 75 83 15 15 107 59 0 109 87 0 17 109 0 107 109 109 0 45 43 0 0 -17 45 0 110 45
 45 0 109 43 0 0 +15 110 38 0 45 58 0 81 1 108 388 67 87 111 0 95 112 113 14 75
 114 112 ?64 87 18 4 88 -0 0 64 87 15 81 1 112 389 67 75 114 0 108 0 115 15 18 2
57 0 16 75 116 51 88 127 0 75 76 86 0 +0 .0185 0 0 0 1 .002 1 0 0 51 76 165 0 64
 66 88 0 +.0160214699700133 -.00924999999999932 0 0 0 1 .00200000000000102 1 0 0
 15 116 117 0 117 75 0 17 117 0 116 117 117 0 50 46 0 0 -17 50 0 118 50 50 0 117
 46 0 0 +15 118 96 0 50 58 119 15 119 17 0 120 58 110 17 120 0 119 120 120 0 39
 37 0 0 -17 39 0 121 39 39 0 120 37 0 0 +15 121 26 0 39 83 0 80 255 1 67 122 123
 9000 1 1 1 1 1 1 1 1 0 FFFFTFTFFFFFFF1 81 1 114 352 124 75 0 112 111 125 126 82
 255 1 115 1414529134 80 1 124 0 127 8001 0 0 0 0 3 5 0 0 0 FFFFTFTFFFFFFF2 81 1
 111 351 124 87 0 108 128 114 129 81 1 125 353 124 64 0 74 114 68 130 83 255 3 1
26 .792156862745098 .819607843137255 .933333333333333 81 1 74 382 67 64 125 0 69
 77 131 81 1 68 354 124 61 0 62 125 132 133 83 3 130 .792156862745098 .819607843
137255 .933333333333333 81 1 132 355 124 63 0 69 68 94 134 83 3 133 .79215686274
5098 .819607843137255 .933333333333333 81 1 69 381 67 63 132 0 62 74 135 81 1 94
 356 124 71 0 92 132 136 137 83 3 134 .792156862745098 .819607843137255 .9333333
33333333 81 1 136 357 124 12 0 95 94 0 138 83 3 137 .792156862745098 .8196078431
37255 .933333333333333 81 1 95 387 67 12 136 0 92 108 139 83 3 138 .792156862745
098 .819607843137255 .933333333333333 82 1 139 2073362542 82 1 135 2070872174 82
 1 131 1418526830 81 1 128 350 124 83 0 90 140 111 141 83 3 129 .792156862745098
 .819607843137255 .933333333333333 81 1 90 385 67 83 128 0 81 92 142 81 1 140 34
9 124 58 0 81 80 128 143 83 3 141 .792156862745098 .819607843137255 .93333333333
3333 81 1 81 384 67 58 140 0 77 90 144 81 1 80 348 124 10 0 77 0 140 145 83 3 14
3 .792156862745098 .819607843137255 .933333333333333 83 3 145 .792156862745098 .
819607843137255 .933333333333333 82 1 144 1965228140 82 1 142 1963524199 79 255
 15 127 SDL/TYSA_COLOUR79 14 123 SWEntUnchanged82 1 113 1959395431 17 104 0 91 1
04 104 0 42 36 0 0 -15 91 24 0 104 83 121 17 102 0 97 102 102 0 32 30 0 0 -15 97
 297 0 102 12 146 15 146 298 0 19 12 0 17 19 0 146 19 19 0 16 8 0 0 -82 1 96 207
2117358 17 24 0 78 24 24 0 147 21 0 0 +17 147 0 72 147 147 0 24 21 0 0 -15 72 27
1 0 147 63 148 15 148 272 0 149 63 0 17 149 0 148 149 149 0 35 33 0 0 -17 35 0 6
5 35 35 0 149 33 0 0 +82 1 82 1965752430 15 22 251 0 20 64 150 15 150 155 0 151
 64 0 17 151 0 150 151 151 0 53 51 0 0 -17 53 0 59 53 53 0 151 51 0 0 +15 59 134
 0 53 58 118 82 1 70 1422458990 19 11 30 0 1 0 7 4 S74 4 CI16 index_map_offset0
 0 1 dCCZ20 9 2 0 0 112 136 0 0 0 0 0 0 0 0 0 0 0 0 0 0 0 0 0 0 1 0 
