**ABCDEFGHIJKLMNOPQRSTUVWXYZabcdefghijklmnopqrstuvwxyz**************************
**PARASOLID !"#$%&'()*+,-./:;<=>?@[\]^_`{|}~0123456789**************************
**PART1;
MC=AMD64;
MC_MODEL=Intel64 Family 6 Model 15 Stepping 11, GenuineIntel;
MC_ID=unknown;
OS=Windows_NT;
OS_RELEASE=unknown;
FRU=Parasolid Version 24.0, build 201, 10-11-2011;
APPL=SolidWorks 2012-2011312;
SITE=;
USER=unknown;
FORMAT=text;
GUISE=transmit;
KEY=Chamber_Objective-Holder-Ring;
FILE=Chamber_Objective-Holder-Ring.x_t;
DATE=Sat Apr 06 11:50:27 2013;
**PART2;
SCH=SCH_2400201_20000;
USFLD_SIZE=0;
**PART3;
**END_OF_HEADER*****************************************************************
T51 : TRANSMIT FILE created by modeller version 240020123 SCH_2400201_20000_1300
6186 0 12 27 CCCCCCCCCCCCCCCCCCCCCCCA16 index_map_offset0 0 1 dA9 index_map82 0
 A17 node_id_index_map82 0 A20 schema_embedding_map82 0 Z1 2144 2 3 0 0 0 0 1e3
 1e-8 0 4 0 1 0 1 1 5 6 7 8 9 10 11 0 0 0 0 81 255 2 2 619 12 1 0 0 0 0 13 0 70
 11 CI9 list_type0 0 1 uI10 notransmit0 0 1 lCCCDCCDI12 finger_index0 0 1 dI12 f
inger_block1012 0 CZ3 0 4 T1 0 0 3 20 1 14 14 13 255 5 54 0 1 0 15 0 0 16 0 52 2
55 6 351 0 17 18 0 0 --.01299038105676664 .00749999999999988 .003 0 0 1 .0015 .7
07106781186548 .707106781186547 1 0 0 31 255 7 307 0 10 19 0 0 +-.01299038105676
664 .00749999999999988 .003 0 0 1 1 0 0 .0015 29 255 8 42 0 20 21 0 -.0105356537
5285272 .017 0 19 255 9 16 0 1 16 0 22 V16 255 10 304 0 ?23 0 24 7 0 0 1 18 255
 11 13 0 25 0 26 27 ?1 17 255 25 0 28 29 29 11 30 31 0 32 +18 26 10 0 30 11 20 3
3 ?1 29 27 15 0 11 33 21 -.01053565375285272 .017 .005 29 33 12 0 26 0 27 .01053
565375285272 .017 .005 29 21 43 0 34 27 8 .01053565375285272 .017 0 18 34 38 0 3
5 20 0 21 ?1 17 35 0 36 37 37 34 38 39 0 40 -18 20 37 0 38 26 34 8 ?1 17 38 0 41
 32 40 20 35 39 0 42 +15 255 41 46 0 38 43 0 17 32 0 41 30 38 11 42 44 0 45 -17
 40 0 41 38 30 34 46 47 0 48 +16 39 29 0 ?38 49 50 51 0 0 1 17 42 0 52 48 45 20
 32 44 0 37 +15 52 48 0 48 53 0 17 48 0 52 46 42 34 37 50 0 0 +17 45 0 52 42 46
 11 29 49 0 0 -16 44 44 0 ?42 47 31 54 0 0 1 17 37 0 36 35 35 20 48 50 0 0 -15 3
6 28 0 37 55 56 16 50 33 0 ?48 39 57 58 0 0 1 16 57 79 0 ?59 50 60 61 0 0 1 31 5
8 41 0 50 62 51 0 +0 0 0 0 0 1 1 0 0 .02 30 255 62 8 0 31 63 58 0 +.010535653752
85272 .017 .005 -1 0 0 30 51 40 0 39 58 54 0 +.01053565375285272 .017 0 -1 0 0 3
0 54 50 0 44 51 64 0 +-.01053565375285272 .017 .005 0 0 -1 30 64 51 0 47 54 65 0
 +.01053565375285272 .017 .005 0 0 -1 16 47 45 0 ?40 66 44 64 0 0 1 31 65 274 0
 66 64 67 0 +0 -.015 .003 0 0 1 1 0 0 .0015 16 66 271 0 ?68 69 47 65 0 0 1 31 67
 280 0 69 65 70 0 --.01299038105676664 .00749999999999988 .005 0 0 1 1 0 0 .0035
 16 69 277 0 ?71 72 66 67 0 0 1 31 70 287 0 72 67 73 0 -.01299038105676654 .0075
 .005 0 0 1 1 0 0 .0035 16 72 284 0 ?74 75 69 70 0 0 1 31 73 294 0 75 70 19 0 -0
 -.015 .005 0 0 1 1 0 0 .0035 16 75 291 0 ?76 24 72 73 0 0 1 31 19 301 0 24 73 7
 0 +.01299038105676654 .0075 .003 0 0 1 1 0 0 .0015 16 24 298 0 ?77 10 75 19 0 0
 1 17 77 0 78 77 77 0 79 24 0 0 +15 78 299 0 77 80 81 17 79 0 82 79 79 0 77 24 0
 0 -15 82 333 0 79 83 0 14 255 83 331 84 ?17 85 86 5 18 +0 0 17 85 22 81 1 84 21
34 87 83 88 0 0 89 90 14 17 344 89 ?0 83 91 5 6 +0 0 0 83 22 14 85 318 92 ?83 93
 94 5 95 +0 0 83 93 22 15 86 332 0 96 83 82 52 18 338 0 83 95 6 0 -.012990381056
76654 .0075 .003 0 0 1 .0015 .707106781186548 .707106781186547 1 0 0 13 22 17 0
 0 0 0 0 0 9 15 14 15 73 97 ?55 0 98 5 99 +0 0 55 0 22 81 1 97 2137 87 15 100 0
 92 101 102 14 55 67 101 ?53 15 103 5 104 -0 0 53 15 22 15 98 292 0 76 15 105 50
 255 99 2 0 15 106 104 0 +0 0 .005 0 0 1 1 0 0 51 255 106 95 0 107 108 99 0 -0 0
 .005 0 0 -1 .009925 -1 0 0 50 104 39 0 55 99 109 0 +0 0 0 0 0 1 1 0 0 50 109 52
 0 43 104 110 0 +.01053565375285272 .017 .005 0 -1 0 0 0 -1 14 43 47 111 ?107 53
 41 5 109 -0 0 107 53 22 51 110 53 0 53 109 95 0 -0 0 .005 0 0 -1 .02 -1 0 0 14
 53 49 112 ?43 55 52 5 110 -0 0 43 55 22 52 95 325 0 85 110 18 0 -0 -.015 .003 0
 0 1 .0015 .707106781186548 .707106781186547 1 0 0 81 1 112 2140 87 53 113 0 111
 114 115 80 255 1 87 116 117 9000 1 1 1 1 1 1 1 1 0 FFFFTFTFFFFFFF1 81 1 113 210
1 118 53 0 112 119 120 121 81 1 111 2139 87 43 120 0 101 112 122 81 1 114 2141 8
7 107 123 0 112 124 125 82 255 1 115 404619387 14 107 82 114 ?126 43 127 5 106 +
0 0 126 43 22 81 1 123 2103 118 107 0 114 120 128 129 81 1 124 2142 87 126 128 0
 114 130 131 82 1 125 397803643 14 126 154 124 ?80 107 132 5 108 -0 0 80 107 22
 81 1 128 2104 118 126 0 124 123 133 134 81 1 130 2143 87 80 133 0 124 135 136 8
2 1 131 1383137417 14 80 202 130 ?93 126 78 5 137 -0 0 93 126 22 81 1 133 2105 1
18 80 0 130 128 138 139 81 1 135 2144 87 93 138 0 130 0 140 82 1 136 1392836745
 14 93 242 135 ?85 80 141 5 142 -0 0 85 80 22 81 1 138 2106 118 93 0 135 133 143
 144 82 1 140 1400307849 80 1 118 0 145 8001 0 0 0 0 3 5 0 0 0 FFFFTFTFFFFFFF2 8
1 1 143 2107 118 85 0 92 138 88 146 83 255 3 144 .67843137254902 .67843137254902
 .729411764705882 81 1 92 2136 87 85 143 0 89 97 147 81 1 88 2108 118 83 0 84 14
3 148 149 83 3 146 .67843137254902 .67843137254902 .729411764705882 81 1 148 210
9 118 17 0 89 88 0 150 83 3 149 .67843137254902 .67843137254902 .729411764705882
 81 1 89 2135 87 17 148 0 84 92 151 83 3 150 .67843137254902 .67843137254902 .72
9411764705882 82 1 151 1412366473 82 1 147 1409876105 79 255 15 145 SDL/TYSA_COL
OUR15 141 305 0 23 93 152 51 142 255 0 93 0 137 0 +-.01299038105676664 .00749999
999999988 0 0 0 1 .0015 1 0 0 51 137 215 0 80 142 108 0 +.01299038105676654 .007
5 0 0 0 1 .0015 1 0 0 51 108 167 0 126 137 106 0 +0 -.015 0 0 0 1 .0015 1 0 0 17
 23 0 141 23 23 0 153 10 0 0 +15 152 245 0 154 93 0 17 154 0 152 154 154 0 155 1
56 0 0 -17 155 0 103 155 155 0 154 156 0 0 +16 156 236 0 ?155 157 0 158 0 0 1 16
 157 196 0 ?159 160 156 161 0 0 1 31 158 259 0 156 0 161 0 +-.01299038105676664
 .00749999999999988 0 0 0 1 -.499999999999992 -.866025403784443 0 .0015 31 161 2
19 0 157 158 162 0 +.01299038105676654 .0075 0 0 0 1 -.5 .866025403784437 0 .001
5 31 162 171 0 160 161 61 0 +0 -.015 0 0 0 1 1 0 0 .0015 16 160 148 0 ?163 60 15
7 162 0 0 1 31 61 99 0 57 162 164 0 +0 0 .005 0 0 1 1 0 0 .009925 31 164 98 0 60
 61 63 0 +0 0 0 0 0 1 1 0 0 .009925 16 60 76 0 ?165 57 160 164 0 0 1 31 63 5 0 4
9 164 62 0 +0 0 .005 0 0 1 1 0 0 .02 16 49 4 0 ?29 31 39 63 0 0 1 17 29 0 28 25
 25 26 45 49 0 46 +16 31 7 0 ?25 44 49 62 0 0 1 15 28 3 0 29 15 166 17 46 0 52 4
5 48 26 40 47 0 0 -15 166 70 0 167 15 0 17 167 0 166 167 167 0 59 57 0 0 -17 59
 0 127 59 59 0 167 57 0 0 +15 127 85 0 59 107 168 15 168 86 0 169 107 0 17 169 0
 168 169 169 0 165 60 0 0 -17 165 0 56 165 165 0 169 60 0 0 +15 56 65 0 165 55 0
 17 163 0 170 163 163 0 171 160 0 0 +15 170 134 0 163 55 36 17 171 0 172 171 171
 0 163 160 0 0 -15 172 157 0 171 126 0 17 159 0 173 159 159 0 174 157 0 0 +15 17
3 182 0 159 55 170 17 174 0 81 174 174 0 159 157 0 0 -15 81 205 0 174 80 0 15 10
3 222 0 155 55 173 17 153 0 175 153 153 0 23 10 0 0 -15 175 346 0 153 17 0 83 3
 139 .67843137254902 .67843137254902 .729411764705882 83 3 134 .67843137254902 .
67843137254902 .729411764705882 15 132 272 0 68 126 172 17 68 0 132 68 68 0 176
 66 0 0 +17 176 0 177 176 176 0 68 66 0 0 -15 177 320 0 176 85 0 81 1 120 2102 1
18 43 0 111 113 123 178 83 3 129 1 1 1 83 3 178 .67843137254902 .67843137254902
 .729411764705882 81 1 101 2138 87 55 119 0 97 111 179 82 1 122 404357243 81 1 1
19 2100 118 55 0 101 100 113 180 82 1 179 273416328 81 1 100 2099 118 15 0 97 0
 119 181 83 3 180 .67843137254902 .67843137254902 .729411764705882 83 3 181 .678
43137254902 .67843137254902 .729411764705882 83 3 121 .67843137254902 .678431372
54902 .729411764705882 79 14 117 SWEntUnchanged17 76 0 98 76 76 0 182 75 0 0 +15
 105 285 0 74 15 183 17 74 0 105 74 74 0 96 72 0 0 +15 183 278 0 71 15 28 17 71
 0 183 71 71 0 184 69 0 0 +17 184 0 91 184 184 0 71 69 0 0 -15 91 345 0 184 17 1
75 17 96 0 86 96 96 0 74 72 0 0 -17 182 0 94 182 182 0 76 75 0 0 -15 94 319 0 18
2 85 177 82 1 102 273285257 82 1 90 1411121289 17 30 0 41 40 32 26 25 31 0 29 -1
9 16 55 0 1 0 9 5 S74 4 CI16 index_map_offset0 0 1 dCCZ20 14 3 0 0 135 2 148 0 0
 0 0 0 0 0 0 0 0 0 0 0 0 0 0 0 80 2 12 185 186 8004 0 0 0 0 3 5 0 0 0 FFTFFFFFFF
FFFF2 3 83 1 13 1e3 79 16 186 SDL/TYSA_DENSITY1 0 
