**ABCDEFGHIJKLMNOPQRSTUVWXYZabcdefghijklmnopqrstuvwxyz**************************
**PARASOLID !"#$%&'()*+,-./:;<=>?@[\]^_`{|}~0123456789**************************
**PART1;
MC=AMD64;
MC_MODEL=Intel64 Family 6 Model 15 Stepping 11, GenuineIntel;
MC_ID=unknown;
OS=Windows_NT;
OS_RELEASE=unknown;
FRU=Parasolid Version 24.0, build 201, 10-11-2011;
APPL=SolidWorks 2012-2011312;
SITE=;
USER=unknown;
FORMAT=text;
GUISE=transmit;
KEY=2I-1D_Chamber_Sample;
FILE=2I-1D_Chamber_Sample.x_t;
DATE=Sat Apr 06 14:28:26 2013;
**PART2;
SCH=SCH_2400201_20000;
USFLD_SIZE=0;
**PART3;
**END_OF_HEADER*****************************************************************
T51 : TRANSMIT FILE created by modeller version 240020123 SCH_2400201_20000_1300
6186 0 12 27 CCCCCCCCCCCCCCCCCCCCCCCA16 index_map_offset0 0 1 dA9 index_map82 0
 A17 node_id_index_map82 0 A20 schema_embedding_map82 0 Z1 1669 0 2 0 0 0 0 1e3
 1e-8 0 3 0 1 0 1 1 4 5 6 7 8 9 10 0 0 0 0 70 11 CI9 list_type0 0 1 uI10 notrans
mit0 0 1 lCCCDCCDI12 finger_index0 0 1 dI12 finger_block1012 0 CZ2 0 4 T1 0 0 2
 20 1 11 11 13 255 4 94 0 1 0 12 0 0 13 0 51 255 5 869 0 14 15 0 0 +.02995 .047
 -.02345 0 -1 0 .005 0 0 -1 31 255 6 1387 0 16 17 0 0 --499999999999891e-19 .029
95 -.00605 0 0 -1 -1 0 0 .01055 29 255 7 1061 0 10 18 0 .01007073100604486 .0269
711908581981 -.00172073100604485 19 255 8 28 0 1 13 0 19 V16 255 9 899 0 ?20 0 2
1 22 21 21 1 18 255 10 1059 0 23 0 24 7 ?1 17 255 23 0 25 26 27 10 28 29 0 30 +1
8 24 904 0 31 10 32 18 ?1 17 31 0 33 34 35 24 36 37 0 38 +18 32 893 0 39 24 40 4
1 ?1 29 18 906 0 24 41 7 .011 .0368854163537599 45e-5 29 41 895 0 32 42 18 -.011
 .0230145836462401 45e-5 29 42 811 0 40 43 41 .03495 .01 -.02345 18 40 809 0 44
 32 45 42 ?1 29 43 798 0 45 46 42 -.02995 .01 -.02845 18 45 796 0 47 40 48 43 ?1
 29 46 795 0 48 49 43 .02995 .01 -.02845 18 48 793 0 50 45 51 46 ?1 29 49 782 0
 51 52 46 .03495 0 -.02345 18 51 780 0 53 48 54 49 ?1 29 52 779 0 54 55 49 -.029
95 0 -.02845 18 54 777 0 56 51 57 52 ?1 29 55 776 0 57 58 52 .02995 0 -.02845 18
 57 774 0 59 54 60 55 ?1 29 58 768 0 60 61 55 -.03495 0 -.02345 18 60 766 0 62 5
7 63 58 ?1 29 61 765 0 63 64 58 -.03495 .01 -.02345 18 63 763 0 65 60 66 61 ?1 2
9 64 615 0 66 67 61 -.008 .047 -.00255 18 66 613 0 68 63 69 64 ?1 29 67 612 0 69
 70 64 .008 .047 -.00255 18 69 610 0 71 66 72 67 ?1 29 70 599 0 72 73 67 .011 .0
47 45e-5 18 72 597 0 74 69 75 70 ?1 29 73 596 0 75 76 70 .011 .047 .01645 18 75
 594 0 77 72 78 73 ?1 29 76 573 0 78 79 73 -.008 .017 -.00255 18 78 571 0 80 75
 81 76 ?1 29 79 570 0 81 82 76 .008 .017 -.00255 18 81 568 0 83 78 84 79 ?1 29 8
2 567 0 84 85 79 .011 .017 45e-5 18 84 565 0 86 81 87 82 ?1 29 85 564 0 87 88 82
 .011 .017 .01645 18 87 562 0 89 84 90 85 ?1 29 88 551 0 90 91 85 -.011 .017 .01
645 18 90 549 0 92 87 93 88 ?1 29 91 548 0 93 94 88 -.011 .017 45e-5 18 93 546 0
 95 90 96 91 ?1 29 94 545 0 96 97 91 -.011 .047 .01645 18 96 543 0 98 93 99 94 ?
1 29 97 542 0 99 100 94 -.011 .047 45e-5 18 99 540 0 101 96 102 97 ?1 29 100 529
 0 102 103 97 .008 .017 .01945 18 102 527 0 104 99 105 100 ?1 29 103 526 0 105 1
06 100 -.008 .017 .01945 18 105 524 0 107 102 108 103 ?1 29 106 523 0 108 109 10
3 .008 .047 .01945 18 108 521 0 110 105 111 106 ?1 29 109 520 0 111 112 106 -.00
8 .047 .01945 18 111 518 0 113 108 114 109 ?1 29 112 137 0 114 115 109 -.02 .047
 .02845 18 114 135 0 116 111 117 112 ?1 29 115 72 0 117 118 112 .03495 0 .02845
 18 117 63 0 119 114 120 115 ?1 29 118 73 0 120 121 115 -.03495 0 .02845 18 120
 64 0 122 117 123 118 ?1 29 121 346 0 124 125 118 .02 .047 .02845 18 124 260 0 1
26 127 128 121 ?1 29 125 347 0 128 129 121 .02 .047 -.01155 18 128 262 0 130 124
 131 125 ?1 29 129 348 0 131 132 125 -.02 .047 -.01155 18 131 264 0 133 128 134
 129 ?1 29 132 353 0 123 135 129 .03495 .01 .02845 18 123 255 0 136 120 137 132
 ?1 29 135 354 0 137 138 132 .02 .01 .02845 18 137 257 0 139 123 140 135 ?1 29 1
38 355 0 140 141 135 .02 .01 -.01155 18 140 259 0 142 137 143 138 ?1 29 141 356
 0 143 144 138 -.02 .01 -.01155 18 143 261 0 145 140 146 141 ?1 29 144 357 0 146
 147 141 -.02 .01 .02845 18 146 263 0 148 143 127 144 ?1 29 147 358 0 127 149 14
4 -.03495 .01 .02845 18 127 265 0 150 146 124 147 ?1 29 149 1018 0 134 151 147 .
011 .03676909084849295 .01645 18 134 981 0 152 131 153 149 ?1 29 151 1019 0 153
 154 149 .011 .02313090915150705 .01645 18 153 977 0 155 134 156 151 ?1 29 154 1
021 0 156 157 151 .011 .0230145836462401 45e-5 18 156 978 0 158 153 159 154 ?1 2
9 157 1022 0 159 160 154 -.011 .03676909084849295 .01645 18 159 979 0 161 156 16
2 157 ?1 29 160 1023 0 162 163 157 -.011 .02313090915150705 .01645 18 162 983 0
 164 159 165 160 ?1 29 163 1025 0 165 166 160 -.011 .0368854163537599 45e-5 18 1
65 980 0 167 162 168 163 ?1 29 166 1193 0 169 170 163 .01007073100604486 .032928
8091418019 -.00172073100604485 18 169 1147 0 26 171 172 166 ?1 29 170 1195 0 172
 173 166 .008 .03676909084849295 -.00255 18 172 1146 0 174 169 175 170 ?1 29 173
 1196 0 171 176 170 .008 .02313090915150705 -.00255 18 171 1149 0 27 177 169 173
 ?1 29 176 1197 0 175 178 173 -.008 .0368854163537599 -.00255 18 175 1145 0 179
 172 180 176 ?1 29 178 1198 0 177 181 176 -.008 .0230145836462401 -.00255 18 177
 1150 0 182 168 171 178 ?1 29 181 1199 0 168 183 178 -.01012132034355962 .026808
1841974104 -.00167132034355964 18 168 1151 0 184 165 177 181 ?1 29 183 1200 0 18
0 0 181 -.01012132034355964 .0330918158025896 -.001671320343559645 18 180 1144 0
 185 175 0 183 ?1 17 185 0 25 184 179 180 186 187 0 188 +15 255 25 1174 0 184 12
 189 17 184 0 25 182 185 168 188 190 0 191 +17 179 0 25 185 174 175 192 193 0 18
6 +17 186 0 194 195 20 175 185 187 0 196 -16 187 1134 0 ?185 197 190 198 197 197
 1 17 188 0 199 167 200 180 184 190 0 20 -15 199 994 0 200 201 202 17 167 0 199
 161 188 165 20 9 0 203 -17 200 0 199 188 204 168 39 21 0 0 -16 190 1133 0 ?184
 187 205 206 0 0 1 17 20 0 194 186 207 180 167 9 0 0 +15 194 725 0 20 208 0 17 2
07 0 194 20 209 165 101 210 0 0 -17 209 0 194 207 195 99 68 211 0 212 -17 101 0
 213 214 203 99 207 210 0 209 +16 210 897 0 ?101 215 216 217 215 215 1 16 215 55
2 0 ?218 219 210 217 210 210 1 16 216 535 0 ?220 210 221 222 0 0 1 30 255 217 55
4 0 215 222 223 0 +-.011 .047 45e-5 0 1 0 30 222 537 0 216 224 217 0 +-.008 .047
 .01945 0 1 0 30 223 559 0 225 217 226 0 --.011 .017 .01645 0 1 0 16 225 557 0 ?
227 228 219 223 219 219 1 31 226 576 0 228 223 229 0 +-.008 .017 45e-5 0 1 0 0 0
 1 .003 16 228 574 0 ?95 230 225 226 0 0 1 31 229 581 0 230 226 231 0 +.008 .017
 45e-5 0 1 0 0 0 1 .003 16 230 579 0 ?83 232 228 229 0 0 1 31 231 586 0 232 229
 233 0 +.008 .017 .01645 0 1 0 0 0 1 .003 16 232 584 0 ?89 234 230 231 0 0 1 31
 233 591 0 234 231 235 0 +-.008 .017 .01645 0 1 0 0 0 1 .003 16 234 589 0 ?107 2
36 232 233 0 0 1 30 235 602 0 237 233 238 0 -.011 .017 45e-5 0 1 0 16 237 600 0
 ?239 240 236 235 236 236 1 30 238 607 0 241 235 242 0 +.011 .047 .01645 0 1 0 1
6 241 605 0 ?243 244 240 238 240 240 1 30 242 618 0 245 238 246 0 --.008 .017 -.
00255 0 1 0 16 245 616 0 ?196 247 244 242 244 244 1 30 246 623 0 248 242 249 0 +
.008 .047 -.00255 0 1 0 16 248 621 0 ?250 251 247 246 247 247 1 31 249 642 0 251
 246 252 0 --.008 .047 .01645 0 1 0 0 0 1 .003 16 251 626 0 ?98 253 248 249 0 0
 1 31 252 643 0 253 249 254 0 -.008 .047 .01645 0 1 0 0 0 1 .003 16 253 630 0 ?1
10 255 251 252 0 0 1 31 254 644 0 255 252 256 0 -.008 .047 45e-5 0 1 0 0 0 1 .00
3 16 255 634 0 ?74 211 253 254 0 0 1 31 256 645 0 211 254 257 0 --.008 .047 45e-
5 0 1 0 0 0 1 .003 16 211 638 0 ?68 258 255 256 0 0 1 30 257 771 0 258 256 259 0
 +-.03495 .047 -.02345 0 -1 0 16 258 769 0 ?260 261 211 257 0 0 1 31 259 785 0 2
61 257 262 0 -.02995 0 -.02345 0 1 0 0 0 1 .005 16 261 783 0 ?53 263 258 259 0 0
 1 31 262 790 0 263 259 264 0 --.02995 0 -.02345 0 1 0 0 0 1 .005 16 263 788 0 ?
56 265 261 262 0 0 1 30 264 801 0 265 262 266 0 +.02995 .047 -.02845 0 -1 0 16 2
65 799 0 ?267 268 263 264 0 0 1 30 266 806 0 268 264 269 0 --.02995 .047 -.02845
 0 -1 0 16 268 804 0 ?47 270 265 266 0 0 1 31 269 814 0 270 266 271 0 -.02995 .0
1 -.02345 0 -1 0 0 0 -1 .005 16 270 812 0 ?50 272 268 269 0 0 1 31 271 819 0 272
 269 273 0 --.02995 .01 -.02345 0 -1 0 0 0 -1 .005 16 272 817 0 ?65 274 270 271
 0 0 1 30 273 824 0 274 271 22 0 -.03495 .047 -.02345 0 -1 0 16 274 822 0 ?44 21
 272 273 0 0 1 38 255 22 901 0 9 273 275 0 +276 277 278 279 280 31 275 1221 0 28
1 22 282 0 -.0175 .02995 .0084 1 0 0 0 0 -1 .01055 51 276 736 0 208 283 15 284 +
-.008 .017 45e-5 0 -1 0 .003 0 0 -1 51 277 1008 0 285 286 287 288 +-.02 .02995 .
0084 1 0 0 .01055 0 0 -1 40 255 7 278 0 1 7 .000722493603010556 .361150629400301
5 ??-.011 .0368854163537599 45e-5 -.01070420772674234 .0350253816494911 -.000848
945945998875 -.00972916258595507 .0317137133118189 -.002001529471847555 -.009507
40223767285 .02958802591039895 -.002143788444314385 -.00991134094709251 .0275030
628859581 -.00186230962112937 -.01087085497994724 .02416233984869645 -.000420742
0307484755 -.011 .0230145836462401 45e-5 41 255 1 279 L-.011 .0368854163537599 4
5e-5 41 1 280 L-.011 .0230145836462401 45e-5 14 255 285 985 289 ?290 291 292 4 2
77 -201 291 290 291 19 51 286 1177 0 290 293 277 294 +-499999999999891e-19 .0299
5 .028451 0 0 -1 .01055 -1 0 0 50 255 287 473 0 295 277 296 0 +0 .017 0 0 1 0 0
 0 1 141 255 288 22 297 298 277 141 297 299 300 288 277 141 298 301 288 300 277
 38 301 1014 0 302 303 304 0 +305 277 306 307 308 141 300 304 298 297 277 38 304
 1013 0 309 301 310 0 +283 277 311 312 313 16 309 966 0 ?314 315 37 304 37 37 1
 31 310 1012 0 315 304 299 0 +.011 .02995 .0084 1 0 -15770213417971e-29 -1577021
3417971e-29 0 -1 .01055 51 283 715 0 316 317 276 318 +.008 .017 45e-5 0 -1 0 .00
3 0 0 -1 40 7 311 0 1 7 .00072249360301056 .3611506294003015 ??.011 .02301458364
62401 45e-5 .01070420772674236 .0248746183505089 -.000848945945998875 .009729162
58595509 .0281862866881811 -.002001529471847555 .00950740223767287 .030311974089
60105 -.002143788444314385 .00991134094709253 .0323969371140419 -.00186230962112
937 .01087085497994726 .03573766015130355 -.000420742030748477 .011 .03688541635
37599 45e-5 41 1 312 L.011 .0230145836462401 45e-5 41 1 313 L.011 .0368854163537
599 45e-5 14 316 703 319 ?208 320 321 4 283 -322 322 208 320 19 51 317 694 0 320
 305 283 323 +.008 .017 .01645 0 -1 0 .003 0 0 -1 141 318 304 318 318 283 14 320
 682 324 ?316 325 326 4 317 -0 0 316 325 19 51 305 673 0 325 327 317 328 +-.008
 .017 .01645 0 -1 0 .003 0 0 -1 141 323 299 323 323 317 38 299 1011 0 329 310 33
0 0 +317 277 331 332 333 16 329 964 0 ?334 335 336 299 0 0 1 30 330 485 0 337 29
9 338 0 +-.011 .017 -.00255 15770213417971e-29 0 1 40 7 331 0 1 7 .0006481851536
43229 .365421590471228 ??.011 .03676909084849295 .01645 .01070442139473776 .0348
3958367652255 .01774850102798755 .00980773604041127 .0314405155781967 .018844178
4411773 .00970301214919127 .0291518773451581 .01891976711851685 .010349656632333
36 .0263457593660475 .01831523824487165 .01097262387799504 .02363919249720565 .0
1685436033432895 .011 .02313090915150705 .01645 41 1 332 L.011 .0367690908484929
5 .01645 41 1 333 L.011 .02313090915150705 .01645 16 337 547 0 ?339 340 341 330
 0 0 1 30 338 484 0 340 330 342 0 +-.011 .017 .01945 1 0 0 16 340 525 0 ?343 344
 337 338 0 0 1 30 342 483 0 344 338 345 0 +.011 .017 -.00255 -15770213417971e-29
 0 -1 16 344 563 0 ?346 347 340 342 0 0 1 30 345 482 0 347 342 348 0 +-.011 .017
 -.00255 -1 0 0 16 347 569 0 ?349 350 344 345 0 0 1 30 348 481 0 335 345 351 0 +
-.011 .047 -.00255 15770213417971e-29 0 1 16 335 541 0 ?214 352 329 348 0 0 1 30
 351 480 0 352 348 353 0 +-.011 .047 .01945 1 0 0 16 352 519 0 ?354 355 335 351
 0 0 1 30 353 479 0 355 351 356 0 +.011 .047 -.00255 -15770213417971e-29 0 -1 16
 355 595 0 ?357 341 352 353 0 0 1 30 356 478 0 341 353 358 0 +-.011 .047 -.00255
 -1 0 0 16 341 611 0 ?359 337 355 356 0 0 1 30 358 344 0 360 356 361 0 +.03495 .
01 .02845 0 0 -1 16 360 199 0 ?362 363 364 358 0 0 1 30 361 343 0 363 358 365 0
 +-.03495 .01 -.02845 -1 0 1489033026589534e-31 16 363 794 0 ?366 367 360 361 0
 0 1 30 365 342 0 367 361 368 0 +-.03495 .01 .02845 0 0 1 16 367 764 0 ?150 369
 363 365 0 0 1 30 368 341 0 369 365 370 0 +-.02 .01 .02845 1 0 0 16 369 219 0 ?3
71 372 367 368 0 0 1 30 370 340 0 372 368 373 0 +-.02 .01 .02845 -86736173798840
4e-31 0 -1 16 372 215 0 ?374 375 369 370 0 0 1 30 373 339 0 375 370 376 0 +-.02
 .01 -.01155 1 0 -1301042606982606e-31 16 375 211 0 ?377 378 372 373 0 0 1 30 37
6 338 0 378 373 379 0 +.02 .01 .02845 867361737988404e-31 0 1 16 378 207 0 ?380
 381 375 376 0 0 1 30 379 337 0 381 376 382 0 +.02 .01 .02845 1 0 -2320700302310
11e-30 16 381 203 0 ?136 383 378 379 0 0 1 30 382 332 0 350 379 384 0 +-.02 .047
 .02845 -867361737988404e-31 0 -1 16 350 243 0 ?385 386 347 382 0 0 1 30 384 331
 0 386 382 387 0 +-.02 .047 -.01155 1 0 -1301042606982606e-31 16 386 246 0 ?388
 364 350 384 0 0 1 30 387 330 0 364 384 389 0 +.02 .047 .02845 867361737988404e-
31 0 1 16 364 249 0 ?126 360 386 387 0 0 1 30 389 327 0 390 387 391 0 +.02 .01 .
02845 0 1 0 16 390 210 0 ?392 393 394 389 0 0 1 30 391 326 0 394 389 395 0 +.02
 .01 -.01155 0 1 0 16 394 214 0 ?130 390 396 391 0 0 1 30 395 325 0 396 391 397
 0 +-.02 .01 -.01155 0 1 0 16 396 218 0 ?133 394 383 395 0 0 1 30 397 324 0 383
 395 398 0 +-.02 .01 .02845 0 1 0 16 383 222 0 ?116 396 381 397 0 0 1 30 398 8 0
 399 397 400 0 +.03495 .047 .02845 1 0 -992688684393023e-31 16 399 136 0 ?401 40
2 403 398 0 0 1 30 400 69 0 393 398 404 0 +-.03495 0 .02845 0 0 1 16 393 767 0 ?
122 405 390 400 0 0 1 30 404 68 0 405 400 406 0 +.03495 0 .02845 1 0 -9926886843
93023e-31 16 405 53 0 ?407 408 393 404 0 0 1 30 406 67 0 408 404 409 0 +.03495 0
 .02845 0 0 -1 16 408 49 0 ?410 403 405 406 0 0 1 30 409 66 0 403 406 411 0 +.03
495 0 -.02845 -1 0 1489033026589534e-31 16 403 775 0 ?412 399 408 409 0 0 1 30 4
11 88 0 402 409 413 0 +.03495 .047 .02845 0 -1 0 16 402 166 0 ?119 414 399 411 0
 0 1 30 413 89 0 414 411 224 0 +-.03495 .047 .02845 0 -1 0 16 414 174 0 ?415 221
 402 413 0 0 1 30 224 532 0 221 413 222 0 -.008 .017 .01945 0 1 0 16 221 530 0 ?
104 216 414 224 0 0 1 17 104 0 416 417 354 102 418 221 0 343 +15 416 459 0 417 4
19 0 17 417 0 416 220 104 105 343 340 0 420 -17 354 0 416 104 220 108 421 352 0
 418 +17 418 0 326 422 423 108 104 221 0 0 -17 343 0 424 89 107 102 417 340 0 42
3 +15 424 462 0 339 295 0 17 89 0 424 346 343 87 423 232 0 425 +17 107 0 424 343
 339 105 426 234 0 417 +17 423 0 326 418 427 102 89 232 0 0 -15 326 683 0 428 32
0 0 17 427 0 326 423 334 87 243 241 0 0 -17 334 0 326 427 428 153 152 329 0 243
 +17 243 0 429 430 425 153 427 241 0 0 +15 429 455 0 243 431 0 17 430 0 429 86 2
43 156 155 315 0 432 +17 425 0 429 243 86 87 346 344 0 427 -17 86 0 429 425 430
 84 432 236 0 346 +17 346 0 424 83 89 84 425 344 0 433 +17 83 0 424 349 346 81 4
33 230 0 434 +17 433 0 321 432 435 84 83 230 0 0 -15 321 704 0 314 316 0 17 432
 0 321 314 433 156 86 236 0 0 -17 435 0 321 433 28 81 250 248 0 0 -17 28 0 321 4
35 314 171 23 29 0 250 -17 250 0 436 437 434 171 435 248 0 0 +15 436 451 0 250 4
38 0 17 437 0 436 80 250 177 27 439 0 440 -17 434 0 436 250 80 81 349 347 0 435
 -17 80 0 436 434 437 78 440 244 0 349 +17 349 0 424 95 83 78 434 347 0 441 +17
 95 0 424 339 349 93 441 228 0 442 +17 441 0 443 440 444 78 95 228 0 0 -15 443 1
088 0 440 445 0 17 440 0 443 191 441 177 80 244 0 0 -17 444 0 443 441 39 93 218
 215 0 0 -17 39 0 443 444 191 32 200 21 0 204 +17 218 0 446 447 442 32 444 215 0
 0 +15 446 447 0 218 448 0 17 447 0 446 92 218 162 204 449 0 450 +17 442 0 446 2
18 92 93 339 337 0 444 -17 92 0 446 442 447 90 450 219 0 339 +17 339 0 424 107 9
5 90 442 337 0 426 +17 426 0 451 450 420 90 107 234 0 0 -15 451 662 0 450 325 0
 17 450 0 451 452 426 162 92 219 0 0 -17 420 0 451 426 113 105 220 216 0 0 -17 1
13 0 451 420 453 111 98 251 0 220 -17 220 0 416 354 417 111 420 216 0 421 +17 42
1 0 454 98 110 111 354 352 0 0 -15 454 403 0 212 455 456 17 98 0 454 212 421 96
 113 251 0 214 +17 110 0 454 421 457 108 422 253 0 354 +17 457 0 454 110 74 75 3
57 355 0 0 -17 422 0 326 428 418 75 110 253 0 457 -17 428 0 326 334 422 134 77 2
40 0 0 -17 77 0 458 357 459 75 428 240 0 422 +16 240 918 0 ?77 241 237 238 241 2
41 1 15 458 935 0 239 460 0 17 357 0 458 239 77 72 457 355 0 34 +17 459 0 458 77
 239 134 38 336 0 428 +17 239 0 458 459 357 24 34 237 0 0 +17 38 0 461 36 152 24
 459 336 0 239 -16 336 963 0 ?459 329 315 310 315 315 1 16 315 965 0 ?430 336 30
9 310 336 336 1 15 461 989 0 36 462 463 17 36 0 461 30 38 169 31 37 0 0 -17 152
 0 461 38 155 134 334 329 0 459 -17 155 0 461 152 158 153 430 315 0 334 -17 158
 0 461 155 30 156 314 309 0 430 -17 30 0 461 158 36 10 26 464 0 314 -17 314 0 32
1 28 432 10 158 309 0 0 +17 26 0 25 174 23 169 30 464 0 35 +16 464 1129 0 ?26 29
 465 466 0 0 1 16 29 1130 0 ?23 205 464 467 205 205 1 16 465 1238 0 ?468 464 281
 282 0 0 1 32 255 466 1188 0 464 467 469 0 --499999999999883e-19 .02995 .0084 -.
707106781186548 0 -.707106781186548 .707106781186548 0 -.707106781186548 .014919
95308303614 .01055 38 467 1189 0 205 470 466 0 +286 293 471 472 473 31 469 1187
 0 474 466 475 0 +-499999999999891e-19 .02995 -.01155 0 0 -1 -1 0 0 .01055 16 47
4 1141 0 ?476 477 193 469 0 0 1 31 475 1017 0 478 469 479 0 +-.02 .02995 .0084 1
 0 0 0 0 -1 .01055 16 478 967 0 ?480 449 477 475 0 0 1 31 479 1016 0 477 475 303
 0 +.02 .02995 .0084 1 0 0 0 0 -1 .01055 16 477 974 0 ?481 478 474 479 0 0 1 31
 303 1015 0 449 479 301 0 +-.011 .02995 .0084 -1 0 15770213417971e-29 1577021341
7971e-29 0 1 .01055 16 449 970 0 ?447 482 478 303 482 482 1 16 482 972 0 ?203 30
2 449 303 449 449 1 17 203 0 213 101 227 165 161 482 0 207 +16 302 971 0 ?452 37
 482 301 0 0 1 17 452 0 451 453 450 159 164 302 0 227 +16 37 1063 0 ?31 309 302
 304 309 309 1 17 453 0 451 113 452 96 227 225 0 0 -17 164 0 199 204 161 162 452
 302 0 447 -17 227 0 213 203 214 159 453 225 0 0 +15 213 943 0 227 483 0 17 214
 0 213 227 101 96 212 335 0 453 +17 212 0 454 68 98 99 214 335 0 0 -17 68 0 454
 484 212 66 209 211 0 359 +17 484 0 454 74 68 69 359 341 0 0 -17 359 0 485 196 7
1 66 484 341 0 195 +15 485 1114 0 196 486 0 17 196 0 485 192 359 175 195 245 0 0
 +17 71 0 485 359 192 69 487 247 0 488 +17 195 0 194 209 186 66 196 245 0 0 -17
 192 0 485 71 196 172 179 193 0 487 -17 487 0 33 35 488 172 71 247 0 0 -16 247 1
101 0 ?71 248 245 246 248 248 1 17 488 0 33 487 34 69 74 255 0 484 -15 33 1104 0
 487 322 0 17 34 0 33 488 31 72 239 237 0 0 -17 74 0 454 457 484 72 488 255 0 35
7 +14 322 1106 489 ?445 486 33 4 283 -316 316 445 486 19 81 255 1 489 1632 490 3
22 491 0 324 492 493 14 445 1090 492 ?483 322 443 4 276 -208 208 483 322 19 14 4
86 1116 494 ?322 462 485 4 296 -438 438 322 462 19 13 19 29 0 0 0 0 0 0 8 12 14
 12 1388 495 ?201 0 25 4 286 -290 290 201 0 19 81 1 495 1635 490 12 496 0 494 49
7 498 14 201 1308 497 ?462 12 199 4 277 -462 285 462 12 19 14 290 1170 499 ?500
 285 501 4 286 -12 12 500 285 19 81 1 499 1637 490 290 502 0 497 503 504 14 500
 1245 503 ?505 290 506 4 507 +0 0 505 290 19 15 501 1379 0 508 290 509 17 508 0
 501 508 508 0 510 511 0 0 +15 509 1173 0 476 290 0 17 476 0 509 476 476 0 512 4
74 0 0 +17 512 0 513 512 512 0 476 474 0 0 -15 513 1123 0 512 514 515 14 514 283
 516 ?517 518 513 4 519 -0 0 517 518 19 15 515 286 0 388 514 0 17 388 0 515 142
 133 128 520 386 0 521 +17 142 0 515 522 388 140 130 394 0 523 -17 133 0 515 388
 522 131 145 396 0 385 +17 520 0 456 524 521 131 388 386 0 0 -17 521 0 456 520 4
01 128 126 364 0 0 -15 456 150 0 521 455 0 17 401 0 456 521 524 124 525 399 0 0
 +17 126 0 526 139 130 124 521 364 0 392 +15 526 282 0 126 518 0 17 139 0 526 52
3 126 137 392 390 0 380 -17 130 0 526 126 523 128 142 394 0 388 +17 392 0 527 52
5 528 124 139 390 0 401 +15 527 82 0 528 529 0 17 525 0 527 530 392 114 401 399
 0 0 -17 528 0 527 392 531 137 136 381 0 0 -17 531 0 527 528 407 123 119 402 0 0
 -17 136 0 532 362 380 123 528 381 0 533 +15 532 305 0 366 534 0 17 362 0 532 50
 136 40 533 360 0 535 +17 380 0 532 136 377 137 523 378 0 528 +17 533 0 536 119
 44 123 362 360 0 531 -15 536 80 0 410 537 0 17 119 0 536 410 533 117 531 402 0
 407 +17 44 0 536 533 410 40 538 274 0 362 +17 410 0 536 44 119 51 539 408 0 538
 +17 538 0 540 59 535 51 44 274 0 0 -15 540 858 0 535 14 0 17 59 0 540 541 538 5
7 53 261 0 267 -17 535 0 540 538 541 40 50 270 0 0 -17 541 0 540 535 59 48 267 2
65 0 0 -17 50 0 532 366 362 48 535 270 0 542 +17 366 0 532 65 50 45 542 363 0 54
3 +17 542 0 544 267 47 48 366 363 0 541 -15 544 78 0 412 545 0 17 267 0 544 412
 542 57 541 265 0 546 +17 47 0 544 542 412 45 547 268 0 366 +17 412 0 544 47 267
 54 546 403 0 547 +17 547 0 548 62 543 54 47 268 0 0 -15 548 837 0 543 549 0 17
 62 0 548 550 547 60 56 263 0 260 -17 543 0 548 547 550 45 65 272 0 0 -17 550 0
 548 543 62 63 260 258 0 0 -17 65 0 532 150 366 63 543 272 0 551 +17 150 0 532 3
71 65 127 551 367 0 552 +17 551 0 553 260 554 63 150 367 0 550 -15 553 84 0 551
 555 0 17 260 0 553 122 551 60 550 258 0 556 +17 554 0 553 551 122 127 415 414 0
 0 -17 122 0 553 554 260 120 556 393 0 415 +17 415 0 527 407 552 120 554 414 0 5
57 +17 407 0 527 531 415 117 557 405 0 539 +17 552 0 527 415 530 127 371 369 0 5
54 -17 557 0 558 556 539 120 407 405 0 0 -15 558 44 0 556 559 0 17 556 0 558 56
 557 60 122 393 0 0 -17 539 0 558 557 53 117 410 408 0 0 -17 53 0 558 539 546 51
 59 261 0 410 +17 546 0 558 53 56 57 412 403 0 0 -17 56 0 558 546 556 54 62 263
 0 412 +14 559 43 560 ?518 455 558 4 561 -0 0 518 455 19 81 1 560 1640 490 559 5
62 0 516 563 564 14 518 279 563 ?514 559 565 4 566 -0 0 514 559 19 14 455 1 567
 ?559 545 454 4 568 +0 0 559 545 19 50 561 65 0 559 568 569 0 +0 0 0 0 1 0 0 0 1
 50 568 2 0 455 570 561 0 +0 .047 0 0 1 0 0 0 1 50 569 90 0 545 561 571 0 +.0349
5 .047 -.02845 1489033026589534e-31 0 1 1 0 -1489033026589534e-31 14 545 79 572
 ?455 537 544 4 569 -0 0 455 537 19 50 571 91 0 537 569 573 0 +.03495 .047 .0284
5 -1 0 0 0 0 1 14 537 81 574 ?545 529 536 4 571 -0 0 545 529 19 50 573 92 0 529
 571 327 0 +.03495 .047 .02845 -992688684393023e-31 0 -1 -1 0 992688684393023e-3
1 14 529 83 575 ?537 555 527 4 573 -0 0 537 555 19 50 327 93 0 555 573 305 0 +-.
03495 .047 .02845 1 0 0 0 0 -1 14 555 85 576 ?529 460 553 4 327 -0 0 529 460 19
 81 1 576 1646 490 555 577 0 575 578 579 14 460 936 578 ?555 483 458 4 580 -431
 431 555 483 19 81 1 578 1647 490 460 581 0 576 582 583 14 483 944 582 ?460 445
 213 4 584 -448 448 460 445 19 50 580 470 0 431 296 585 0 +.011 .017 -.00255 1 0
 -15770213417971e-29 -15770213417971e-29 0 -1 14 431 452 586 ?419 438 429 4 580
 -460 460 419 438 19 81 1 586 1649 490 431 587 0 582 588 589 14 419 456 588 ?295
 431 416 4 585 -0 0 295 431 19 14 438 448 590 ?431 448 436 4 296 -486 486 431 44
8 19 81 1 590 1651 490 438 591 0 588 592 593 14 448 444 592 ?438 534 446 4 584 -
483 483 438 534 19 50 296 471 0 438 287 580 0 +-.011 .017 -.00255 0 0 -1 -1 0 0
 81 1 592 1652 490 448 594 0 590 595 596 14 534 303 595 ?448 517 532 4 597 -0 0
 448 517 19 50 584 468 0 448 585 597 0 +-.011 .017 -.00255 -1 0 15770213417971e-
29 15770213417971e-29 0 1 50 585 469 0 419 580 584 0 +-.011 .017 .01945 0 0 1 1
 0 0 50 597 320 0 534 584 566 0 +0 .01 0 0 -1 0 0 0 -1 50 566 317 0 518 597 519
 0 +.02 .01 .02845 -1 0 867361737988404e-31 867361737988404e-31 0 1 50 519 316 0
 514 566 570 0 +-.02 .01 -.01155 1301042606982606e-31 0 1 1 0 -1301042606982606e
-31 50 570 315 0 517 519 568 0 +-.02 .01 .02845 1 0 -867361737988404e-31 -867361
737988404e-31 0 -1 14 517 287 598 ?534 514 599 4 570 -0 0 534 514 19 81 1 598 16
54 490 517 600 0 595 601 602 15 599 951 0 480 517 603 17 480 0 599 480 480 0 604
 478 0 0 +15 603 290 0 385 517 0 17 385 0 603 145 116 131 524 350 0 520 +17 145
 0 603 148 385 143 133 396 0 522 -17 116 0 603 385 148 114 530 383 0 524 +17 524
 0 456 401 520 114 385 350 0 525 -17 148 0 603 116 145 146 374 372 0 371 -17 530
 0 527 552 525 146 116 383 0 0 -17 374 0 532 377 371 143 148 372 0 0 +17 371 0 5
32 374 150 146 552 369 0 530 +17 377 0 532 380 374 140 522 375 0 0 +17 522 0 515
 133 142 143 377 375 0 374 -17 604 0 605 604 604 0 480 478 0 0 -15 605 993 0 604
 291 0 14 291 990 601 ?285 14 606 4 277 -285 462 285 14 19 81 1 601 1655 490 291
 607 0 598 608 609 14 14 857 608 ?291 549 540 4 5 +0 0 291 549 19 15 606 1299 0
 610 291 605 14 462 1228 611 ?486 201 461 4 277 -291 201 486 201 19 81 1 611 165
7 490 462 612 0 608 613 614 80 255 1 490 615 616 9000 1 1 1 1 1 1 1 1 0 FFFFTFTF
FFFFFF1 81 1 612 1506 617 462 0 611 618 619 620 81 1 608 1656 490 14 621 0 601 6
11 622 81 1 613 1658 490 208 623 0 611 624 625 82 255 1 614 -1182138128 14 208 7
24 613 ?549 316 194 4 276 -445 445 549 316 19 81 1 623 1530 617 208 0 613 626 62
7 628 81 1 624 1659 490 549 627 0 613 629 630 82 1 625 -1926168341 14 549 836 62
4 ?14 208 548 4 15 +0 0 14 208 19 81 1 627 1531 617 549 0 624 623 621 631 81 1 6
29 1660 490 325 632 0 624 633 634 82 1 630 -1905917753 14 325 661 629 ?320 295 4
51 4 305 -0 0 320 295 19 81 1 632 1527 617 325 0 629 635 636 637 81 1 633 1661 4
90 295 635 0 629 638 639 82 1 634 -1932066596 14 295 460 633 ?325 419 424 4 287
 +0 0 325 419 19 81 1 635 1526 617 295 0 633 640 632 641 81 1 638 1662 490 505 6
42 0 633 643 644 82 1 639 -1947991866 14 505 1249 638 ?645 500 646 4 647 -0 0 64
5 500 19 81 1 642 1537 617 505 0 638 648 649 650 81 1 643 1663 490 645 649 0 638
 651 652 82 1 644 -1181679376 14 645 1253 643 ?653 505 654 4 655 -0 0 653 505 19
 81 1 649 1538 617 645 0 643 642 656 657 81 1 651 1664 490 653 656 0 643 658 659
 82 1 652 -1190002448 14 653 1325 651 ?660 645 661 4 662 +0 0 660 645 19 81 1 65
6 1539 617 653 0 651 649 663 664 81 1 658 1665 490 660 663 0 651 665 666 82 1 65
9 -1162477326 14 660 1329 658 ?667 653 668 4 669 -0 0 667 653 19 81 1 663 1540 6
17 660 0 658 656 670 671 81 1 665 1666 490 667 670 0 658 672 673 82 1 666 -11629
36078 14 667 1333 665 ?674 660 675 4 676 -0 0 674 660 19 81 1 670 1541 617 667 0
 665 663 677 678 81 1 672 1667 490 674 677 0 665 679 680 82 1 673 -1171259150 14
 674 1405 672 ?681 667 682 4 683 +0 0 681 667 19 81 1 677 1542 617 674 0 672 670
 684 685 81 1 679 1668 490 681 684 0 672 686 687 82 1 680 -1143734028 14 681 140
9 679 ?688 674 689 4 690 -0 0 688 674 19 81 1 684 1543 617 681 0 679 677 691 692
 81 1 686 1669 490 688 691 0 679 0 693 82 1 687 -1144192780 14 688 1413 686 ?0 6
81 694 4 695 -0 0 0 681 19 81 1 691 1544 617 688 0 686 684 0 696 82 1 693 -11525
15852 80 1 617 0 697 8001 0 0 0 0 3 5 0 0 0 FFFFTFTFFFFFFF2 83 255 3 696 .858823
529411765 .858823529411765 .858823529411765 79 255 15 697 SDL/TYSA_COLOUR15 694
 1416 0 698 688 699 51 695 1433 0 688 690 662 0 +-499999999999891e-19 .02995 -.0
0605 0 0 -1 .01225 -1 0 0 50 690 1434 0 681 683 695 0 +-499999999999891e-19 .029
95 -.00905 0 0 -1 -1 0 0 50 662 1355 0 653 695 669 0 +-.0145 .02995 .0084 -1 0 0
 0 0 1 50 669 1354 0 660 662 676 0 +-.0175 .02995 .0084 -1 0 0 0 0 1 51 676 1353
 0 667 669 507 0 +-.0145 .02995 .0084 -1 0 0 .01225 0 0 1 50 507 1275 0 500 676
 647 0 +.0145 .02995 .0084 1 0 0 0 0 -1 50 647 1274 0 505 507 655 0 +.0175 .0299
5 .0084 1 0 0 0 0 -1 51 655 1273 0 645 647 700 0 +.0145 .02995 .0084 1 0 0 .0122
5 0 0 -1 51 700 1181 0 1 655 293 701 +-.008 .017 45e-5 0 -1 0 .003 0 0 -1 51 293
 1180 0 1 700 286 702 +.008 .017 45e-5 0 -1 0 .003 0 0 -1 141 701 198 701 701 70
0 38 198 1191 0 197 206 470 0 +286 700 703 704 705 16 197 1136 0 ?182 439 187 19
8 187 187 1 32 206 1192 0 190 706 198 0 --499999999999883e-19 .02995 .0084 .7071
06781186548 0 -.707106781186548 -.707106781186548 0 -.707106781186548 .014919953
08303614 .01055 31 470 1190 0 193 198 467 0 --499999999999891e-19 .02995 -.00255
 0 0 -1 -1 0 0 .01055 40 7 703 0 1 7 .000722493603010552 .3611506294003005 ??-.0
08 .0368854163537599 -.00255 -.00929894594599886 .0350253816494911 -.00225420772
674236 -.01045152947184754 .0317137133118189 -.001279162585955084 -.010593788444
31436 .02958802591039895 -.001057402237672862 -.01031230962112936 .0275030628859
581 -.001461340947092522 -.00887074203074847 .02416233984869645 -.00242085497994
7265 -.008 .0230145836462401 -.00255 41 1 704 L-.008 .0368854163537599 -.00255 4
1 1 705 L-.008 .0230145836462401 -.00255 16 193 1140 0 ?179 474 439 470 439 439
 1 16 439 1138 0 ?27 193 197 470 193 193 1 17 27 0 25 23 182 171 437 439 0 28 +1
7 182 0 25 27 184 177 191 197 0 437 +17 191 0 443 39 440 168 182 197 0 200 -31 7
06 1277 0 707 708 206 0 +.0175 .02995 .0084 1 0 0 0 0 -1 .01225 16 707 1231 0 ?7
09 710 711 706 0 0 1 31 708 1278 0 710 712 706 0 +.0145 .02995 .0084 1 0 0 0 0 -
1 .01225 16 710 1235 0 ?713 281 707 708 0 0 1 31 712 1357 0 714 715 708 0 +-.017
5 .02995 .0084 -1 0 0 0 0 1 .01225 16 714 1311 0 ?716 717 16 712 0 0 1 31 715 13
58 0 717 718 712 0 +-.0145 .02995 .0084 -1 0 0 0 0 1 .01225 16 717 1315 0 ?719 7
20 714 715 0 0 1 31 718 1437 0 721 722 715 0 +-499999999999891e-19 .02995 -.0090
5 0 0 -1 -1 0 0 .01225 16 721 1391 0 ?723 724 0 718 0 0 1 31 722 1438 0 724 0 71
8 0 +-499999999999891e-19 .02995 -.00605 0 0 -1 -1 0 0 .01225 16 724 1395 0 ?725
 511 721 722 0 0 1 17 725 0 682 725 725 0 698 724 0 0 +16 511 1394 0 ?508 16 724
 17 0 0 1 16 16 1398 0 ?726 714 511 6 0 0 1 31 17 1381 0 511 727 6 0 --499999999
999891e-19 .02995 -.00905 0 0 -1 -1 0 0 .01055 31 727 1307 0 711 728 17 0 --.014
5 .02995 .0084 -1 0 0 0 0 1 .01055 16 711 1318 0 ?729 707 720 727 0 0 1 31 728 1
301 0 720 282 727 0 --.0175 .02995 .0084 -1 0 0 0 0 1 .01055 16 720 1314 0 ?610
 711 717 728 0 0 1 31 282 1227 0 465 275 728 0 -.0145 .02995 .0084 1 0 0 0 0 -1
 .01055 17 610 0 606 610 610 0 730 720 0 0 +17 730 0 731 730 730 0 610 720 0 0 -
15 731 1332 0 730 660 0 17 729 0 732 729 729 0 733 711 0 0 +15 732 1328 0 729 65
3 0 17 733 0 202 733 733 0 729 711 0 0 -15 202 1306 0 733 201 0 17 726 0 734 726
 726 0 735 16 0 0 +15 734 1408 0 726 674 0 17 735 0 189 735 735 0 726 16 0 0 -15
 189 1386 0 735 12 0 15 682 1407 0 725 674 734 17 698 0 694 698 698 0 725 724 0
 0 -17 723 0 699 723 723 0 736 721 0 0 +15 699 1417 0 723 688 0 17 736 0 689 736
 736 0 723 721 0 0 -15 689 1411 0 736 681 737 15 737 1412 0 510 681 0 17 510 0 7
37 510 510 0 508 511 0 0 -17 719 0 661 719 719 0 738 717 0 0 +15 661 1327 0 719
 653 732 17 738 0 675 738 738 0 719 717 0 0 -15 675 1336 0 738 667 739 15 739 13
37 0 716 667 0 17 716 0 739 716 716 0 740 714 0 0 +17 740 0 668 740 740 0 716 71
4 0 0 -15 668 1331 0 740 660 731 17 713 0 506 713 713 0 741 710 0 0 +16 281 1234
 0 ?742 465 710 275 0 0 1 17 742 0 292 742 742 0 743 281 0 0 +15 292 1219 0 742
 285 744 17 743 0 745 743 743 0 742 281 0 0 -15 745 1252 0 743 505 0 15 744 988
 0 481 285 0 17 481 0 744 481 481 0 746 477 0 0 +17 746 0 565 746 746 0 481 477
 0 0 -15 565 957 0 746 518 526 15 506 1247 0 713 500 747 17 741 0 654 741 741 0
 713 710 0 0 -15 654 1256 0 741 645 748 15 748 1257 0 709 645 0 17 709 0 748 709
 709 0 749 707 0 0 +17 749 0 646 749 749 0 709 707 0 0 -15 646 1251 0 749 505 74
5 15 747 1248 0 468 500 0 17 468 0 747 468 468 0 750 465 0 0 +17 750 0 463 750 7
50 0 468 465 0 0 -15 463 1226 0 750 462 0 141 702 467 702 702 293 50 683 1435 0
 674 0 690 0 +-499999999999891e-19 .02995 -.00605 0 0 -1 -1 0 0 83 3 692 .858823
529411765 .858823529411765 .858823529411765 83 3 685 .858823529411765 .858823529
411765 .858823529411765 83 3 678 .858823529411765 .858823529411765 .858823529411
765 83 3 671 .858823529411765 .858823529411765 .858823529411765 83 3 664 .858823
529411765 .858823529411765 .858823529411765 83 3 657 .858823529411765 .858823529
411765 .858823529411765 81 1 648 1536 617 500 0 503 502 642 751 83 3 650 .858823
529411765 .858823529411765 .858823529411765 81 1 503 1638 490 500 648 0 499 516
 752 81 1 502 1535 617 290 0 499 753 648 754 83 3 751 .858823529411765 .85882352
9411765 .858823529411765 81 1 753 1534 617 285 0 289 607 502 755 83 3 754 .85882
3529411765 .858823529411765 .858823529411765 81 1 289 1629 490 285 753 0 0 319 7
56 81 1 607 1533 617 291 0 601 621 753 757 83 3 755 .858823529411765 .8588235294
11765 .858823529411765 81 1 621 1532 617 14 0 608 627 607 758 83 3 757 .85882352
9411765 .858823529411765 .858823529411765 83 3 758 .858823529411765 .85882352941
1765 .858823529411765 81 1 319 1630 490 316 626 0 289 324 759 82 1 756 -14934996
64 81 1 626 1529 617 316 0 319 636 623 760 81 1 324 1631 490 320 636 0 319 489 7
61 82 1 759 -1928134421 81 1 636 1528 617 320 0 324 632 626 762 82 1 761 -193010
0516 83 3 762 .858823529411765 .858823529411765 .858823529411765 83 3 760 .85882
3529411765 .858823529411765 .858823529411765 81 1 516 1639 490 514 763 0 503 560
 764 82 1 752 -1181220624 81 1 763 1519 617 514 0 516 765 600 766 82 1 764 -1976
041237 81 1 765 1518 617 518 0 563 562 763 767 81 1 600 1520 617 517 0 598 763 7
68 769 83 3 766 .858823529411765 .858823529411765 .858823529411765 81 1 768 1521
 617 534 0 595 600 594 770 83 3 769 .858823529411765 .858823529411765 .858823529
411765 81 1 595 1653 490 534 768 0 592 598 771 81 1 594 1522 617 448 0 592 768 5
91 772 83 3 770 .858823529411765 .858823529411765 .858823529411765 81 1 591 1523
 617 438 0 590 594 587 773 83 3 772 .858823529411765 .858823529411765 .858823529
411765 81 1 587 1524 617 431 0 586 591 640 774 83 3 773 .858823529411765 .858823
529411765 .858823529411765 81 1 640 1525 617 419 0 588 587 635 775 83 3 774 .858
823529411765 .858823529411765 .858823529411765 81 1 588 1650 490 419 640 0 586 5
90 776 83 3 775 .858823529411765 .858823529411765 .858823529411765 82 1 776 -194
1176122 82 1 771 -1988362041 81 1 563 1641 490 518 765 0 560 567 777 81 1 562 15
17 617 559 0 560 778 765 779 83 3 767 .858823529411765 .858823529411765 .8588235
29411765 81 1 778 1516 617 455 0 567 780 562 781 83 3 779 .858823529411765 .8588
23529411765 .858823529411765 81 1 567 1642 490 455 778 0 563 572 782 81 1 780 15
15 617 545 0 572 783 778 784 83 3 781 .858823529411765 .858823529411765 .8588235
29411765 81 1 572 1643 490 545 780 0 567 574 785 81 1 783 1514 617 537 0 574 786
 780 787 83 3 784 .858823529411765 .858823529411765 .858823529411765 81 1 574 16
44 490 537 783 0 572 575 788 81 1 786 1513 617 529 0 575 577 783 789 83 3 787 .8
58823529411765 .858823529411765 .858823529411765 81 1 575 1645 490 529 786 0 574
 576 790 81 1 577 1512 617 555 0 576 581 786 791 83 3 789 .858823529411765 .8588
23529411765 .858823529411765 81 1 581 1511 617 460 0 578 792 577 793 83 3 791 .8
58823529411765 .858823529411765 .858823529411765 81 1 792 1510 617 483 0 582 794
 581 795 83 3 793 .858823529411765 .858823529411765 .858823529411765 81 1 582 16
48 490 483 792 0 578 586 796 81 1 794 1509 617 445 0 492 491 792 797 83 3 795 .8
58823529411765 .858823529411765 .858823529411765 81 1 492 1633 490 445 794 0 489
 494 798 81 1 491 1508 617 322 0 489 619 794 799 83 3 797 .858823529411765 .8588
23529411765 .858823529411765 81 1 619 1507 617 486 0 494 612 491 800 83 3 799 .8
58823529411765 .858823529411765 .858823529411765 81 1 494 1634 490 486 619 0 492
 495 801 83 3 800 .858823529411765 .858823529411765 .858823529411765 82 1 801 -1
200946965 82 1 798 -1203437333 82 1 796 -1489108772 82 1 790 -2017328958 82 1 78
8 -2017591097 82 1 785 -2017853241 82 1 782 -2024406842 82 1 777 -1976172324 83
 3 641 .858823529411765 .858823529411765 .858823529411765 83 3 637 .858823529411
765 .858823529411765 .858823529411765 83 3 631 .858823529411765 .858823529411765
 .858823529411765 51 15 848 0 549 276 5 0 +-.02995 .047 -.02345 0 -1 0 .005 0 0
 -1 83 3 628 .858823529411765 .858823529411765 .858823529411765 82 1 622 -190395
1673 81 1 618 1505 617 201 0 497 496 612 802 83 3 620 .858823529411765 .85882352
9411765 .858823529411765 81 1 497 1636 490 201 618 0 495 499 803 81 1 496 1504 6
17 12 0 495 0 618 804 83 3 802 .858823529411765 .858823529411765 .85882352941176
5 83 3 804 .858823529411765 .858823529411765 .858823529411765 82 1 803 -11633948
30 79 14 616 SWEntUnchanged82 1 609 -1495334670 82 1 602 -1975910180 82 1 596 -1
941045028 82 1 593 -1941438229 82 1 589 -1941307172 82 1 583 -1489895204 82 1 57
9 -2017066809 82 1 564 -2020933433 17 523 0 526 130 139 140 380 378 0 377 -82 1
 504 -1225916172 82 1 498 -1144651532 82 1 493 -1201864469 17 35 0 33 31 487 169
 174 205 0 36 -17 174 0 25 179 26 172 35 205 0 192 +16 205 1132 0 ?174 190 29 46
7 29 29 1 17 204 0 199 200 164 32 447 449 0 218 -17 161 0 199 164 167 159 203 48
2 0 452 -40 7 471 0 1 7 .000648185153643228 .365421590471227 ??.008 .02313090915
150705 -.00255 .00929850102798756 .02506041632347745 -.002254421394737745 .01039
417844117732 .0284594844218033 -.00135773604041125 .01046976711851684 .030748122
6548419 -.001253012149191252 .00986523824487169 .03355424063395245 -.00189965663
233333 .008404360334329 .03626080750279435 -.002522623877995035 .008 .0367690908
4849295 -.00255 41 1 472 L.008 .02313090915150705 -.00255 41 1 473 L.008 .036769
09084849295 -.00255 16 219 928 0 ?92 225 215 223 225 225 1 16 21 1074 0 ?39 9 27
4 22 9 9 1 16 244 1085 0 ?80 245 241 242 245 245 1 16 236 908 0 ?86 237 234 235
 237 237 1 141 328 301 328 328 305 40 7 306 0 1 7 .00064818515364323 .3654215904
712275 ??-.011 .02313090915150705 .01645 -.01070442139473772 .02506041632347745
 .01774850102798755 -.00980773604041124 .0284594844218033 .0188441784411773 -.00
970301214919124 .0307481226548419 .01891976711851685 -.01034965663233332 .033554
24063395245 .0183152382448717 -.01097262387799502 .03626080750279435 .0168543603
3432895 -.011 .03676909084849295 .01645 41 1 307 L-.011 .02313090915150705 .0164
5 41 1 308 L-.011 .03676909084849295 .01645 141 294 467 805 805 286 141 805 198
 294 294 286 141 284 22 284 284 276 19 13 95 0 1 0 8 4 S74 4 CI16 index_map_offs
et0 0 1 dCCZ20 11 2 0 0 686 691 0 0 0 0 0 0 0 0 0 0 0 0 0 0 0 0 0 0 1 0 
