**ABCDEFGHIJKLMNOPQRSTUVWXYZabcdefghijklmnopqrstuvwxyz**************************
**PARASOLID !"#$%&'()*+,-./:;<=>?@[\]^_`{|}~0123456789**************************
**PART1;
MC=AMD64;
MC_MODEL=Intel64 Family 6 Model 15 Stepping 11, GenuineIntel;
MC_ID=unknown;
OS=Windows_NT;
OS_RELEASE=unknown;
FRU=Parasolid Version 24.0, build 201, 10-11-2011;
APPL=SolidWorks 2012-2011312;
SITE=;
USER=unknown;
FORMAT=text;
GUISE=transmit;
KEY=2I-1D_Chamber_Base;
FILE=2I-1D_Chamber_Base.x_t;
DATE=Sat Apr 06 14:27:39 2013;
**PART2;
SCH=SCH_2400201_20000;
USFLD_SIZE=0;
**PART3;
**END_OF_HEADER*****************************************************************
T51 : TRANSMIT FILE created by modeller version 240020123 SCH_2400201_20000_1300
6186 0 12 27 CCCCCCCCCCCCCCCCCCCCCCCA16 index_map_offset0 0 1 dA9 index_map82 0
 A17 node_id_index_map82 0 A20 schema_embedding_map82 0 Z1 3020 0 2 0 0 0 0 1e3
 1e-8 0 3 0 1 0 1 1 4 5 6 7 8 9 10 0 0 0 0 70 11 CI9 list_type0 0 1 uI10 notrans
mit0 0 1 lCCCDCCDI12 finger_index0 0 1 dI12 finger_block1012 0 CZ2 0 4 T1 0 0 2
 20 1 11 11 13 255 4 94 0 1 0 12 0 0 13 0 51 255 5 623 0 14 15 0 0 +-.03 .02 -.0
185 0 -1 0 .005 0 0 -1 30 255 6 2185 0 9 16 0 0 +-.00955 .0031 .0223 0 -1 0 29 2
55 7 2205 0 10 17 0 .00955 0 .0032 19 255 8 28 0 1 13 0 18 V16 255 9 2183 0 ?19
 0 20 6 0 0 1 18 255 10 2203 0 21 0 22 7 ?1 17 255 21 0 23 24 25 10 26 27 0 28 -
18 22 2175 0 29 10 30 17 ?1 17 29 0 31 32 33 22 34 35 0 36 +18 30 1890 0 37 22 3
8 39 ?1 29 17 2177 0 22 39 7 .00955 .0031 .0223 29 39 1892 0 30 40 17 .045 0 .02
23 29 40 1568 0 38 41 39 .0120900256518678 .0566329013061539 -.0335 18 38 1566 0
 42 30 43 40 ?1 29 41 1504 0 43 44 40 -.0117892738578582 .057153818693846 -.0335
 18 43 1502 0 45 38 46 41 ?1 29 44 1431 0 46 47 41 -.0003007517940095565 .036213
28 -.0335 18 46 1430 0 48 43 49 44 ?1 29 47 1293 0 49 50 44 -.045 .0571538186938
458 .02328927385785825 18 49 1291 0 51 46 52 47 ?1 29 50 1281 0 52 53 47 .045 .0
566329013061536 .02359002565186805 18 52 1279 0 54 49 55 50 ?1 29 53 1163 0 55 5
6 50 -.045 .0566329013061541 -.000590025651867691 18 55 1161 0 57 52 58 53 ?1 29
 56 1151 0 58 59 53 .045 .0571538186938464 -.000289273857858116 18 58 1149 0 60
 55 61 56 ?1 29 59 1018 0 61 62 56 -.045 .03621328 .01180075179400946 18 61 1017
 0 63 58 64 59 ?1 29 62 1007 0 64 65 59 .045 .03621328 .0111992482059901 18 64 1
006 0 66 61 67 62 ?1 29 65 565 0 67 68 62 -.035 .067 -.0185 18 67 563 0 69 64 70
 65 ?1 29 68 552 0 70 71 65 -.035 .02 -.0185 18 70 550 0 72 67 73 68 ?1 29 71 54
4 0 73 74 68 .035 .02 -.0185 18 73 542 0 75 70 76 71 ?1 29 74 541 0 76 77 71 .03
5 .067 -.0185 18 76 539 0 78 73 79 74 ?1 29 77 528 0 79 80 74 -.03 .02 -.0235 18
 79 526 0 81 76 82 77 ?1 29 80 525 0 82 83 77 .03 .02 -.0235 18 82 523 0 84 79 8
5 80 ?1 29 83 522 0 85 86 80 -.03 .067 -.0235 18 85 520 0 87 82 88 83 ?1 29 86 5
19 0 88 89 83 .03 .067 -.0235 18 88 517 0 90 85 91 86 ?1 29 89 141 0 91 92 86 .0
35 .067 .0335 18 91 139 0 93 88 94 89 ?1 29 92 70 0 95 96 89 -.045 0 -.0335 18 9
5 61 0 97 98 99 92 ?1 29 96 71 0 99 100 92 .045 0 -.0335 18 99 62 0 101 95 102 9
6 ?1 29 100 72 0 102 103 96 .045 0 .0335 18 102 63 0 104 99 105 100 ?1 29 103 73
 0 105 106 100 -.045 0 .0335 18 105 64 0 107 102 108 103 ?1 29 106 27 0 94 109 1
03 -.045 .067 -.0335 18 94 25 0 110 91 111 106 ?1 29 109 24 0 111 112 106 .045 .
067 -.0335 18 111 22 0 113 94 114 109 ?1 29 112 21 0 114 115 109 .045 .067 .0335
 18 114 19 0 116 111 98 112 ?1 29 115 18 0 98 117 112 -.045 .067 .0335 18 98 16
 0 118 114 95 115 ?1 29 117 248 0 119 120 115 -.035 .067 .0335 18 119 201 0 121
 122 123 117 ?1 29 120 252 0 108 124 117 -.035 .02 .0335 18 108 198 0 125 105 12
2 120 ?1 29 124 255 0 122 126 120 .035 .02 .0335 18 122 204 0 127 108 119 124 ?1
 29 126 1122 0 123 128 124 -.045 .03621328 .0111992482059905 18 123 1073 0 129 1
19 130 126 ?1 29 128 1123 0 130 131 126 .045 .03621328 .01180075179400988 18 130
 1072 0 132 123 133 128 ?1 29 131 1267 0 133 134 128 -.045 .057153818693846 -.00
02892738578582305 18 133 1218 0 135 130 136 131 ?1 29 134 1268 0 136 137 131 .04
5 .0566329013061538 -.000590025651867987 18 136 1217 0 138 133 139 134 ?1 29 137
 1397 0 139 140 134 -.045 .0566329013061539 .02359002565186775 18 139 1348 0 141
 136 142 137 ?1 29 140 1398 0 142 143 137 .045 .0571538186938462 .02328927385785
815 18 142 1347 0 144 139 145 140 ?1 29 143 1489 0 145 146 140 .0003007517940095
44 .03621328 -.0335 18 145 1461 0 147 142 148 143 ?1 29 146 1562 0 148 149 143 -
.01209002565186772 .0566329013061541 -.0335 18 148 1534 0 150 145 151 146 ?1 29
 149 1626 0 151 152 146 .01178927385785826 .0571538186938459 -.0335 18 151 1598
 0 153 148 154 149 ?1 29 152 2115 0 155 156 149 .045 .0031 .01819918477449445 18
 155 2028 0 157 158 159 152 ?1 29 156 2116 0 159 160 152 .045 .00951 .0219 18 15
9 2030 0 161 155 162 156 ?1 29 160 2117 0 162 163 156 .045 .00951 .0036 18 162 2
032 0 164 159 165 160 ?1 29 163 2118 0 165 166 160 .045 .0031 .00730081522550553
 18 165 2034 0 167 162 168 163 ?1 29 166 2119 0 168 169 163 .045 .0031 .0032 18
 168 2036 0 170 165 171 166 ?1 29 169 2120 0 171 172 166 .045 0 .0032 18 171 203
8 0 173 168 174 169 ?1 29 172 2122 0 174 175 169 .045 .0031 .0223 18 174 2026 0
 176 171 177 172 ?1 29 175 2123 0 154 178 172 -.045 .0031 .01819918477449445 18
 154 2025 0 179 151 180 175 ?1 29 178 2124 0 180 181 175 -.045 .00951 .0219 18 1
80 2027 0 182 154 183 178 ?1 29 181 2125 0 183 184 178 -.045 .00951 .0036 18 183
 2029 0 185 180 186 181 ?1 29 184 2126 0 186 187 181 -.045 .0031 .00730081522550
553 18 186 2031 0 188 183 189 184 ?1 29 187 2127 0 189 190 184 -.045 .0031 .0032
 18 189 2033 0 191 186 192 187 ?1 29 190 2128 0 192 193 187 -.045 0 .0032 18 192
 2035 0 194 189 195 190 ?1 29 193 2129 0 195 196 190 -.045 0 .0223 18 195 2037 0
 197 192 158 193 ?1 29 196 2130 0 158 198 193 -.045 .0031 .0223 18 158 2039 0 19
9 195 155 196 ?1 29 198 2725 0 177 200 196 .00915 .00951 .0036 18 177 2515 0 201
 174 202 198 ?1 29 200 2726 0 202 203 198 .00915 .00951 .0219 18 202 2547 0 204
 177 205 200 ?1 29 203 2727 0 205 206 200 -.00915 .00951 .0036 18 205 2548 0 207
 202 208 203 ?1 29 206 2728 0 208 209 203 -.00915 .00951 .0219 18 208 2513 0 210
 205 211 206 ?1 29 209 2730 0 211 212 206 .00544918477449446 .0031 .007300815225
50553 18 211 2518 0 213 208 214 209 ?1 29 212 2731 0 214 215 209 .00544918477449
446 .0031 .01819918477449445 18 214 2546 0 216 211 217 212 ?1 29 215 2734 0 217
 218 212 -.00544918477449446 .0031 .00730081522550553 18 217 2549 0 219 214 220
 215 ?1 29 218 2735 0 220 221 215 -.00544918477449446 .0031 .01819918477449445 1
8 220 2520 0 222 217 223 218 ?1 29 221 2737 0 223 224 218 -.00955 .0031 .0032 18
 223 2532 0 225 220 226 221 ?1 29 224 2740 0 226 227 221 -.00955 .0031 .0223 18
 226 2535 0 228 223 229 224 ?1 29 227 2741 0 229 230 224 -.00955 0 .0032 18 229
 2551 0 231 226 232 227 ?1 29 230 2742 0 232 233 227 -.00955 0 .0223 18 232 2538
 0 234 229 235 230 ?1 29 233 2744 0 235 236 230 .00955 0 .0223 18 235 2541 0 32
 232 237 233 ?1 29 236 2745 0 237 238 233 .00955 .0031 .0032 18 237 2526 0 24 23
5 239 236 ?1 29 238 2749 0 240 241 236 .00544918477449445 .0031 -.0335 18 240 25
19 0 242 243 244 238 ?1 29 241 2750 0 244 245 238 .00915 .00951 -.0335 18 244 25
16 0 246 240 247 241 ?1 29 245 2751 0 247 248 241 -.00915 .00951 -.0335 18 247 2
522 0 249 244 250 245 ?1 29 248 2752 0 250 251 245 -.00544918477449446 .0031 -.0
335 18 250 2534 0 252 247 253 248 ?1 29 251 2753 0 253 254 248 -.00955 .0031 -.0
335 18 253 2537 0 255 250 256 251 ?1 29 254 2754 0 256 257 251 -.00955 0 -.0335
 18 256 2540 0 258 253 259 254 ?1 29 257 2755 0 259 260 254 .00955 0 -.0335 18 2
59 2543 0 25 256 261 257 ?1 29 260 2756 0 261 262 257 .00955 .0031 -.0335 18 261
 2527 0 263 259 0 260 ?1 29 262 2757 0 239 264 260 .00544918477449446 .0031 .033
5 18 239 2529 0 265 237 266 262 ?1 29 264 2758 0 266 267 262 .00915 .00951 .0335
 18 266 2517 0 268 239 269 264 ?1 29 267 2759 0 269 270 264 -.00915 .00951 .0335
 18 269 2514 0 271 266 272 267 ?1 29 270 2760 0 272 273 267 -.00544918477449445
 .0031 .0335 18 272 2521 0 274 269 275 270 ?1 29 273 2761 0 275 276 270 -.00955
 .0031 .0335 18 275 2536 0 277 272 278 273 ?1 29 276 2762 0 278 279 273 -.00955
 0 .0335 18 278 2539 0 280 275 281 276 ?1 29 279 2763 0 281 282 276 .00955 0 .03
35 18 281 2542 0 283 278 243 279 ?1 29 282 2764 0 243 0 279 .00955 .0031 .0335 1
8 243 2544 0 34 281 240 282 ?1 17 34 0 284 285 286 243 29 35 0 33 -15 255 284 20
44 0 286 287 0 17 285 0 284 288 34 239 289 290 0 291 -17 286 0 284 34 292 22 176
 293 0 0 -16 35 2442 0 ?29 27 294 295 294 294 1 17 33 0 31 29 283 243 296 297 0
 289 -15 31 2632 0 283 298 0 17 283 0 31 33 32 281 299 300 0 296 -17 296 0 301 1
04 289 281 33 297 0 302 +16 297 2476 0 ?296 303 290 304 0 0 1 17 289 0 301 296 2
91 243 285 290 0 0 +15 301 82 0 305 306 0 17 291 0 301 289 307 239 308 309 0 0 +
16 290 2444 0 ?289 297 310 311 0 0 1 16 310 2510 0 ?312 290 313 314 0 0 1 30 311
 2724 0 290 0 304 0 +.00544918477449446 .0031 .0335 1 -2115095877994545e-31 0 30
 304 2723 0 297 311 315 0 +.00955 .0031 .0335 0 -1 0 30 315 2721 0 303 304 316 0
 +-.00955 .0031 .0335 0 1 0 16 303 2462 0 ?317 318 297 315 0 0 1 30 316 2720 0 3
18 315 319 0 +-.00544918477449445 .0031 .0335 1 2115095877994545e-31 0 16 318 24
55 0 ?320 321 303 316 0 0 1 30 319 2719 0 321 316 322 0 +-.00915 .00951 .0335 -.
5 .866025403784436 0 16 321 2431 0 ?323 324 318 319 0 0 1 30 322 2718 0 324 319
 325 0 +-.00915 .00951 .0335 1 0 0 16 324 2415 0 ?307 309 321 322 0 0 1 30 325 2
717 0 309 322 326 0 +.00915 .00951 .0335 -.5 -.866025403784436 0 16 309 2422 0 ?
291 294 324 325 0 0 1 30 326 2716 0 327 325 328 0 +.00544918477449445 .0031 -.03
35 1 -2115095877994545e-31 0 16 327 2489 0 ?329 330 0 326 0 0 1 30 328 2715 0 33
0 326 331 0 +.00955 .0031 -.0335 0 -1 0 16 330 2492 0 ?25 332 327 328 0 0 1 30 3
31 2713 0 332 328 333 0 +-.00955 .0031 -.0335 0 1 0 16 332 2498 0 ?334 335 330 3
31 0 0 1 30 333 2712 0 335 331 336 0 +-.00544918477449446 .0031 -.0335 1 2115095
877994545e-31 0 16 335 2501 0 ?337 338 332 333 0 0 1 30 336 2711 0 338 333 339 0
 +-.00915 .00951 -.0335 -.5 .866025403784436 0 16 338 2504 0 ?340 313 335 336 0
 0 1 30 339 2710 0 313 336 314 0 +-.00915 .00951 -.0335 1 0 0 16 313 2507 0 ?341
 310 338 339 0 0 1 30 314 2709 0 310 339 342 0 +.00915 .00951 -.0335 -.5 -.86602
5403784436 0 30 342 2708 0 343 314 344 0 +.00544918477449446 .0031 .0335 -154197
6423090495e-31 0 -1 16 343 2427 0 ?242 345 346 342 345 345 1 30 344 2707 0 346 3
42 347 0 +.00915 .00951 .0335 -1541976423090495e-31 0 -1 16 346 2413 0 ?204 343
 348 344 348 348 1 30 347 2706 0 349 344 350 0 +-.00915 .00951 .0335 -1541976423
090495e-31 0 -1 16 349 2429 0 ?351 348 352 347 352 352 1 30 350 2705 0 353 347 3
54 0 +-.00544918477449445 .0031 .0335 -1541976423090495e-31 0 -1 16 353 2450 0 ?
252 355 356 350 355 355 1 30 354 2704 0 356 350 357 0 +-.00955 .0031 .0335 -1541
976423090495e-31 0 -1 16 356 2460 0 ?358 353 359 354 359 359 1 30 357 2703 0 360
 354 361 0 +-.00955 0 .0335 -1541976423090495e-31 0 -1 16 360 2467 0 ?234 359 36
2 357 362 362 1 30 361 2702 0 300 357 295 0 +.00955 0 .0335 -1541976423090495e-3
1 0 -1 16 300 2474 0 ?299 362 27 361 27 27 1 30 295 2701 0 35 361 363 0 +.00955
 .0031 .0335 -1541976423090495e-31 0 -1 30 363 2700 0 364 295 365 0 +.00955 .003
1 .0032 0 -1 0 16 364 2472 0 ?28 366 345 363 0 0 1 30 365 2697 0 366 363 367 0 +
-.00955 .0031 .0032 0 1 0 16 366 2458 0 ?368 369 364 365 0 0 1 30 367 2688 0 369
 365 370 0 +-.01632 .0219288042902689 -.003570000000000125 -.447213595499961 .77
459666924148 -.4472135954999615 16 369 2434 0 ?371 372 366 367 0 0 1 30 370 2687
 0 372 367 373 0 +-.01632 .0219288042902689 .02907 .447213595499961 -.7745966692
4148 -.447213595499961 16 372 2430 0 ?374 375 369 370 0 0 1 30 373 2686 0 375 37
0 376 0 +-.001680000000000155 -.00924811024597099 .01443000000000014 -.447213595
499961 -.77459666924148 .4472135954999615 16 375 2426 0 ?377 378 372 373 0 0 1 3
0 376 2685 0 378 373 379 0 +-.001680000000000155 -.009248110245971 .011069999999
99982 .447213595499961 .77459666924148 .447213595499961 16 378 2421 0 ?380 381 3
75 376 0 0 1 30 379 2114 0 382 376 383 0 +-.045 .0031 .01819918477449445 0 -1057
547938997272e-31 1 16 382 1969 0 ?384 385 386 379 0 0 1 30 383 2113 0 385 379 38
7 0 +-.045 .0031 .0223 0 -1 0 16 385 1997 0 ?388 389 382 383 0 0 1 30 387 2111 0
 389 383 390 0 +-.045 .0031 .0032 0 1 0 16 389 1989 0 ?391 392 385 387 0 0 1 30
 390 2110 0 392 387 393 0 +-.045 .0031 .00730081522550553 0 105754793899727e-30
 1 16 392 1985 0 ?394 395 389 390 0 0 1 30 393 2109 0 395 390 396 0 +-.045 .0095
1 .0036 0 .866025403784436 -.5 16 395 1981 0 ?397 398 392 393 0 0 1 30 396 2108
 0 398 393 399 0 +-.045 .00951 .0036 0 0 1 16 398 1977 0 ?400 401 395 396 0 0 1
 30 399 2107 0 401 396 402 0 +-.045 .00951 .0219 0 -.866025403784436 -.5 16 401
 1973 0 ?403 293 398 399 0 0 1 30 402 2106 0 381 399 404 0 +.045 .0031 .01819918
477449445 0 -1057547938997272e-31 1 16 381 2001 0 ?292 405 378 402 0 0 1 30 404
 2105 0 405 402 406 0 +.045 .0031 .0223 0 -1 0 16 405 2004 0 ?407 408 381 404 0
 0 1 30 406 2103 0 408 404 409 0 +.045 .0031 .0032 0 1 0 16 408 2010 0 ?410 411
 405 406 0 0 1 30 409 2102 0 411 406 412 0 +.045 .0031 .00730081522550553 0 1057
54793899727e-30 1 16 411 2013 0 ?413 414 408 409 0 0 1 30 412 2101 0 414 409 415
 0 +.045 .00951 .0036 0 .866025403784436 -.5 16 414 2016 0 ?416 417 411 412 0 0
 1 30 415 2100 0 417 412 418 0 +.045 .00951 .0036 0 0 1 16 417 2019 0 ?419 386 4
14 415 0 0 1 30 418 2099 0 386 415 420 0 +.045 .00951 .0219 0 -.866025403784436
 -.5 16 386 2022 0 ?421 382 417 418 0 0 1 30 420 2098 0 422 418 423 0 +-.045 .00
31 .01819918477449445 1 0 0 16 422 1976 0 ?222 424 425 420 425 425 1 30 423 2097
 0 426 420 427 0 +-.045 .00951 .0219 1 0 0 16 426 1980 0 ?428 425 429 423 429 42
9 1 30 427 2096 0 430 423 431 0 +-.045 .00951 .0036 1 0 0 16 430 1984 0 ?432 429
 433 427 433 433 1 30 431 2095 0 434 427 435 0 +-.045 .0031 .00730081522550553 1
 0 0 16 434 1988 0 ?219 433 436 431 436 436 1 30 435 2094 0 437 431 438 0 +-.045
 .0031 .0032 1 0 0 16 437 1992 0 ?439 436 440 435 440 440 1 30 438 2093 0 441 43
5 442 0 +-.045 0 .0032 1 0 0 16 441 1996 0 ?443 440 444 438 444 444 1 30 442 209
2 0 445 438 446 0 +-.045 0 .0223 1 0 0 16 445 2000 0 ?447 444 448 442 448 448 1
 30 446 2091 0 449 442 450 0 +-.045 .0031 .0223 1 0 0 16 449 1972 0 ?451 448 293
 446 293 293 1 38 255 450 1625 0 424 446 452 0 +453 454 455 456 457 16 424 1592
 0 ?458 459 422 450 0 0 1 31 255 452 1624 0 459 450 460 0 +.01299038105676662 .0
575 -.0335 -154197642309049e-30 -197215226305253e-45 -1 .499999999999992 -.86602
5403784443 -770988211545232e-31 .00125 51 453 1618 0 461 454 462 463 +.012990381
05676664 .0575 .033501 -154197642309049e-30 -197215226305253e-45 -1 .00125 -1 0
 154197642309049e-30 52 255 454 1620 0 1 464 453 465 --185746479925481e-31 .05 -
.03046 -1541976423090495e-31 0 -1 .01075 .707106781186549 .707106781186547 -1 0
 1541976423090495e-31 40 255 3 455 0 1 3 593359231562615e-19 .367422890035946 ??
.0117890627002738 .0571545521655106 -.0335002 .0119013655858961 .056886367125876
8 -.03346007472712455 .01209055527817014 .0566323517024892 -.0335002 41 255 1 45
6 L.0117890627002738 .0571545521655106 -.0335002 41 1 457 L.01209055527817014 .0
566323517024892 -.0335002 50 255 464 2081 0 287 466 454 0 +-.045 .0031 .01819918
477449445 0 1 1057547938997272e-31 0 -1057547938997272e-31 1 141 255 465 450 465
 465 454 14 255 287 2041 467 ?468 461 284 4 464 -469 469 468 461 18 50 466 2082
 0 470 471 464 0 +-.045 .0031 .0223 0 0 1 1 0 0 14 470 2069 472 ?298 473 474 4 4
66 -475 475 298 473 18 50 471 2084 0 473 476 466 0 +-.045 .0031 .0032 0 0 -1 -1
 0 0 14 473 2061 477 ?470 478 479 4 471 -480 480 470 478 18 50 476 2085 0 478 48
1 471 0 +-.045 .0031 .00730081522550553 0 1 -105754793899727e-30 0 1057547938997
27e-30 1 14 478 2057 482 ?473 483 484 4 476 -485 485 473 483 18 50 481 2086 0 48
3 486 476 0 +-.045 .00951 .0036 0 -.5 -.866025403784436 0 .866025403784436 -.5 1
4 483 2053 487 ?478 488 489 4 481 -490 490 478 488 18 50 486 2087 0 488 491 481
 0 +-.045 .00951 .0036 0 1 0 0 0 1 14 488 2049 492 ?483 468 493 4 486 -0 0 483 4
68 18 50 491 2088 0 468 494 486 0 +-.045 .00951 .0219 0 -.5 .866025403784436 0 -
.866025403784436 -.5 14 468 2045 495 ?488 287 496 4 491 -497 497 488 287 18 50 4
94 2674 0 498 499 491 0 +.00955 .0031 .0335 1 0 -1541976423090495e-31 -154197642
3090495e-31 0 -1 14 498 2625 500 ?0 501 23 4 494 -298 298 0 501 18 50 499 2676 0
 501 502 494 0 +-.00955 .0031 .0335 -1 0 1541976423090495e-31 1541976423090495e-
31 0 1 14 501 2609 503 ?498 504 505 4 499 -506 506 498 504 18 50 502 2678 0 507
 508 499 0 +-.00915 .00951 .0335 -.866025403784436 -.5 1335390754433026e-31 .5 -
.866025403784436 0 14 507 2569 509 ?510 506 511 4 502 -504 504 510 506 18 50 508
 2680 0 510 0 502 0 +.00915 .00951 .0335 .866025403784436 -.5 -1335390754433026e
-31 .5 .866025403784436 0 14 510 2561 512 ?513 507 514 4 508 -513 513 513 507 18
 81 255 1 512 2980 515 510 516 0 509 517 518 14 513 2565 517 ?504 510 519 4 508
 -510 510 504 510 18 15 514 2564 0 265 510 0 13 18 29 0 0 0 0 0 0 8 12 14 12 240
3 520 ?521 0 522 4 523 -521 524 521 0 18 81 1 520 2982 515 12 525 0 517 526 527
 14 521 2325 526 ?469 12 528 4 523 -529 12 469 12 18 15 522 2401 0 530 12 0 50 5
23 65 0 524 531 532 0 +0 0 0 0 1 0 0 0 1 14 524 43 533 ?534 535 536 4 523 -12 52
9 534 535 18 81 1 533 2984 515 524 537 0 526 538 539 14 534 210 538 ?540 524 541
 4 542 -0 0 540 524 18 14 535 1 543 ?524 544 545 4 531 +0 0 524 544 18 15 536 44
 0 302 524 0 14 529 1899 546 ?547 475 548 4 523 -524 521 547 475 18 81 1 546 298
7 515 529 549 0 543 550 551 14 547 85 550 ?306 529 552 4 553 -0 0 306 529 18 14
 475 2181 554 ?529 480 555 4 466 -470 470 529 480 18 15 548 1897 0 556 529 0 17
 556 0 548 26 557 10 173 444 0 0 -17 26 0 548 558 556 259 21 27 0 559 +17 557 0
 548 556 558 171 101 560 0 0 -17 173 0 479 410 28 171 556 444 0 561 +16 444 2204
 0 ?173 441 445 438 441 441 1 15 479 2064 0 562 473 0 17 410 0 479 562 173 168 5
61 408 0 563 +17 28 0 479 173 562 10 24 364 0 556 +17 561 0 564 101 563 171 410
 408 0 557 -15 564 80 0 563 565 0 17 101 0 564 566 561 99 557 560 0 567 +17 563
 0 564 561 568 168 413 411 0 0 -17 568 0 564 563 569 165 416 414 0 0 -17 413 0 4
84 570 170 165 563 411 0 568 +15 484 2060 0 413 478 0 17 570 0 484 242 413 211 1
67 436 0 0 -17 170 0 484 413 571 168 562 440 0 410 +17 571 0 484 170 329 237 263
 294 0 562 -17 562 0 479 28 410 237 170 440 0 0 -16 440 2198 0 ?170 437 441 435
 437 437 1 17 329 0 484 571 242 261 572 327 0 573 +17 263 0 23 25 24 261 571 294
 0 329 +16 294 2441 0 ?263 35 309 295 35 35 1 15 23 2628 0 263 498 0 17 25 0 23
 21 263 259 573 330 0 26 +17 24 0 23 263 21 237 28 364 0 571 -17 573 0 574 572 5
59 261 25 330 0 0 -15 574 78 0 575 544 0 17 572 0 574 576 573 240 329 327 0 0 -1
7 559 0 574 573 567 259 558 577 0 0 +17 567 0 574 559 578 99 566 579 0 558 +17 5
58 0 548 557 26 99 559 577 0 0 -16 577 45 0 ?559 580 581 582 581 581 1 16 580 4
 0 ?583 584 577 585 0 0 1 16 581 2338 0 ?97 577 586 582 577 577 1 30 582 66 0 57
7 587 588 0 +.045 0 -.0335 -1 0 1541976423090495e-31 30 587 67 0 586 589 582 0 +
.045 0 .0335 0 0 -1 30 588 86 0 590 582 591 0 +-.045 .067 -.0335 0 -1 0 16 590 7
4 0 ?592 579 593 588 0 0 1 30 591 87 0 579 588 594 0 +.045 .067 -.0335 0 -1 0 16
 579 75 0 ?567 595 590 591 0 0 1 30 594 88 0 595 591 596 0 +.045 .067 .0335 0 -1
 0 16 595 76 0 ?597 598 579 594 0 0 1 30 596 89 0 598 594 599 0 +-.045 .067 .033
5 0 -1 0 16 598 77 0 ?600 601 595 596 0 0 1 31 599 282 0 602 596 603 0 +.035 .05
 .0115 1 0 -1217349807703022e-31 -1217349807703022e-31 0 -1 .01075 16 602 307 0
 ?604 605 606 599 0 0 1 31 603 367 0 606 599 607 0 +-1750143240207715e-32 .05 -.
0235 0 0 -1 -1 0 0 .01075 16 606 377 0 ?608 602 609 603 0 0 1 31 607 423 0 601 6
03 610 0 --185746479925481e-31 .05 -.03046 1541976423090495e-31 0 1 1 0 -1541976
423090495e-31 .01075 16 601 420 0 ?611 612 598 607 0 0 1 31 610 429 0 613 607 61
4 0 +-190434088251676e-31 .05 -.0335 1541976423090495e-31 0 1 1 0 -1541976423090
495e-31 .01379 16 613 1433 0 ?615 616 617 610 617 612 1 31 614 435 0 618 610 619
 0 +-.045 .05 .0115 1 0 0 0 0 -1 .01379 16 618 1020 0 ?620 621 622 614 616 622 1
 31 619 441 0 621 614 623 0 --.04196 .05 .0115 1 0 0 0 0 -1 .01075 16 621 438 0
 ?624 625 618 619 0 0 1 31 623 447 0 625 619 626 0 -.04196 .05 .0115 -1 0 0 0 0
 1 .01075 16 625 444 0 ?627 628 621 623 0 0 1 31 626 453 0 629 623 630 0 +.045 .
05 .0115 -1 0 0 0 0 1 .01379 16 629 1009 0 ?631 632 633 626 633 628 1 30 630 531
 0 632 626 634 0 --.03 .02 -.0235 0 1 0 16 632 529 0 ?81 635 629 630 0 0 1 30 63
4 536 0 635 630 636 0 +.03 .067 -.0235 0 1 0 16 635 534 0 ?637 638 632 634 0 0 1
 30 636 547 0 638 634 639 0 -.035 .02 -.0185 0 1 0 16 638 545 0 ?75 640 635 636
 0 0 1 31 639 555 0 640 636 641 0 --.03 .02 -.0185 0 -1 0 0 0 -1 .005 16 640 553
 0 ?72 642 638 639 0 0 1 31 641 560 0 642 639 643 0 -.03 .02 -.0185 0 -1 0 0 0 -
1 .005 16 642 558 0 ?84 644 640 641 0 0 1 30 643 568 0 644 641 645 0 +-.035 .067
 -.0185 0 1 0 16 644 566 0 ?646 647 642 643 0 0 1 31 645 579 0 647 643 648 0 -.0
3 .067 -.0185 0 1 0 0 0 1 .005 16 647 571 0 ?78 649 644 645 0 0 1 31 648 580 0 6
49 645 650 0 --.03 .067 -.0185 0 1 0 0 0 1 .005 16 649 575 0 ?87 651 647 648 0 0
 1 38 650 1013 0 651 648 652 0 +653 654 655 656 657 16 651 1011 0 ?132 658 649 6
50 0 0 1 38 652 1157 0 658 650 659 0 +653 660 661 662 663 52 653 497 0 664 665 1
5 666 -.04196 .05 .0115 1 0 0 .01075 .70710678118655 .707106781186545 0 0 -1 51
 654 1111 0 667 660 668 669 +-.045 .035 .0115 1 0 0 .00125 0 0 -1 40 3 655 0 1 3
 593359231577241e-19 .367422890040382 ??.0450002 .0362130961319998 .011198507422
1027 .04496007472712445 .0362499314999497 .01148691392215174 .0450002000000007 .
0362130961319993 .01180149257789932 41 1 656 L.0450002 .0362130961319998 .011198
5074221027 41 1 657 L.0450002000000007 .0362130961319993 .01180149257789932 14 6
67 1077 670 ?671 672 673 4 654 -672 672 671 672 18 51 660 1256 0 674 675 654 676
 +-.045 .0575 -.001490381056766576 1 0 0 .00125 0 0 -1 51 668 402 0 677 654 678
 0 +-87121667904613e-31 .05 .0335 -1541976423090495e-31 0 -1 .01075 -1 0 1541976
423090495e-31 141 669 650 679 679 654 141 679 680 669 669 654 38 680 1117 0 681
 682 683 0 +665 654 684 685 686 16 681 1060 0 ?129 687 688 680 0 0 1 31 682 1119
 0 689 690 680 0 +.045 .035 .0115 1 0 0 0 0 -1 .00125 31 683 1116 0 687 680 691
 0 +.035 .035 .0115 1 0 -1217349807703022e-31 -1217349807703022e-31 0 -1 .00125
 52 665 484 0 692 693 653 694 --.045 .05 .0115 -1 0 0 .01379 .707106781186545 .7
0710678118655 0 0 1 40 3 684 0 1 3 593359231574366e-19 .367422890039672 ??-.0450
002000000007 .0362130961319994 .01180149257789892 -.0449600747271246 .0362499314
999497 .01151308607785 -.0450002 .0362130961319999 .0111985074221031 41 1 685 L-
.0450002000000007 .0362130961319994 .01180149257789892 41 1 686 L-.0450002 .0362
130961319999 .0111985074221031 14 692 477 695 ?664 696 697 4 665 +0 0 664 696 18
 52 693 471 0 696 553 665 0 --185746479925481e-31 .05 -.03046 -1541976423090495e
-31 0 -1 .01075 .707106781186549 .707106781186547 -1 0 1541976423090495e-31 141
 694 680 698 699 665 141 698 700 699 694 665 141 699 701 694 698 665 38 701 1262
 0 702 703 704 0 +665 660 705 706 707 16 702 1205 0 ?135 708 709 701 0 0 1 31 70
3 1264 0 710 711 701 0 +.045 .0575 -.001490381056766576 1 0 0 0 .866025403784437
 .5 .00125 31 704 1261 0 708 701 712 0 +.035 .0575 -.001490381056766576 1 0 -121
7349807703022e-31 -1217349807703022e-31 0 -1 .00125 40 3 705 0 1 3 5933592315619
92e-19 .367422890035757 ??-.0450002 .0566323517024894 -.00059055527817004 -.0449
6007472712455 .0568637013741736 -.0004144516637433685 -.0450002 .057154552165510
7 -.000289062700273765 41 1 706 L-.0450002 .0566323517024894 -.00059055527817004
 41 1 707 L-.0450002 .0571545521655107 -.000289062700273765 16 708 1201 0 ?713 7
14 702 704 0 0 1 31 712 1260 0 714 704 690 0 +-.035 .0575 -.001490381056766576 -
1 0 0 0 0 1 .00125 16 714 1200 0 ?715 689 708 712 0 0 1 31 690 1120 0 688 712 68
2 0 +-.045 .035 .0115 1 0 0 0 0 -1 .00125 16 688 1052 0 ?716 681 689 690 0 0 1 1
7 716 0 552 620 63 123 717 688 0 718 +16 689 1067 0 ?719 688 714 682 0 0 1 17 71
9 0 720 132 132 64 721 689 0 722 +15 720 1085 0 132 672 723 17 132 0 720 719 719
 130 722 651 0 721 +17 721 0 724 631 66 130 719 689 0 725 -17 722 0 726 727 725
 64 132 651 0 0 -15 726 1286 0 728 664 729 17 727 0 726 730 722 136 66 628 0 0 -
17 725 0 726 722 728 130 631 629 0 0 -17 728 0 726 725 731 52 144 732 0 631 -17
 631 0 724 733 721 52 725 629 0 0 +15 724 451 0 631 565 564 17 733 0 724 60 631
 142 54 734 0 731 -17 60 0 724 735 733 58 731 633 0 736 +17 54 0 737 144 144 52
 733 734 0 728 +16 734 1342 0 ?54 738 739 740 0 0 1 17 731 0 726 728 730 142 60
 633 0 0 -17 730 0 726 731 727 58 138 658 0 0 -16 633 1283 0 ?60 629 628 626 628
 629 1 16 628 1153 0 ?66 633 625 626 629 633 1 17 66 0 724 721 735 64 727 628 0
 719 +17 735 0 724 66 60 136 736 710 0 727 -17 736 0 741 138 138 58 735 710 0 73
0 +16 710 1212 0 ?736 709 742 703 0 0 1 16 709 1197 0 ?743 702 710 711 0 0 1 16
 742 1330 0 ?744 710 745 746 0 0 1 17 744 0 541 744 744 0 747 742 0 0 +16 745 13
31 0 ?748 742 749 750 0 0 1 31 746 1390 0 742 750 711 0 +-.035 .0575 .0244903810
5676665 -1 0 0 0 0 1 .00125 31 750 1391 0 745 700 746 0 +.035 .0575 .02449038105
676665 1 0 -1217349807703022e-31 -1217349807703022e-31 0 -1 .00125 31 711 1265 0
 709 746 703 0 +-.045 .0575 -.001490381056766576 1 0 0 0 .866025403784437 .5 .00
125 38 700 1392 0 749 740 750 0 +665 675 751 752 753 16 749 1335 0 ?141 745 738
 700 0 0 1 31 740 1394 0 734 754 700 0 +.045 .0575 .02449038105676665 1 0 0 0 -.
866025403784443 .499999999999992 .00125 51 675 1386 0 755 756 660 757 +-.045 .05
75 .02449038105676665 1 0 0 .00125 0 0 -1 40 3 751 0 1 3 593359231562068e-19 .36
74228900357875 ??-.0450002 .0571545521655105 .0232890627002738 -.044960074727124
55 .0568863671258767 .0234013655858961 -.0450002 .0566323517024892 .023590555278
1701 41 1 752 L-.0450002 .0571545521655105 .0232890627002738 41 1 753 L-.0450002
 .0566323517024892 .0235905552781701 14 755 1352 758 ?759 760 761 4 675 -760 760
 759 760 18 51 756 1481 0 759 762 675 763 +516577521499547e-32 .035 .033501 -154
1976423090495e-31 0 -1 .00125 -1 0 1541976423090495e-31 141 757 659 764 764 675
 38 659 1287 0 732 652 16 0 +653 675 765 766 767 141 764 700 757 757 675 16 732
 1285 0 ?144 20 658 659 0 0 1 30 16 2180 0 20 659 6 0 +.00955 .0031 .0223 0 1 0
 40 3 765 0 1 3 593359231565164e-19 .3674228900367435 ??.0450002 .05663235170248
89 .0235905552781704 .0449600747271244 .056863701374173 .02341445166374365 .0450
002 .0571545521655109 .0232890627002737 41 1 766 L.0450002 .0566323517024889 .02
35905552781704 41 1 767 L.0450002 .0571545521655109 .0232890627002737 16 20 2178
 0 ?36 9 732 16 0 0 1 17 36 0 474 176 768 22 32 20 0 286 +15 474 2072 0 768 470
 0 17 176 0 474 407 36 174 286 293 0 292 +17 768 0 474 36 407 235 37 448 0 0 -17
 32 0 31 283 29 235 36 20 0 299 -17 299 0 536 37 302 235 283 300 0 768 +17 37 0
 536 769 299 30 768 448 0 407 +17 302 0 536 299 769 281 104 770 0 0 -17 769 0 53
6 302 37 102 771 586 0 0 -17 104 0 301 772 296 102 302 770 0 597 +16 770 2320 0
 ?104 773 774 589 773 773 1 16 773 53 0 ?305 560 770 589 770 770 1 16 774 57 0 ?
775 770 776 777 776 776 1 30 589 68 0 773 777 587 0 +.045 0 .0335 1 0 -770988211
545248e-31 30 777 69 0 774 778 589 0 +-.045 0 .0335 0 0 1 30 778 14 0 593 779 77
7 0 +.045 .067 -.0335 -1 0 1541976423090495e-31 16 593 13 0 ?110 590 780 778 0 0
 1 30 779 11 0 780 781 778 0 +.045 .067 .0335 0 0 -1 16 780 10 0 ?113 593 782 77
9 0 0 1 30 781 8 0 782 585 779 0 +.045 .067 .0335 1 0 -770988211545248e-31 16 78
2 7 0 ?783 780 584 781 584 584 1 30 585 5 0 580 784 781 0 +-.045 .067 .0335 0 0
 1 30 784 236 0 785 786 585 0 +.035 .02 .0335 0 1 0 16 785 173 0 ?93 787 788 784
 0 0 1 30 786 239 0 787 789 784 0 +-.035 .02 .0335 0 1 0 16 787 177 0 ?790 776 7
85 786 0 0 1 30 789 240 0 791 792 786 0 +-.035 .067 .0335 0 0 1 16 791 564 0 ?12
1 793 794 789 0 0 1 30 792 241 0 794 795 789 0 +-.035 .067 -.0235 -1 0 0 16 794
 518 0 ?796 791 797 792 0 0 1 30 795 242 0 797 798 792 0 +.035 .067 -.0235 -1217
349807703022e-31 0 -1 16 797 189 0 ?799 794 605 795 0 0 1 30 798 244 0 788 800 7
95 0 +-.035 .02 .0335 0 0 1 16 788 551 0 ?125 785 801 798 0 0 1 30 800 245 0 801
 802 798 0 +-.035 .02 -.0235 -1 0 0 16 801 524 0 ?803 788 804 800 0 0 1 30 802 2
46 0 804 805 800 0 +.035 .02 -.0235 -1217349807703022e-31 0 -1 16 804 182 0 ?806
 801 793 802 0 0 1 30 805 247 0 793 807 802 0 +.035 .02 .0335 1 0 0 16 793 170 0
 ?808 804 791 805 0 0 1 31 807 337 0 605 691 805 0 +-.035 .05 .0115 -1 0 0 0 0 1
 .01075 16 605 306 0 ?809 797 602 807 0 0 1 31 691 1115 0 609 683 807 0 +-.035 .
035 .0115 -1 0 0 0 0 1 .00125 16 609 1055 0 ?810 606 687 691 0 0 1 17 810 0 811
 810 810 0 812 609 0 0 +16 687 1056 0 ?813 609 681 683 0 0 1 17 813 0 814 813 81
3 0 815 687 0 0 +15 814 1028 0 813 816 817 17 815 0 723 815 815 0 813 687 0 0 -1
5 723 1086 0 815 672 0 14 672 1082 818 ?667 14 720 4 654 -667 667 667 14 18 81 1
 818 2993 515 672 819 0 758 820 821 14 14 611 820 ?672 822 823 4 5 -0 0 672 822
 18 81 1 820 2994 515 14 824 0 818 825 826 14 822 590 825 ?14 664 827 4 15 -0 0
 14 664 18 15 823 612 0 828 14 0 17 828 0 823 829 830 79 72 640 0 0 -17 829 0 82
3 69 828 85 81 632 0 0 -17 830 0 823 828 69 70 646 644 0 0 -17 72 0 831 125 803
 70 828 640 0 832 +15 831 224 0 806 833 0 17 125 0 831 808 72 108 832 788 0 834
 +17 803 0 831 72 84 79 835 801 0 828 +17 832 0 836 646 834 70 125 788 0 830 -15
 836 213 0 832 534 0 17 646 0 836 121 832 67 830 644 0 837 +17 834 0 836 832 121
 108 790 787 0 838 -17 121 0 836 834 646 119 837 791 0 790 +17 790 0 301 118 838
 119 834 787 0 783 +17 838 0 301 790 839 108 808 793 0 0 -17 839 0 301 838 840 1
22 93 785 0 0 -17 808 0 831 806 125 122 838 793 0 839 +17 806 0 831 84 808 73 12
7 804 0 841 +17 84 0 831 803 806 82 841 642 0 835 +17 127 0 842 93 75 122 806 80
4 0 808 -17 841 0 827 843 844 73 84 642 0 0 -15 827 591 0 841 822 0 17 843 0 827
 90 841 76 75 638 0 0 -17 844 0 827 841 90 82 637 635 0 0 -17 90 0 827 844 843 8
8 78 647 0 637 -17 637 0 845 796 835 88 844 635 0 846 +15 845 217 0 835 540 0 17
 796 0 845 81 637 85 846 794 0 829 +17 835 0 845 637 81 82 803 801 0 844 -17 846
 0 545 78 87 88 796 794 0 0 -15 545 151 0 837 535 0 17 78 0 545 847 846 76 90 64
7 0 799 +17 87 0 545 846 837 85 69 649 0 796 +17 837 0 545 87 783 67 121 791 0 0
 -17 69 0 823 830 829 67 87 649 0 646 -17 783 0 545 837 583 119 118 782 0 0 +17
 583 0 545 783 110 98 848 580 0 849 +17 118 0 301 600 790 98 783 782 0 583 -17 6
00 0 301 305 118 105 849 598 0 0 +17 305 0 301 317 600 278 850 773 0 0 +17 849 0
 851 848 107 98 600 598 0 0 -15 851 84 0 775 547 0 17 848 0 851 592 849 94 583 5
80 0 0 -17 107 0 851 849 388 105 852 776 0 850 +17 388 0 851 107 384 195 853 385
 0 852 +17 852 0 528 447 850 195 107 776 0 0 -16 776 1888 0 ?107 774 787 777 774
 774 1 17 850 0 528 852 854 105 305 773 0 600 -15 528 2323 0 447 521 0 17 854 0
 528 850 447 278 234 360 0 305 -17 447 0 528 854 852 232 197 445 0 0 +17 234 0 8
55 228 280 232 854 360 0 19 +15 855 2616 0 277 506 0 17 228 0 855 277 234 226 19
 9 0 358 -17 280 0 855 234 277 278 317 303 0 854 -17 19 0 555 197 451 232 228 9
 0 447 +15 555 2179 0 451 475 0 17 197 0 555 853 19 195 447 445 0 388 -17 451 0
 555 19 853 226 199 449 0 0 +17 853 0 555 451 197 158 388 385 0 384 -17 199 0 85
6 857 358 158 451 449 0 853 -15 856 2297 0 222 469 0 17 857 0 856 222 199 154 38
4 382 0 403 -17 358 0 856 199 858 226 277 356 0 451 +17 858 0 856 358 274 275 32
0 318 0 317 -17 277 0 855 280 228 275 358 356 0 858 -17 274 0 856 858 222 272 85
9 355 0 860 -17 320 0 301 323 317 272 858 318 0 0 +17 317 0 301 320 305 275 280
 303 0 0 +17 323 0 301 307 320 269 860 321 0 0 +17 307 0 301 291 323 266 861 324
 0 0 +17 860 0 511 859 271 272 323 321 0 320 -15 511 2572 0 271 507 0 17 859 0 5
11 210 860 220 274 355 0 374 +17 271 0 511 860 210 269 351 349 0 861 -17 210 0 5
11 271 859 208 374 372 0 351 -17 351 0 493 182 861 208 271 349 0 428 +17 861 0 4
93 351 268 269 307 324 0 323 -15 493 2052 0 432 488 0 17 268 0 493 861 862 266 2
04 346 0 308 -17 862 0 493 268 419 202 161 429 0 0 -17 204 0 514 216 308 202 268
 346 0 380 +17 308 0 514 204 265 266 291 309 0 307 -17 265 0 514 308 216 239 288
 345 0 285 -17 216 0 514 265 204 214 380 378 0 288 -17 288 0 284 157 285 214 265
 345 0 863 +16 345 2420 0 ?288 364 343 342 343 343 1 17 157 0 284 292 288 155 86
3 425 0 421 +17 863 0 864 380 421 214 157 425 0 0 -15 864 2289 0 863 497 0 17 38
0 0 864 161 863 202 216 378 0 862 +17 421 0 864 863 161 155 865 386 0 866 +16 42
5 2283 0 ?157 422 426 420 422 422 1 17 161 0 864 421 380 159 862 429 0 419 +17 8
65 0 564 569 866 159 421 386 0 0 -17 866 0 564 865 867 155 292 381 0 0 -17 867 0
 564 866 771 174 407 405 0 0 -17 292 0 284 286 157 174 866 381 0 867 +17 771 0 5
64 867 597 30 769 586 0 0 +17 407 0 474 768 176 30 867 405 0 771 +17 597 0 564 7
71 868 102 772 595 0 769 +16 586 49 0 ?771 581 560 587 560 560 1 16 560 1894 0 ?
101 586 773 587 586 586 1 17 868 0 564 597 566 114 113 780 0 0 -17 772 0 301 840
 104 114 597 595 0 868 -17 840 0 301 839 772 91 116 584 0 0 -17 116 0 545 113 84
7 114 840 584 0 772 +16 584 140 0 ?116 782 580 781 782 782 1 17 113 0 545 110 11
6 111 868 780 0 566 +17 847 0 545 116 78 91 799 797 0 840 -17 799 0 842 75 93 76
 847 797 0 843 +15 842 221 0 799 816 0 17 75 0 842 127 799 73 843 638 0 806 +17
 93 0 842 799 127 91 839 785 0 847 +14 816 218 869 ?833 540 870 4 871 -0 0 833 5
40 18 81 1 869 2996 515 816 872 0 825 873 874 14 833 222 873 ?875 816 831 4 876
 -0 0 875 816 18 14 540 214 877 ?816 534 878 4 879 -0 0 816 534 18 15 870 1303 0
 748 816 880 50 871 231 0 816 879 531 0 +.035 .02 -.0235 1 0 -1217349807703022e-
31 -1217349807703022e-31 0 -1 50 879 232 0 540 542 871 0 +-.035 .02 -.0235 0 0 -
1 -1 0 0 50 531 2 0 535 871 523 0 +0 .067 0 0 1 0 0 0 1 50 542 233 0 534 876 879
 0 +-.035 .02 .0335 -1 0 0 0 0 1 50 876 235 0 833 678 542 0 +0 .02 0 0 -1 0 0 0
 -1 51 678 334 0 881 668 876 0 +-.045 .05 .0115 1 0 0 .01075 0 0 -1 14 881 311 8
82 ?677 875 883 4 678 -875 875 677 875 18 81 1 882 2999 515 881 884 0 877 885 88
6 14 677 384 885 ?696 881 887 4 668 -0 0 696 881 18 14 875 316 888 ?881 833 889
 4 678 -881 881 881 833 18 15 883 439 0 624 881 890 17 624 0 883 624 624 0 891 6
21 0 0 +15 890 315 0 892 881 0 17 892 0 890 892 892 0 809 605 0 0 -17 809 0 893
 809 809 0 892 605 0 0 +15 893 286 0 809 534 836 17 891 0 894 891 891 0 624 621
 0 0 -15 894 478 0 891 692 0 81 1 888 3001 515 875 895 0 885 896 897 15 889 445
 0 627 875 898 17 627 0 889 627 627 0 899 625 0 0 +15 898 320 0 900 875 0 17 900
 0 898 900 900 0 604 602 0 0 -17 604 0 817 604 604 0 900 602 0 0 +15 817 280 0 6
04 816 842 17 899 0 729 899 899 0 627 625 0 0 -15 729 492 0 899 664 0 14 664 490
 896 ?822 692 726 4 653 +0 0 822 692 18 81 1 896 3002 515 664 901 0 888 902 903
 80 255 1 515 904 905 9000 1 1 1 1 1 1 1 1 0 FFFFTFTFFFFFFF1 81 1 901 996 906 66
4 0 896 907 908 909 81 1 902 3003 515 671 910 0 896 911 912 82 255 1 903 5892998
43 14 671 1227 902 ?674 667 741 4 660 -674 674 674 667 18 81 1 910 1866 906 671
 0 902 913 914 915 81 1 911 3004 515 674 914 0 902 916 917 82 1 912 -278003581 1
4 674 1222 911 ?760 671 918 4 660 -671 671 760 671 18 81 1 914 1867 906 674 0 91
1 910 919 920 81 1 916 3005 515 760 919 0 911 921 922 82 1 917 -277413757 14 760
 1357 916 ?755 674 737 4 675 -755 755 755 674 18 81 1 919 1868 906 760 0 916 914
 923 924 81 1 921 3006 515 759 925 0 916 926 927 82 1 922 -268500861 14 759 1463
 921 ?928 755 929 4 756 -0 0 928 755 18 81 1 925 1870 906 759 0 921 923 930 931
 81 1 926 3007 515 696 932 0 921 933 934 82 1 927 -2042756986 14 696 464 926 ?69
2 677 935 4 693 +0 0 692 677 18 81 1 932 994 906 696 0 926 936 907 937 81 1 933
 3008 515 928 930 0 926 938 939 82 1 934 589037704 14 928 1536 933 ?461 759 940
 4 941 -0 0 461 759 18 81 1 930 1871 906 928 0 933 925 942 943 81 1 938 3009 515
 461 942 0 933 944 945 82 1 939 -1862401912 14 461 1600 938 ?287 928 946 4 453 -
0 0 287 928 18 81 1 942 1872 906 461 0 938 930 549 947 81 1 944 3010 515 565 948
 0 938 949 950 82 1 945 -1808662392 14 565 81 944 ?544 306 724 4 951 -0 0 544 30
6 18 81 1 948 983 906 565 0 944 952 953 954 81 1 949 3011 515 544 953 0 944 955
 956 82 1 950 588316811 14 544 79 949 ?535 565 957 4 532 -0 0 535 565 18 81 1 95
3 984 906 544 0 949 948 958 959 81 1 955 3012 515 306 952 0 949 960 961 82 1 956
 588120221 14 306 83 955 ?565 547 301 4 962 -0 0 565 547 18 81 1 952 982 906 306
 0 955 963 948 964 81 1 960 3013 515 469 965 0 955 966 967 82 1 961 588710045 14
 469 2299 960 ?497 521 856 4 464 -287 287 497 521 18 81 1 965 2840 906 469 0 960
 525 968 969 81 1 966 3014 515 497 968 0 960 970 971 82 1 967 -1043332963 14 497
 2290 966 ?490 469 864 4 491 -468 468 490 469 18 81 1 968 2841 906 497 0 966 965
 972 973 81 1 970 3015 515 490 972 0 966 974 975 82 1 971 -1044184931 14 490 225
4 970 ?485 497 976 4 481 -483 483 485 497 18 81 1 972 2842 906 490 0 970 968 977
 978 81 1 974 3016 515 485 977 0 970 979 980 82 1 975 -1048903523 14 485 2229 97
4 ?480 490 981 4 476 -478 478 480 490 18 81 1 977 2843 906 485 0 974 972 982 983
 81 1 979 3017 515 480 982 0 974 984 985 82 1 980 -1054736227 14 480 2208 979 ?4
75 485 986 4 471 -473 473 475 485 18 81 1 982 2844 906 480 0 979 977 987 988 81
 1 984 3018 515 298 989 0 979 990 991 82 1 985 -1056898915 14 298 2629 984 ?506
 470 31 4 494 -498 498 506 470 18 81 1 989 2853 906 298 0 984 992 993 994 81 1 9
90 3019 515 506 993 0 984 995 996 82 1 991 -1070661475 14 506 2613 990 ?507 298
 855 4 499 -501 501 507 298 18 81 1 993 2854 906 506 0 990 989 997 998 81 1 995
 3020 515 504 999 0 990 0 1000 82 1 996 -1066663779 14 504 2573 995 ?501 513 100
1 4 502 -507 507 501 513 18 81 1 999 2858 906 504 0 995 1002 1003 1004 82 1 1000
 -1052245859 80 1 906 0 1005 8001 0 0 0 0 3 5 0 0 0 FFFFTFTFFFFFFF2 81 1 1002 28
57 906 513 0 517 516 999 1006 81 1 1003 2859 906 501 0 503 999 1007 1008 83 255
 3 1004 .792156862745098 .819607843137255 .933333333333333 81 1 503 2978 515 501
 1003 0 500 509 1009 81 1 1007 2860 906 498 0 500 1003 0 1010 83 3 1008 .7921568
62745098 .819607843137255 .933333333333333 81 1 500 2977 515 498 1007 0 495 503
 1011 83 3 1010 .792156862745098 .819607843137255 .933333333333333 81 1 495 2976
 515 468 1012 0 492 500 1013 82 1 1011 -1070137187 81 1 1012 2847 906 468 0 495
 1014 1015 1016 81 1 492 2975 515 488 1015 0 487 495 1017 82 1 1013 1616314525 8
1 1 1015 2848 906 488 0 492 1012 1018 1019 81 1 487 2974 515 483 1018 0 482 492
 1020 82 1 1017 1616445597 81 1 1018 2849 906 483 0 487 1015 1021 1022 81 1 482
 2973 515 478 1021 0 477 487 1023 82 1 1020 1616576669 81 1 1021 2850 906 478 0
 482 1018 1024 1025 81 1 477 2972 515 473 1024 0 472 482 1026 82 1 1023 16167077
41 81 1 1024 2851 906 473 0 477 1021 992 1027 81 1 472 2971 515 470 992 0 467 47
7 1028 82 1 1026 1616838813 81 1 992 2852 906 470 0 472 1024 989 1029 81 1 467 2
970 515 287 1014 0 0 472 1030 82 1 1028 1617100957 81 1 1014 2846 906 287 0 467
 987 1012 1031 82 1 1030 1617232029 81 1 987 2845 906 475 0 554 982 1014 1032 83
 3 1031 .792156862745098 .819607843137255 .933333333333333 81 1 554 2989 515 475
 987 0 550 670 1033 83 3 1032 .792156862745098 .819607843137255 .933333333333333
 81 1 550 2988 515 547 963 0 546 554 1034 81 1 670 2990 515 667 913 0 554 695 10
35 82 1 1033 -1073479523 81 1 913 1865 906 667 0 670 819 910 1036 81 1 695 2991
 515 692 907 0 670 758 1037 82 1 1035 -677642111 81 1 907 995 906 692 0 695 932
 901 1038 81 1 758 2992 515 755 923 0 695 818 1039 82 1 1037 589168771 81 1 923
 1869 906 755 0 758 919 925 1040 82 1 1039 -267911037 83 3 1040 1 1 1 83 3 1038
 .792156862745098 .819607843137255 .933333333333333 81 1 819 1864 906 672 0 818
 824 913 1041 83 3 1036 1 1 1 81 1 824 998 906 14 0 820 908 819 1042 83 3 1041 1
 1 1 81 1 908 997 906 822 0 825 901 824 1043 83 3 1042 .792156862745098 .8196078
43137255 .933333333333333 81 1 825 2995 515 822 908 0 820 869 1044 83 3 1043 .79
2156862745098 .819607843137255 .933333333333333 82 1 1044 1933705342 81 1 963 98
1 906 547 0 550 0 952 1045 82 1 1034 588578955 83 3 1045 .792156862745098 .81960
7843137255 .933333333333333 83 3 1029 .792156862745098 .819607843137255 .9333333
33333333 83 3 1027 .792156862745098 .819607843137255 .933333333333333 83 3 1025
 .792156862745098 .819607843137255 .933333333333333 83 3 1022 .792156862745098 .
819607843137255 .933333333333333 83 3 1019 .792156862745098 .819607843137255 .93
3333333333333 83 3 1016 .792156862745098 .819607843137255 .933333333333333 81 1
 509 2979 515 507 997 0 503 512 1046 82 1 1009 -1066139491 81 1 997 2855 906 507
 0 509 993 516 1047 82 1 1046 -1051721571 81 1 516 2856 906 510 0 512 997 1002 1
048 83 3 1047 .792156862745098 .819607843137255 .933333333333333 83 3 1048 .7921
56862745098 .819607843137255 .933333333333333 81 1 517 2981 515 513 1002 0 512 5
20 1049 83 3 1006 .792156862745098 .819607843137255 .933333333333333 82 1 1049 -
1050541923 79 255 15 1005 SDL/TYSA_COLOUR15 1001 2576 0 252 504 0 17 252 0 1001
 340 1050 250 1051 353 0 337 +17 340 0 1001 207 252 247 1052 338 0 1053 +17 1050
 0 1001 252 207 217 371 369 0 1051 -17 1051 0 981 188 337 217 252 353 0 0 -17 33
7 0 981 1051 255 250 575 335 0 1052 +15 981 2227 0 439 485 0 17 255 0 981 337 43
9 253 225 359 0 334 +17 575 0 574 1054 1052 253 337 335 0 0 -17 1052 0 574 575 1
053 250 340 338 0 0 -17 1053 0 574 1052 576 247 341 313 0 0 -17 576 0 574 1053 5
72 244 312 310 0 0 -17 341 0 493 1055 249 244 1053 313 0 576 +17 1055 0 493 164
 341 177 246 348 0 1056 -17 249 0 493 341 432 247 207 352 0 340 +17 432 0 493 24
9 1057 205 185 430 0 0 +17 207 0 1001 1050 340 205 249 352 0 371 -16 352 2435 0
 ?249 349 355 347 349 349 1 16 355 2447 0 ?859 352 353 350 353 353 1 17 371 0 48
9 185 219 205 1050 369 0 432 +15 489 2056 0 219 483 0 17 185 0 489 1058 371 183
 432 430 0 1057 -17 219 0 489 371 1058 217 188 434 0 1050 +17 1058 0 489 219 185
 186 397 395 0 394 -17 188 0 981 1059 1051 186 219 434 0 1058 -17 1059 0 981 439
 188 189 394 392 0 391 -17 439 0 981 255 1059 223 191 437 0 0 +17 394 0 851 397
 391 186 1059 392 0 0 +17 391 0 851 394 775 189 194 389 0 0 +17 775 0 851 391 59
2 192 1060 774 0 0 +17 194 0 986 443 191 192 391 389 0 1061 -15 986 2207 0 443 4
80 0 17 443 0 986 368 194 229 1061 441 0 0 +17 191 0 986 194 368 189 439 437 0 1
059 -17 1061 0 522 1060 1062 192 443 441 0 775 -17 1060 0 522 530 1061 95 775 77
4 0 0 -17 1062 0 522 1061 530 229 258 362 0 443 -17 530 0 522 1062 1060 256 97 5
81 0 0 -17 258 0 505 334 231 256 1062 362 0 1054 +16 362 2466 0 ?258 360 300 357
 360 360 1 15 505 2612 0 258 501 0 17 334 0 505 225 258 253 1054 332 0 575 +17 2
31 0 505 258 225 229 368 366 0 1062 -17 1054 0 574 97 575 256 334 332 0 530 -17
 97 0 574 1063 1054 95 530 581 0 592 +17 1063 0 574 578 97 94 592 590 0 848 -17
 592 0 851 775 848 95 1063 590 0 1060 +17 578 0 574 567 1063 111 110 593 0 0 -17
 110 0 545 583 113 94 578 593 0 1063 +17 225 0 505 231 334 223 255 359 0 368 -17
 368 0 986 191 443 223 231 366 0 439 +16 359 2459 0 ?255 356 360 354 356 356 1 1
7 397 0 851 400 394 183 1058 395 0 0 +17 400 0 851 403 397 180 1057 398 0 0 +17
 403 0 851 384 400 154 1064 401 0 0 +17 1057 0 493 432 182 183 400 398 0 397 -17
 182 0 493 1057 351 180 428 426 0 1064 -17 428 0 496 374 1064 208 182 426 0 0 +1
7 1064 0 496 428 179 180 403 401 0 400 -15 496 2048 0 428 468 0 17 179 0 496 106
4 374 154 222 422 0 857 -17 374 0 496 179 428 220 210 372 0 0 +17 222 0 856 274
 857 220 179 422 0 859 +17 384 0 851 388 403 158 857 382 0 0 +17 164 0 493 419 1
055 162 1056 433 0 416 +17 246 0 519 312 201 244 1055 348 0 341 +16 348 2419 0 ?
246 346 349 344 346 346 1 17 1056 0 976 377 416 177 164 433 0 0 -15 976 2253 0 1
056 490 0 17 377 0 976 167 1056 211 201 375 0 570 +17 416 0 976 1056 167 162 568
 414 0 569 +16 433 2250 0 ?164 430 434 427 430 430 1 17 167 0 976 416 377 165 57
0 436 0 413 +17 569 0 564 568 865 162 419 417 0 0 -17 419 0 493 862 164 159 569
 417 0 865 +16 436 2221 0 ?167 434 437 431 434 434 1 17 201 0 519 246 213 177 37
7 375 0 1055 -15 519 2568 0 246 513 0 17 213 0 519 201 312 211 242 343 0 377 -17
 312 0 519 213 246 240 576 310 0 572 +17 242 0 484 329 570 240 213 343 0 312 +83
 3 998 .792156862745098 .819607843137255 .933333333333333 83 3 994 .792156862745
098 .819607843137255 .933333333333333 83 3 988 .792156862745098 .819607843137255
 .933333333333333 83 3 983 .792156862745098 .819607843137255 .933333333333333 83
 3 978 .792156862745098 .819607843137255 .933333333333333 83 3 973 .792156862745
098 .819607843137255 .933333333333333 81 1 525 2405 906 12 0 520 1065 965 1066 8
3 3 969 .792156862745098 .819607843137255 .933333333333333 81 1 1065 2326 906 52
1 0 526 549 525 1067 83 3 1066 .792156862745098 .819607843137255 .93333333333333
3 81 1 526 2983 515 521 1065 0 520 533 1068 81 1 549 1900 906 529 0 546 942 1065
 1069 83 3 1067 .792156862745098 .819607843137255 .933333333333333 83 3 1069 .79
2156862745098 .819607843137255 .933333333333333 82 1 1068 -1040842595 83 3 964 .
792156862745098 .819607843137255 .933333333333333 50 962 92 0 306 951 553 0 +.04
5 .067 .0335 -770988211545248e-31 0 -1 -1 0 770988211545248e-31 50 951 91 0 565
 532 962 0 +.045 .067 .0335 -1 0 0 0 0 1 50 553 93 0 547 962 693 0 +-.045 .067 .
0335 1 0 0 0 0 -1 50 532 90 0 544 523 951 0 +.045 .067 -.0335 1541976423090495e-
31 0 1 1 0 -1541976423090495e-31 81 1 958 985 906 535 0 543 953 537 1070 83 3 95
9 .792156862745098 .819607843137255 .933333333333333 81 1 543 2986 515 535 958 0
 538 546 1071 81 1 537 986 906 524 0 533 958 1072 1073 83 3 1070 .79215686274509
8 .819607843137255 .933333333333333 81 1 1072 987 906 534 0 538 537 1074 1075 83
 3 1073 .792156862745098 .819607843137255 .933333333333333 81 1 538 2985 515 534
 1072 0 533 543 1076 81 1 1074 988 906 540 0 877 1072 872 1077 83 3 1075 .792156
862745098 .819607843137255 .933333333333333 81 1 877 2998 515 540 1074 0 873 882
 1078 81 1 872 989 906 816 0 869 1074 1079 1080 83 3 1077 .792156862745098 .8196
07843137255 .933333333333333 81 1 1079 990 906 833 0 873 872 895 1081 83 3 1080
 .792156862745098 .819607843137255 .933333333333333 81 1 873 2997 515 833 1079 0
 869 877 1082 81 1 895 991 906 875 0 888 1079 884 1083 83 3 1081 .79215686274509
8 .819607843137255 .933333333333333 81 1 884 992 906 881 0 882 895 936 1084 83 3
 1083 .792156862745098 .819607843137255 .933333333333333 81 1 936 993 906 677 0
 885 884 932 1085 83 3 1084 .792156862745098 .819607843137255 .933333333333333 8
1 1 885 3000 515 677 936 0 882 888 1086 83 3 1085 .792156862745098 .819607843137
255 .933333333333333 82 1 1086 1470759036 82 1 1082 -499646338 82 1 1078 5908071
76 82 1 1076 591069315 82 1 1071 -1852243842 15 957 427 0 615 544 574 17 615 0 9
57 1087 1088 38 1089 613 0 0 +17 1087 0 957 45 615 151 42 459 0 1090 -17 1088 0
 957 615 48 145 1091 1092 0 1089 -17 1089 0 935 1093 458 145 615 613 0 0 -15 935
 1573 0 458 696 1094 17 1093 0 935 1095 1089 46 147 1096 0 0 +17 458 0 935 1089
 1090 38 153 424 0 615 +17 1090 0 935 458 1097 151 45 617 0 0 -17 153 0 946 42 4
2 151 458 424 0 1087 -15 946 1603 0 42 461 1098 17 42 0 946 153 153 38 1087 459
 0 458 +16 459 1593 0 ?42 1099 424 452 0 0 1 16 1099 1597 0 ?1100 1101 459 460 0
 0 1 17 1100 0 1098 1100 1100 0 1102 1099 0 0 +16 1101 1528 0 ?1097 1103 1099 11
04 0 0 1 31 460 1622 0 1099 452 1104 0 -.01299038105676662 .0575 -.0235 0 0 -1 -
1 0 0 .00125 38 1104 1561 0 1101 460 1105 0 +941 462 1106 1107 1108 31 1105 1560
 0 1103 1104 1109 0 +-.01299038105676656 .0575 -.0335 -154197642309049e-30 24651
9032881566e-45 -1 .5 .866025403784437 -770988211545251e-31 .00125 51 941 1554 0
 928 462 762 1110 +-.01299038105676656 .0575 .033501 -154197642309049e-30 246519
032881566e-45 -1 .00125 -1 0 154197642309049e-30 52 462 1556 0 1 453 941 1111 --
185746479925481e-31 .05 -.03046 -1541976423090495e-31 0 -1 .01075 .7071067811865
49 .707106781186547 -1 0 1541976423090495e-31 40 3 1106 0 1 3 59335923156247e-18
 .3674228900359025 ??-.01209055527817008 .0566323517024894 -.0335002 -.011914451
6637434 .0568637013741735 -.03346007472712455 -.01178906270027374 .0571545521655
107 -.0335002 41 1 1107 L-.01209055527817008 .0566323517024894 -.0335002 41 1 11
08 L-.01178906270027374 .0571545521655107 -.0335002 141 1111 1104 1111 1111 462
 52 762 1483 0 1 941 756 1112 --185746479925481e-31 .05 -.03046 -154197642309049
5e-31 0 -1 .01075 .707106781186549 .707106781186547 -1 0 1541976423090495e-31 14
1 1110 1104 1110 1110 941 141 1112 1113 1112 1112 762 38 1113 1487 0 1096 1109 1
114 0 +756 762 1115 1116 1117 16 1096 1455 0 ?1093 1092 1118 1113 0 0 1 31 1109
 1558 0 1118 1105 1113 0 --.01299038105676656 .0575 -.0235 0 0 -1 -1 0 0 .00125
 31 1114 1486 0 1092 1113 1119 0 +-516562101735316e-32 .035 -.0335 -154197642309
0495e-31 0 -1 -1 0 1541976423090495e-31 .00125 40 3 1115 0 1 3 59335923157481e-1
8 .3674228900397985 ??.0003014925778989805 .03621309613199935 -.0335002000000007
 1308607785005084e-20 .0362499314999497 -.0334600747271246 -.0003014925778969485
 .0362130961319999 -.0335002 41 1 1116 L.0003014925778989805 .03621309613199935
 -.0335002000000007 41 1 1117 L-.0003014925778969485 .0362130961319999 -.0335002
 16 1092 1456 0 ?1091 739 1096 1114 0 0 1 31 1119 1485 0 739 1114 754 0 --362364
459426267e-32 .035 -.0235 0 0 -1 -1 0 0 .00125 16 739 1460 0 ?1120 734 1092 1119
 0 0 1 31 754 1395 0 738 1119 740 0 +-.045 .0575 .02449038105676665 1 0 0 0 -.86
6025403784443 .499999999999992 .00125 16 738 1327 0 ?1121 749 734 754 0 0 1 17 1
121 0 552 63 1122 139 51 738 0 1123 +15 552 433 0 1122 547 851 17 63 0 552 716 1
121 61 1123 616 0 717 +17 1122 0 552 1121 743 49 1124 622 0 0 +17 51 0 761 141 1
41 49 1121 738 0 1125 -17 1123 0 697 1125 1126 139 63 616 0 0 -15 697 1298 0 112
5 692 894 17 1125 0 697 1124 1123 49 141 749 0 1122 -17 1126 0 697 1123 718 61 1
29 681 0 0 -16 616 1295 0 ?63 622 613 614 622 618 1 16 622 1165 0 ?1122 618 616
 614 618 616 1 17 718 0 697 1126 1127 123 620 618 0 0 -17 129 0 673 717 717 123
 1126 681 0 716 +15 673 1080 0 129 667 1128 17 717 0 673 129 129 61 716 688 0 11
26 -15 1128 1081 0 812 667 0 17 812 0 1128 812 812 0 810 609 0 0 -17 1127 0 697
 718 1124 55 135 702 0 620 -17 620 0 552 743 716 55 718 618 0 0 +17 743 0 552 11
22 620 133 57 709 0 1124 +17 57 0 918 135 135 55 743 709 0 1127 -17 1124 0 697 1
127 1125 133 1122 622 0 0 -15 918 1225 0 135 674 1129 17 135 0 918 57 57 133 112
7 702 0 743 +15 1129 1226 0 1130 674 0 17 1130 0 1129 1130 1130 0 715 714 0 0 -1
7 715 0 1131 715 715 0 1130 714 0 0 +15 1131 1179 0 715 534 811 15 811 1034 0 81
0 534 893 17 141 0 761 51 51 139 1125 749 0 1121 +15 761 1355 0 141 755 1132 15
 1132 1356 0 747 755 0 17 747 0 1132 747 747 0 744 742 0 0 -17 1120 0 1133 1120
 1120 0 1134 739 0 0 +15 1133 1467 0 1120 759 0 17 1134 0 1135 1134 1134 0 1120
 739 0 0 -15 1135 1442 0 1134 540 1136 15 1136 365 0 608 540 845 17 608 0 1136 6
08 608 0 1137 606 0 0 +17 1137 0 1138 1137 1137 0 608 606 0 0 -15 1138 388 0 113
7 677 0 17 1091 0 929 147 147 46 1088 1092 0 1093 +15 929 1466 0 1091 759 1133 1
7 147 0 929 1091 1091 145 1093 1096 0 1088 -16 1118 1533 0 ?1139 1096 1103 1109
 0 0 1 17 1139 0 1140 1139 1139 0 1141 1118 0 0 +16 1103 1529 0 ?1142 1118 1101
 1105 0 0 1 17 1142 0 940 150 150 43 1143 1103 0 1097 +15 940 1539 0 1142 928 11
40 17 150 0 940 1142 1142 148 1097 1101 0 1143 -17 1143 0 957 48 45 148 1142 110
3 0 1095 -17 1097 0 935 1090 1095 43 150 1101 0 0 +17 1095 0 935 1097 1093 148 4
8 612 0 0 -17 48 0 957 1088 1143 46 1095 612 0 1091 +16 612 1506 0 ?48 617 601 6
10 613 617 1 16 617 1570 0 ?45 613 612 610 612 613 1 17 45 0 957 1143 1087 43 10
90 617 0 1142 +15 1140 1540 0 1139 928 0 17 1141 0 1144 1141 1141 0 1139 1118 0
 0 -15 1144 1515 0 1141 540 1135 15 1098 1604 0 1100 461 0 17 1102 0 878 1102 11
02 0 1100 1099 0 0 -15 878 1579 0 1102 540 1144 15 1094 466 0 1145 696 0 17 1145
 0 1094 1145 1145 0 611 601 0 0 -17 611 0 887 611 611 0 1145 601 0 0 +15 887 421
 0 611 677 1138 83 3 954 .792156862745098 .819607843137255 .933333333333333 83 3
 947 1 1 1 83 3 943 1 1 1 83 3 937 .792156862745098 .819607843137255 .9333333333
33333 83 3 931 1 1 1 83 3 924 1 1 1 15 737 1360 0 144 760 1146 17 144 0 737 54 5
4 142 728 732 0 733 +15 1146 1361 0 1147 760 0 17 1147 0 1146 1147 1147 0 748 74
5 0 0 -17 748 0 870 748 748 0 1147 745 0 0 +83 3 920 1 1 1 83 3 915 1 1 1 15 741
 1230 0 138 671 1148 17 138 0 741 736 736 136 730 658 0 735 +15 1148 1231 0 1149
 671 0 17 1149 0 1148 1149 1149 0 713 708 0 0 -17 713 0 880 713 713 0 1149 708 0
 0 +15 880 1173 0 713 816 814 16 658 1155 0 ?138 732 651 652 0 0 1 83 3 909 .792
156862745098 .819607843137255 .933333333333333 79 14 905 SWEntUnchanged82 1 897
 -1936392068 82 1 886 -1935802244 82 1 874 590545027 17 566 0 564 868 101 111 56
7 579 0 578 -16 429 2264 0 ?161 426 430 423 426 426 1 17 81 0 845 835 796 79 829
 632 0 803 +51 15 602 0 822 653 5 0 +.03 .02 -.0185 0 -1 0 .005 0 0 -1 82 1 826
 1935671422 82 1 821 -678231935 16 448 2164 0 ?37 445 449 442 445 445 1 16 293 2
176 0 ?176 449 401 446 449 449 1 141 763 1113 763 763 756 15 541 1309 0 744 534
 1131 141 676 652 1150 1150 660 141 1150 701 676 676 660 141 666 650 1151 1152 6
53 141 1151 659 1152 666 653 141 1152 652 666 1151 653 40 3 661 0 1 3 5933592315
65094e-19 .3674228900367245 ??.0450002 .0571545521655111 -.000289062700273648 .0
4496007472712445 .0568863671258772 -.0004013655858958815 .0450002 .0566323517024
891 -.000590555278170335 41 1 662 L.0450002 .0571545521655111 -.0002890627002736
48 41 1 663 L.0450002 .0566323517024891 -.000590555278170335 16 27 2473 0 ?26 30
0 35 361 300 300 1 82 1 551 1622737053 82 1 539 593559709 82 1 527 -1033371491 8
2 1 518 -1050017635 141 463 450 463 463 453 19 13 95 0 1 0 8 4 S74 4 CI16 index_
map_offset0 0 1 dCCZ20 11 2 0 0 995 1007 0 0 0 0 0 0 0 0 0 0 0 0 0 0 0 0 0 0 1 0
 
